<?xml version="1.0" encoding="UTF-8"?>
<svg id="Layer_2" data-name="Layer 2" xmlns="http://www.w3.org/2000/svg" xmlns:xlink="http://www.w3.org/1999/xlink" viewBox="0 0 889.16 889.16">
  <defs>
    <style>
      .cls-1 {
        fill: #e0d6c7;
      }

      .cls-2 {
        fill: #82422f;
      }

      .cls-3 {
        fill: #d13b45;
      }

      .cls-4 {
        fill: #a84118;
      }

      .cls-5 {
        fill: #fff;
      }

      .cls-6 {
        fill: #b62d15;
      }

      .cls-7 {
        fill: none;
      }

      .cls-8 {
        clip-path: url(#clippath-1);
      }

      .cls-9 {
        fill: #bf343d;
      }

      .cls-10 {
        fill: #e88c6b;
      }

      .cls-11 {
        fill: #cf734e;
      }

      .cls-12 {
        fill: #ffb18a;
      }

      .cls-13 {
        fill: #cf6a42;
      }

      .cls-14 {
        fill: #e85660;
      }

      .cls-15 {
        fill: #bfae95;
      }

      .cls-16 {
        fill: #edeae6;
      }

      .cls-17 {
        clip-path: url(#clippath);
      }

      .cls-18 {
        fill: #f7f7f7;
      }
    </style>
    <clipPath id="clippath">
      <circle class="cls-7" cx="444.58" cy="444.58" r="444.58"/>
    </clipPath>
    <clipPath id="clippath-1">
      <path class="cls-7" d="M816.78,1048.7c-23.13-68.8-29.1-325.58-87.35-384.51.02-.04.03-.07.05-.11-.18-.12-.35-.24-.53-.36-4.69-4.64-9.72-8.01-15.12-9.89-37.82-23.55-77.06-39.19-112.38-45.63-25.52,175.18-247.68,142.7-315.43,13.75-43.2,11.45-108.17,35.43-132.95,52.44-66.04,28.87-95.14,329.62-95.58,384.76,41.63,40.26,104.15,57.6,164.6,46.2,7.11-38.89,15.29-71.97,22.81-101.25,1.84,1.94,3.76,3.81,5.77,5.6,6.71,28.85,9.18,58.68,11.12,90.17,141.88,21,297.25,52.19,429.63-23.19,36.66,8.71,93.97-5.24,125.36-27.98Z"/>
    </clipPath>
  </defs>
  <g id="People_set" data-name="People set">
    <g class="cls-17">
      <circle class="cls-18" cx="444.58" cy="444.58" r="444.58"/>
      <g>
        <g>
          <path class="cls-14" d="M468.26,83.83c-1.6-.65-3.22-1.27-4.87-1.78-107.64-32.9-225.5,59.03-243.63,165.62-6.17,37.35-6.42,76.58-21.42,111.49-5.15,11.98-13.39,22.43-23.99,30.02-49.13,35.22-89.16,93.34-33.96,139.64,8.51,7.14,15.18,16.2,19.64,26.37,2.43,5.55,4.77,11.19,7.76,16.41,13.63,23.73,42.66,37.02,68,34.28,9.24-1,18.57,0,27.5,2.54,40.98,11.68,86.84-5.96,124.4-20.51,1.78-.69,3.57-1.33,5.41-1.85,96.99-27.98,224.61,48.8,264.21-9.14,4.07-5.96,9.01-11.26,14.6-15.83,15.94-13.05,10.05-38.23,7.3-59.76-1.34-10.48-.32-21.12,2.88-31.19,13.73-43.22,39.49-67.92,9.16-123.23-13.65-22.58-36.16-38.78-50.67-60.66-2.39-3.61-4.4-7.45-6.05-11.46-24.52-59.81-10.73-127.18-78.02-166.81-24.59-15.48-57.1-11.6-88.26-24.14Z"/>
          <path class="cls-14" d="M110.89,476.11c-1.06,0-2.05-.69-2.39-1.76-11.83-37.95,16.75-59.56,44.4-80.45,12.82-9.69,24.94-18.85,33.01-29.45,17-22.87,19.58-51.85,22.08-79.87.94-10.59,1.92-21.53,3.67-31.94,5.4-31.87,19.07-62.76,39.52-89.34,20.45-26.58,46.81-47.71,76.23-61.1,1.25-.57,2.74-.02,3.31,1.24.57,1.26.02,2.74-1.24,3.31-28.67,13.05-54.38,33.66-74.34,59.6-19.96,25.94-33.29,56.07-38.56,87.13-1.71,10.21-2.68,21.06-3.62,31.55-2.56,28.71-5.21,58.41-23.07,82.43-8.5,11.17-21.46,20.96-33.99,30.43-27.48,20.77-53.43,40.38-42.64,74.98.41,1.32-.32,2.72-1.64,3.13-.25.08-.5.11-.75.11Z"/>
          <path class="cls-14" d="M706.78,440.24c-.44,0-.88-.11-1.28-.35-1.18-.71-1.57-2.24-.86-3.43,13.19-22.06,14.71-43.17,4.78-66.44-8.87-20.78-25.96-40.67-42.49-59.91-17.32-20.16-35.23-41-43.64-62.92l-.06-.18c-3.02-10.06-5.38-20.75-7.67-31.08-7.79-35.16-15.83-71.52-51.09-90.05-1.22-.64-1.69-2.15-1.05-3.38.64-1.22,2.15-1.69,3.38-1.05,37.31,19.6,45.61,57.11,53.64,93.39,2.26,10.21,4.6,20.77,7.55,30.63,8.11,21.08,25.71,41.56,42.73,61.37,33.99,39.56,69.14,80.47,38.21,132.18-.47.78-1.3,1.22-2.15,1.22Z"/>
          <path class="cls-14" d="M673.36,574.31c-1.05,0-2.03-.67-2.37-1.72-.43-1.31.28-2.72,1.59-3.16,6.36-2.1,10.72-5.68,13.34-10.94,7.23-14.54-.93-38.46-5.32-51.32l-.05-.18c-5.85-22.46-4.46-46.75,3.9-68.4.5-1.29,1.95-1.93,3.23-1.43,1.29.5,1.93,1.95,1.43,3.23-7.98,20.65-9.31,43.82-3.75,65.25,4.63,13.56,13.18,38.69,5.03,55.07-3.2,6.43-8.67,10.96-16.25,13.46-.26.09-.52.13-.78.13Z"/>
          <path class="cls-14" d="M201.19,616.54c-.13,0-.26,0-.39-.03-30.9-4.84-38.6-31.52-46.05-57.32-4.76-16.49-9.69-33.54-20.69-44.34-.99-.97-1-2.55-.03-3.54.97-.99,2.55-1,3.54-.03,11.95,11.72,17.06,29.41,22,46.52,7.34,25.41,14.27,49.41,42.02,53.76,1.36.21,2.3,1.49,2.08,2.86-.19,1.23-1.26,2.11-2.47,2.11Z"/>
        </g>
        <g>
          <path class="cls-3" d="M587.94,467.45c2.27-24.51,10.67-51.38-6.18-73.05-16.85-21.67-10.92,68.95-123.86,54.56-8.75-1.11-16.99-2.29-24.76-3.5v166.86c117.31.89,167.95-42.34,170.11-76.3,2.2-34.56-17.59-44.06-15.31-68.57Z"/>
          <path class="cls-3" d="M292.88,467.45c-2.27-24.51-10.67-51.38,6.18-73.05,16.85-21.67,45.79,35.49,123.86,54.56,8.56,2.09,16.99-2.29,24.76-3.5v166.86c-117.31.89-167.95-42.34-170.11-76.3-2.2-34.56,17.59-44.06,15.31-68.57Z"/>
        </g>
        <g>
          <g>
            <path class="cls-12" d="M641.32,627.75c-9.12,51.36-27.42,101.76-71.75,130.99-108.28,60.62-273.18,8.01-311.3-114.24,122.22-30.97,129.24-135.86,97.07-239.3,5.26,1.53,10.54,3.17,15.82,4.91,47.44,15.54,95.99,38.77,144.55,61.98-3.99,27.58-3.83,51.28.6,71.27,11.6,52.54,52.61,79.51,125.01,84.39Z"/>
            <path class="cls-10" d="M516.31,543.37c-67.97,2.92-133.76-45.39-145.33-114.51-1.23-6.68-1.07-12.93.17-18.74,47.44,15.54,95.99,38.77,144.55,61.98-3.99,27.58-3.83,51.28.6,71.27Z"/>
          </g>
          <path class="cls-11" d="M496.3,689.42c-1.35,0-2.46-1.07-2.5-2.42-.42-13.88,20.1-21.62,36.59-27.84,6.4-2.41,12.45-4.69,16.09-6.89,1.18-.71,2.72-.33,3.43.85.71,1.18.33,2.72-.85,3.43-4.03,2.43-10.29,4.79-16.91,7.29-15,5.66-33.67,12.7-33.36,23.01.04,1.38-1.04,2.53-2.42,2.57-.03,0-.05,0-.08,0Z"/>
          <path class="cls-11" d="M452.94,688.81c-.78,0-1.56-.37-2.04-1.06-5.68-8.03-16.92-8.06-26.84-8.08h-1.24c-18.26-.34-36.06-4.01-52.92-10.91-1.28-.52-1.89-1.98-1.37-3.26.52-1.28,1.98-1.89,3.26-1.37,16.29,6.67,33.48,10.21,51.09,10.54h1.19c10.58.03,23.74.06,30.91,10.2.8,1.13.53,2.69-.6,3.48-.44.31-.94.46-1.44.46Z"/>
        </g>
        <g>
          <path class="cls-1" d="M601.46,608.19c-25.52,175.18-247.68,142.7-315.43,13.75-51.54,13.66-134.09,45.16-142.37,61.38,47.38,36.89,76,89.25,95.17,150.76-35.53,50.66-34.74,134.14,11.84,175.61,6.71,28.85,9.18,58.68,11.12,90.17,144.62,21.41,303.26,53.42,437.28-27.66-34.97-102.66,67.98-155.54-5.51-284.57,7.98-42.69,17.27-84.37,35.91-123.56-42.5-29.28-87.8-48.54-128.02-55.88Z"/>
          <path class="cls-1" d="M161.16,672.26c-71.75,6.61-103.2,329.55-103.66,386.89,41.63,40.26,104.15,57.6,164.6,46.2,38.15-208.73,107.15-250.17-60.94-433.09Z"/>
          <path class="cls-1" d="M713.83,653.82c72.98,25.43,77.91,320.37,102.95,394.88-32.36,23.45-92.3,37.55-128.73,27.1-39.34-177.77-63.06-250.94,25.77-421.98Z"/>
        </g>
        <g class="cls-8">
          <g>
            <path class="cls-16" d="M21.36,706.77l-7.13-12.31c53.97-31.27,121.24-30.64,175.29-30.12l299.79,2.85c58.29.55,118.56,1.13,176.13-11.79,22.37-5.02,45.09-12.23,67.06-19.2,50.25-15.95,102.2-32.44,155.39-24.79l-2.02,14.08c-49.96-7.18-98.1,8.09-149.06,24.27-22.26,7.07-45.28,14.37-68.25,19.52-59.18,13.28-120.28,12.7-179.38,12.13l-299.79-2.85c-52.32-.5-117.42-1.12-168.02,28.2Z"/>
            <path class="cls-16" d="M43.01,767.29l-3.54-13.78c66.83-17.19,136.73-13.36,204.33-9.65,33.91,1.86,68.97,3.78,103.09,3.01,51.39-1.17,103.38-8.56,153.67-15.71,37.06-5.27,75.38-10.72,113.4-13.69,21.84-1.71,44.29-2.68,66-3.63,75.22-3.28,153-6.67,219.26-40.97l6.54,12.63c-69.05,35.75-148.42,39.21-225.18,42.55-21.59.94-43.91,1.91-65.51,3.6-37.57,2.93-75.66,8.35-112.5,13.59-50.69,7.21-103.11,14.66-155.35,15.85-34.68.79-70.02-1.15-104.2-3.02-66.52-3.65-135.3-7.42-200.01,9.22Z"/>
            <path class="cls-16" d="M357.32,839.53c-40,0-79.65-7.96-118.12-15.68-10.69-2.15-21.75-4.36-32.59-6.36-49.27-9.09-106.57-15.78-158.01,3.52l-5-13.32c54.7-20.52,114.4-13.63,165.59-4.19,10.95,2.02,22.06,4.25,32.8,6.41,41.78,8.38,84.99,17.05,127.63,15.12,34.8-1.57,69.66-10.24,103.36-18.63,6.55-1.63,13.33-3.32,20.01-4.93,121.32-29.24,246.08-41.95,370.81-37.78l-.48,14.22c-123.45-4.12-246.93,8.46-367,37.4-6.63,1.6-13.38,3.28-19.91,4.9-34.38,8.55-69.93,17.4-106.15,19.03-4.32.2-8.64.29-12.95.29Z"/>
            <path class="cls-16" d="M27.28,912.29l-6.55-12.63c65.52-34,143.53-29.48,204.17-21.75,14.33,1.83,28.88,3.96,42.96,6.02,52.11,7.63,106,15.53,158.42,9.33,24.65-2.91,49.39-9.02,73.32-14.92,18.49-4.56,37.61-9.28,56.8-12.57,39.67-6.81,80.03-7.73,119.97-2.73,3.79.47,7.62,1.01,11.33,1.52,16.84,2.35,32.75,4.56,48.52,2.33,17.27-2.44,33.15-10.04,49.96-18.09,5.26-2.52,10.7-5.12,16.14-7.53,30.55-13.51,55.48-16.16,76.21-8.09l-5.16,13.26c-17.02-6.63-38.38-4.06-65.29,7.85-5.25,2.32-10.59,4.88-15.75,7.35-17.05,8.16-34.67,16.59-54.11,19.34-17.74,2.51-35.39.05-52.47-2.32-3.66-.51-7.44-1.04-11.14-1.5-38.55-4.83-77.5-3.95-115.79,2.63-18.69,3.21-37.56,7.86-55.8,12.37-24.35,6.01-49.53,12.22-75.05,15.23-54.29,6.42-109.12-1.61-162.15-9.38-14.01-2.05-28.5-4.18-42.7-5.99-58.59-7.47-133.8-11.92-195.82,20.27Z"/>
          </g>
        </g>
        <g>
          <path class="cls-15" d="M465.21,762.92c-17.13,0-34.98-2-52.68-5.94-34.23-7.62-64.09-20.67-88.73-38.8-27.45-20.18-48.38-47.35-58.95-76.48-.47-1.3.2-2.73,1.5-3.2,1.3-.47,2.73.2,3.2,1.5,10.23,28.22,30.55,54.55,57.21,74.16,24.08,17.71,53.3,30.47,86.85,37.94,25.77,5.74,51.84,7.27,75.38,4.43,26.52-3.2,49.76-11.7,69.06-25.29,29.02-20.42,51.64-54.24,67.23-100.52.44-1.31,1.86-2.01,3.17-1.57,1.31.44,2.01,1.86,1.57,3.17-15.94,47.31-39.18,81.97-69.09,103.02-19.98,14.06-43.99,22.87-71.34,26.16-7.89.95-16.05,1.42-24.39,1.42Z"/>
          <path class="cls-15" d="M223.45,798.38c-1.2,0-2.26-.87-2.46-2.09-7.13-42.94-33.34-82.46-70.12-105.72-1.17-.74-1.51-2.28-.78-3.45.74-1.17,2.28-1.51,3.45-.78,37.97,24.02,65.03,64.81,72.38,109.13.23,1.36-.69,2.65-2.06,2.88-.14.02-.28.03-.41.03Z"/>
          <path class="cls-15" d="M240.83,993.02c-.69,0-1.39-.29-1.88-.85-23.18-26.44-35.91-61.77-34.9-96.92,1-35.15,15.72-69.7,40.37-94.77.97-.98,2.55-1,3.54-.03.98.97,1,2.55.03,3.54-23.78,24.19-37.97,57.5-38.94,91.41-.97,33.9,11.3,67.98,33.66,93.48.91,1.04.81,2.62-.23,3.53-.47.42-1.06.62-1.65.62Z"/>
          <path class="cls-15" d="M172.32,910.43c-.84,0-1.65-.42-2.13-1.18-23.89-38.53-37.23-82.85-38.59-128.16-.04-1.38,1.04-2.53,2.42-2.57,1.38-.05,2.53,1.04,2.57,2.42,1.33,44.43,14.42,87.89,37.84,125.68.73,1.17.37,2.71-.81,3.44-.41.25-.87.38-1.31.38Z"/>
          <path class="cls-15" d="M212.71,817.99c-.71,0-1.41-.3-1.91-.88-10.43-12.33-23.91-21.91-38.98-27.72-1.29-.5-1.93-1.94-1.43-3.23.5-1.29,1.94-1.93,3.23-1.43,15.85,6.11,30.03,16.19,41,29.15.89,1.05.76,2.63-.29,3.52-.47.4-1.04.59-1.61.59Z"/>
          <path class="cls-15" d="M689.17,981.72c-.62,0-1.25-.23-1.73-.7-1-.96-1.03-2.54-.07-3.54,24.97-26.05,39.01-63.12,37.56-99.18-1.45-36.05-18.42-71.88-45.41-95.84-1.03-.92-1.13-2.5-.21-3.53.92-1.03,2.5-1.12,3.53-.21,27.98,24.84,45.58,61.99,47.08,99.38,1.5,37.38-13.05,75.83-38.95,102.84-.49.51-1.15.77-1.81.77Z"/>
          <path class="cls-15" d="M694.67,776.05c-.06,0-.12,0-.18,0-1.38-.1-2.42-1.29-2.32-2.67,2.47-35.3,15.42-70.43,36.45-98.89.82-1.11,2.39-1.35,3.5-.53,1.11.82,1.35,2.39.53,3.5-20.47,27.71-33.07,61.9-35.48,96.27-.09,1.32-1.19,2.33-2.49,2.33Z"/>
          <path class="cls-15" d="M710.04,789.15c-.39,0-.79-.09-1.16-.29-1.22-.64-1.7-2.15-1.06-3.38,3.81-7.27,7.74-14.78,13.67-20.95,6.81-7.09,15.36-10.96,23.44-10.59,1.38.06,2.45,1.23,2.39,2.61-.06,1.38-1.23,2.44-2.61,2.39-6.63-.27-13.8,3-19.61,9.06-5.43,5.65-9.2,12.84-12.84,19.8-.45.85-1.32,1.34-2.22,1.34Z"/>
          <path class="cls-15" d="M356.89,980.25c-1.11,0-2.12-.74-2.41-1.86-.36-1.33.44-2.7,1.77-3.06,44.49-11.86,87.31-30.09,127.26-54.18,39.95-24.09,76.05-53.46,107.3-87.28.94-1.01,2.52-1.08,3.53-.14,1.01.94,1.08,2.52.14,3.53-31.57,34.17-68.03,63.83-108.39,88.17-40.35,24.34-83.61,42.75-128.56,54.73-.22.06-.43.08-.64.08Z"/>
          <path class="cls-15" d="M471.81,965.34c-.75,0-1.5-.34-1.99-.99-.84-1.1-.62-2.67.48-3.5,53.73-40.87,117.23-68.82,183.66-80.84,1.36-.25,2.66.66,2.91,2.01.25,1.36-.66,2.66-2.01,2.91-65.65,11.88-128.42,39.51-181.52,79.9-.45.34-.98.51-1.51.51Z"/>
          <path class="cls-15" d="M170.02,684.71c-.83,0-1.64-.41-2.12-1.17-.74-1.17-.39-2.71.78-3.45,25.37-16.01,52.82-28.41,81.6-36.87,1.32-.39,2.71.37,3.1,1.69.39,1.33-.37,2.71-1.69,3.1-28.33,8.33-55.36,20.54-80.34,36.3-.41.26-.88.39-1.33.39Z"/>
          <path class="cls-15" d="M713.66,676.56c-.53,0-1.06-.16-1.51-.51-20.47-15.5-43.3-27.16-67.86-34.65-1.32-.4-2.06-1.8-1.66-3.12.4-1.32,1.8-2.06,3.12-1.66,25.13,7.66,48.48,19.59,69.42,35.44,1.1.83,1.32,2.4.48,3.5-.49.65-1.24.99-2,.99Z"/>
        </g>
        <path class="cls-12" d="M352,167.25c-66.75,52.62-19.3,262.06,34.08,296.03,47.66,47.13,143.29,65.76,176.97-1.62,43.86-75.96,26.42-119.64,18.69-177.97,13.28-152.2-118.41-209.19-229.74-116.44Z"/>
        <g>
          <path class="cls-14" d="M411.56,251.35c-.76,0-1.52-.35-2.01-1.01-.82-1.11-.6-2.67.51-3.5,17.13-12.75,30.78-30.38,39.46-50.97,8.68-20.59,11.77-42.66,8.94-63.83-.18-1.37.78-2.63,2.15-2.81,1.37-.19,2.63.78,2.81,2.15,2.95,22.05-.27,45.03-9.29,66.44-9.03,21.41-23.23,39.75-41.08,53.04-.45.33-.97.5-1.49.5Z"/>
          <path class="cls-14" d="M555.51,222.55c-.88,0-1.73-.47-2.19-1.29-8.24-14.92-23.37-24.76-35.63-31.67-3.67-2.07-7.47-4.09-11.15-6.05-10.83-5.77-22.03-11.74-31.72-19.75-15.29-12.65-23.81-28.83-23.36-44.39.04-1.38,1.17-2.49,2.57-2.43,1.38.04,2.47,1.19,2.43,2.57-.4,14,7.45,28.73,21.55,40.39,9.3,7.69,20.27,13.54,30.88,19.19,3.7,1.97,7.53,4.01,11.26,6.11,12.83,7.23,28.7,17.59,37.55,33.61.67,1.21.23,2.73-.98,3.4-.38.21-.8.31-1.21.31Z"/>
          <path class="cls-14" d="M462.09,145.65c-11.98,56.54-54.14,105.76-107.27,125.49,3.6,25.55-16.75,56.59-17.62,80.99-97.3-99.33,1.75-269.75,139.94-248.9,77.27,5.58,152.93,80.63,107.55,154.07-19.34-91.91-82.36-64.97-122.6-111.65Z"/>
        </g>
        <g>
          <path class="cls-9" d="M182.41,564.54c-.44,0-.88-.11-1.28-.36-12.12-7.27-9.46-20.12-7.12-31.46,1.6-7.75,3.11-15.06.59-20.62-1.6-3.59-4.53-6.42-7.64-9.41-1.94-1.87-3.95-3.8-5.68-5.99-12.68-16.01-6.58-39.92,6.01-55.27l.25-.26c5.44-4.95,10.78-9.66,15.95-14.21,39.82-35.07,68.59-60.41,60.76-123.64-.17-1.37.8-2.62,2.17-2.79,1.38-.17,2.62.8,2.79,2.17,8.16,65.85-22.98,93.28-62.42,128-5.11,4.5-10.39,9.15-15.75,14.03-14.83,18.2-14.17,38.34-5.84,48.86,1.52,1.92,3.33,3.66,5.23,5.49,3.32,3.19,6.75,6.5,8.73,10.97,3.18,7.02,1.43,15.49-.26,23.68-2.29,11.11-4.27,20.71,4.8,26.16,1.18.71,1.57,2.25.86,3.43-.47.78-1.3,1.21-2.15,1.21Z"/>
          <path class="cls-9" d="M211.45,561.03c-.64,0-1.29-.25-1.78-.74-9.07-9.16-8-20.14-6.86-31.77,1.14-11.6,2.43-24.76-5.96-39.15-19.65-33.71,2.27-47.33,21.62-59.34,13.39-8.32,26.04-16.17,25.04-29.79-.1-1.38.93-2.58,2.31-2.68,1.37-.11,2.58.93,2.68,2.31,1.22,16.63-13.32,25.67-27.39,34.4-19.1,11.86-37.14,23.06-19.94,52.58,9.2,15.79,7.83,29.79,6.62,42.15-1.11,11.32-1.99,20.27,5.43,27.76.97.98.96,2.56-.02,3.54-.49.48-1.12.72-1.76.72Z"/>
          <path class="cls-9" d="M573.95,578.48c-.83,0-1.63-.41-2.11-1.16-.74-1.16-.4-2.71.77-3.45,38.45-24.49,29.72-50.45,20.47-77.93-5.95-17.67-12.09-35.95-5.19-53.9.5-1.29,1.94-1.93,3.23-1.44,1.29.5,1.93,1.94,1.44,3.23-6.26,16.27-.66,32.9,5.26,50.51,9.45,28.1,19.23,57.15-22.53,83.74-.42.27-.88.39-1.34.39Z"/>
          <path class="cls-9" d="M559.28,560.88c-1.06,0-2.05-.68-2.38-1.75-.41-1.32.32-2.72,1.63-3.14,12.2-3.84,27.58-21.06,19.96-52.73-.32-1.34.5-2.69,1.85-3.02,1.34-.32,2.69.5,3.02,1.85,5.7,23.71-.48,51.48-23.32,58.67-.25.08-.5.12-.75.12Z"/>
          <path class="cls-9" d="M612.3,577.8c-1.11,0-2.13-.75-2.42-1.88-.35-1.34.46-2.7,1.79-3.05,10.74-2.77,18.57-9.32,23.26-19.47,8.25-17.82,4.56-41.04-2.76-56.14l-.06-.14c-2.36-5.74-5.05-11.45-7.89-17.5-10.93-23.26-22.24-47.32-14.63-73.07.39-1.32,1.78-2.08,3.11-1.69,1.32.39,2.08,1.78,1.69,3.11-7.07,23.92,3.83,47.1,14.36,69.52,2.73,5.81,5.55,11.82,7.96,17.65,7.81,16.16,11.68,41.07,2.76,60.35-5.28,11.41-14.46,19.08-26.55,22.21-.21.05-.42.08-.63.08Z"/>
          <path class="cls-9" d="M640.65,472.27c-.81,0-1.6-.39-2.08-1.12-14.34-21.55-18.03-50.15-9.62-74.63.69-2.02,1.48-4.06,2.23-6.03,2.63-6.85,5.11-13.31,4.55-20.01-.77-9.23-7.26-17.1-13.53-24.7l-.47-.57c-7.18-8.71-13.73-18.28-13.09-29.13.08-1.38,1.28-2.45,2.64-2.35,1.38.08,2.43,1.27,2.35,2.64-.54,9.13,5.42,17.73,11.96,25.66l.47.57c6.44,7.82,13.75,16.68,14.65,27.47.66,7.84-2.15,15.15-4.87,22.22-.74,1.93-1.5,3.92-2.17,5.86-7.91,23.04-4.44,49.96,9.05,70.24.76,1.15.45,2.7-.7,3.47-.43.28-.91.42-1.38.42Z"/>
          <path class="cls-9" d="M653.78,553.31c-.48,0-.97-.14-1.4-.43-1.14-.77-1.45-2.33-.67-3.47,21.96-32.51,16.03-55.12,9.75-79.05-3.68-14.04-7.49-28.55-6.31-45.88l.04-.32c1.35-6.8,4.27-13.08,7.1-19.15,2.25-4.83,4.57-9.82,5.99-14.91,6.7-29.36-8.9-43.87-26.96-60.66-21-19.52-44.8-41.65-38.38-91.76.18-1.37,1.44-2.34,2.8-2.16,1.37.17,2.34,1.43,2.16,2.8-6.09,47.56,15.73,67.84,36.82,87.46,18.41,17.12,35.79,33.28,28.42,65.5l-.03.11c-1.53,5.51-3.95,10.71-6.29,15.74-2.8,6.02-5.44,11.71-6.7,17.86-1.08,16.45,2.61,30.51,6.17,44.12,3.31,12.63,6.44,24.56,5.92,37.95-.59,15.16-5.79,29.51-16.37,45.17-.48.71-1.27,1.1-2.07,1.1Z"/>
          <path class="cls-9" d="M243.83,242.2c-.19,0-.39-.02-.59-.07-1.34-.32-2.17-1.68-1.84-3.02,15.99-66.09,68.16-122.2,132.92-142.94,1.32-.42,2.72.3,3.14,1.62.42,1.32-.3,2.72-1.62,3.14-63.14,20.22-114,74.92-129.59,139.36-.28,1.14-1.3,1.91-2.43,1.91Z"/>
          <path class="cls-9" d="M291.56,186.13c-.5,0-1-.15-1.43-.45-1.13-.79-1.4-2.35-.61-3.48,21.62-30.85,53.17-54.54,88.83-66.7,1.31-.44,2.73.25,3.17,1.56.45,1.31-.25,2.73-1.56,3.17-34.66,11.82-65.33,34.84-86.35,64.83-.49.69-1.26,1.07-2.05,1.07Z"/>
          <path class="cls-9" d="M339.28,268.96c-.96,0-1.88-.56-2.29-1.49-.56-1.26.01-2.74,1.28-3.3,59.88-26.43,102.48-88.1,105.99-153.46.07-1.38,1.24-2.46,2.63-2.36,1.38.07,2.44,1.25,2.36,2.63-3.61,67.2-47.4,130.6-108.96,157.77-.33.14-.67.21-1.01.21Z"/>
          <path class="cls-9" d="M315.55,253.29c-1.05,0-2.03-.67-2.37-1.72-.43-1.31.28-2.72,1.6-3.15,46.31-15.18,85.5-48.81,107.52-92.29.62-1.23,2.13-1.73,3.36-1.1,1.23.62,1.72,2.13,1.1,3.36-22.62,44.65-62.86,79.19-110.42,94.78-.26.08-.52.12-.78.12Z"/>
          <path class="cls-9" d="M287.82,322.87c-.98,0-1.9-.57-2.3-1.53-17.81-42.22-7.98-94.69,23.91-127.6.96-.99,2.54-1.01,3.54-.06.99.96,1.02,2.54.06,3.54-30.53,31.51-39.94,81.75-22.89,122.18.54,1.27-.06,2.74-1.33,3.28-.32.13-.65.2-.97.2Z"/>
          <path class="cls-9" d="M540.22,175.79c-.07,0-.14,0-.21,0-32.91-2.67-56.75-31.09-75.74-58.54-.79-1.14-.5-2.69.63-3.48,1.14-.79,2.69-.5,3.48.63,18.32,26.48,41.21,53.89,72.04,56.4,1.38.11,2.4,1.32,2.29,2.69-.11,1.31-1.2,2.3-2.49,2.3Z"/>
          <path class="cls-9" d="M581.76,236.02c-1.27,0-2.36-.97-2.49-2.26-4.77-49.28-36.34-95.67-80.44-118.19-1.23-.63-1.72-2.13-1.09-3.36.63-1.23,2.14-1.72,3.36-1.09,45.58,23.27,78.21,71.23,83.14,122.16.13,1.38-.87,2.6-2.25,2.73-.08,0-.16.01-.24.01Z"/>
          <path class="cls-9" d="M594.18,212.88c-1.2,0-2.26-.87-2.46-2.1-6.04-36.96-28.97-70.27-61.33-89.1-1.19-.7-1.6-2.23-.9-3.42.69-1.19,2.22-1.6,3.42-.9,33.64,19.58,57.48,54.21,63.75,92.62.22,1.36-.7,2.65-2.06,2.87-.14.02-.27.03-.41.03Z"/>
          <path class="cls-9" d="M279.18,583.33c-.33,0-.66-.07-.98-.2-14.63-6.25-24.07-15.71-27.3-27.37-3.78-13.61.86-29.97,13.4-47.33,9.1-12.59,5.69-28.73,2.09-45.81-4.24-20.11-8.63-40.9,6.02-58.98.87-1.07,2.44-1.24,3.52-.37,1.07.87,1.24,2.44.37,3.52-13.15,16.24-9.01,35.84-5.01,54.81,3.67,17.4,7.47,35.39-2.93,49.77-11.62,16.08-15.99,30.97-12.64,43.06,2.85,10.29,11.08,18.4,24.45,24.11,1.27.54,1.86,2.01,1.32,3.28-.41.95-1.33,1.52-2.3,1.52Z"/>
          <path class="cls-9" d="M253.22,588.92c-.41,0-.83-.1-1.22-.32-15.09-8.45-24.38-19.48-27.61-32.77-4.99-20.53,5.84-41.11,12.74-51.56,13.83-20.94,4.95-42.15,4.86-42.36-.55-1.27.04-2.74,1.31-3.29,1.27-.54,2.74.04,3.29,1.31.42.97,10.02,23.93-5.28,47.1-6.45,9.76-16.59,28.94-12.05,47.62,2.89,11.88,11.36,21.84,25.19,29.59,1.2.67,1.63,2.2.96,3.4-.46.82-1.31,1.28-2.18,1.28Z"/>
        </g>
        <g>
          <path class="cls-12" d="M347.13,369.32c-2.02-11.76-12.17-29.81-25.19-34.34-13-4.53-37.03-1.12-38.05,22.97-1.02,24.1,12.01,52.75,32.26,64.95,20.25,12.2,33.82,10.88,41.09,6.47,7.27-4.41-8.08-48.22-10.11-60.05Z"/>
          <g>
            <path class="cls-13" d="M332.56,391.79s-.06,0-.09,0c-1.38-.05-2.46-1.21-2.41-2.58.04-1.09.54-26.4-25.71-30.82-1.36-.23-2.28-1.52-2.05-2.88.23-1.36,1.52-2.28,2.88-2.05,30.64,5.15,29.89,35.62,29.88,35.93-.05,1.35-1.16,2.41-2.5,2.41Z"/>
            <path class="cls-13" d="M329.9,408.82c-.22,0-.45-.03-.67-.09-.52-.15-12.76-3.73-16.96-18.26-1.48-5.13,0-8.26,1.5-9.98,4.64-5.32,14.99-3.98,16.15-3.81,1.37.2,2.31,1.47,2.11,2.83-.2,1.37-1.47,2.31-2.83,2.11-2.26-.32-9.25-.62-11.67,2.15-.37.42-1.49,1.72-.46,5.31,3.41,11.78,13.1,14.72,13.51,14.84,1.32.38,2.09,1.76,1.71,3.09-.31,1.1-1.31,1.82-2.4,1.82Z"/>
          </g>
        </g>
        <g>
          <path class="cls-4" d="M492.67,389.63c-.59,0-1.19-.21-1.67-.64-1.03-.92-1.11-2.5-.19-3.53.75-.84,1.99-1.9,3.56-3.24,2.51-2.15,5.62-4.82,7.78-7.46,2.51-3.08,3.31-6.83,2.16-10.02-1.68-4.66-3.41-9.17-5.08-13.54-6.85-17.89-12.77-33.34-10.1-45.57.29-1.35,1.63-2.2,2.98-1.91,1.35.29,2.2,1.63,1.91,2.97-2.35,10.77,3.32,25.57,9.89,42.72,1.68,4.39,3.42,8.93,5.11,13.64,1.75,4.86.63,10.42-2.99,14.87-2.44,2.99-5.74,5.83-8.4,8.1-1.31,1.13-2.56,2.19-3.09,2.78-.49.55-1.18.83-1.86.83Z"/>
          <path class="cls-4" d="M480.2,390.74c-1,0-1.95-.61-2.33-1.59-.09-.19-2.2-4.52-11.9-5.88-1.37-.19-2.32-1.46-2.13-2.82.19-1.37,1.45-2.32,2.82-2.13,12.89,1.81,15.61,8.34,15.88,9.07.47,1.3-.2,2.73-1.5,3.2-.28.1-.57.15-.85.15Z"/>
        </g>
        <g>
          <circle cx="543.7" cy="301.26" r="13.95"/>
          <path class="cls-2" d="M520.94,303.76c-.41,0-.82-.1-1.2-.31-1.21-.67-1.65-2.19-.98-3.4,4.96-9.01,14.47-14.5,25.42-14.7,10.96-.2,20.64,4.96,25.92,13.79.71,1.19.32,2.72-.86,3.43-1.18.71-2.72.32-3.43-.86-4.35-7.27-12.41-11.53-21.54-11.36-9.14.16-17.04,4.69-21.13,12.11-.46.83-1.31,1.29-2.19,1.29Z"/>
        </g>
        <g>
          <circle cx="412.97" cy="318.7" r="13.95" transform="translate(-19.54 27.07) rotate(-3.67)"/>
          <path class="cls-2" d="M391.27,324.26c-.25,0-.49-.04-.74-.11-1.32-.41-2.06-1.81-1.65-3.13,3.04-9.83,11.24-17.12,21.93-19.52,10.69-2.4,21.22.7,28.17,8.28.93,1.02.86,2.6-.15,3.53-1.02.93-2.6.87-3.53-.15-5.73-6.25-14.47-8.78-23.39-6.78-8.92,2-15.74,8.03-18.25,16.13-.33,1.07-1.32,1.76-2.39,1.76Z"/>
        </g>
        <path class="cls-3" d="M528.15,248.35c7.89-2.67,19.82-3.53,32.4,1.35,7.73,3,12.13,8.11,16.4,13.11,1.31,1.53.89,4.57-3.74,2.58-7.86-3.38-20.07-6.06-33.72-5.29-13.76.92-18.55,5.14-24.05,5.46-3.72.22-5.54-4.89-2.87-7.49,4.51-4.4,7.78-7.15,15.57-9.71Z"/>
        <path class="cls-3" d="M422.91,259.55c-8.25-1.17-20.13.18-31.59,7.3-7.05,4.38-10.42,10.21-13.7,15.91-1.01,1.75-.03,4.65,4.15,1.84,7.1-4.77,18.61-9.66,32.17-11.41,13.69-1.63,19.18,1.63,24.64.93,3.7-.47,4.54-5.83,1.44-7.89-5.25-3.49-8.97-5.59-17.1-6.67Z"/>
        <g>
          <path class="cls-6" d="M533.1,420.35c-1.63,7.56-8.65,27.41-38.08,30.38-38.89,3.92-53.2-22.14-49.15-26.06.54-.54,2.7-1.08,5.94-1.62,1.05-.23,2.08-.37,3.29-.57.2-.03.41-.06.62-.1,16.07-2.16,47.8-4.19,65.36-5.27.45-.03.87-.05,1.29-.08,1.35-.06,2.57-.08,3.71-.18,1.34-.14,2.56-.27,3.51-.27,2.16-.13,3.91,1.76,3.52,3.78Z"/>
          <path class="cls-5" d="M522.37,417.03c-1.84,3.5-9.04,13.5-31.79,15.93-20.95,1.67-31.83-6.83-35.48-10.47.2-.03.41-.06.62-.1,16.07-2.16,47.8-4.19,65.36-5.27.45-.03.87-.05,1.29-.08Z"/>
        </g>
      </g>
    </g>
  </g>
</svg>