<?xml version="1.0" encoding="UTF-8"?>
<svg id="Layer_2" data-name="Layer 2" xmlns="http://www.w3.org/2000/svg" xmlns:xlink="http://www.w3.org/1999/xlink" viewBox="0 0 889.16 889.16">
  <defs>
    <style>
      .cls-1 {
        fill: #d17760;
      }

      .cls-2 {
        fill: #ad594e;
      }

      .cls-3 {
        fill: #82422f;
      }

      .cls-4 {
        fill: #a84118;
      }

      .cls-5 {
        fill: #965932;
      }

      .cls-6 {
        fill: #612c0c;
      }

      .cls-7 {
        fill: #fff;
      }

      .cls-8 {
        fill: #edeeef;
      }

      .cls-9 {
        fill: #6e3b1b;
      }

      .cls-10 {
        fill: none;
      }

      .cls-11 {
        fill: #2b4182;
      }

      .cls-12 {
        fill: #cf6a42;
      }

      .cls-13 {
        fill: #4a2610;
      }

      .cls-14 {
        fill: #fcac8e;
      }

      .cls-15 {
        fill: #fd827e;
      }

      .cls-16 {
        clip-path: url(#clippath);
      }

      .cls-17 {
        fill: #3f5596;
      }
    </style>
    <clipPath id="clippath">
      <circle class="cls-10" cx="444.58" cy="444.58" r="444.58"/>
    </clipPath>
  </defs>
  <g id="People_set" data-name="People set">
    <g class="cls-16">
      <circle class="cls-8" cx="444.58" cy="444.58" r="444.58"/>
      <g>
        <g>
          <path class="cls-13" d="M368.99,537.95c3.72.58,7.9,1,11.91.66-1.5,10.09-6.55,19.63-14.27,26.78.3-8.94-5.22-21.74,2.36-27.44Z"/>
          <path class="cls-13" d="M547.6,537.95c-3,.99-6.98,1.61-9.32,1.7-3.89,5.92,3.89,21.03,10.72,18.46,6.19-2.33.04-13.36-1.4-20.16Z"/>
          <path class="cls-14" d="M613.07,617.37c-110.27,151.91-307.4,46.16-302.25.68,63.99-36.59,75.28-84.18,64.02-154.69,4.5-.55,9.03-1.01,13.59-1.4,47.48-4.06,98.16.31,147.49,10.98-4.44,30.13-1.04,54.27,8.77,74.96,12.85,27.16,36.74,48.4,68.38,69.47Z"/>
          <path class="cls-1" d="M544.69,547.9c-51.63,42.61-152.86,14.65-158.97-60.38.37-9.84,1.17-18.22,2.71-25.56,47.48-4.06,98.16.31,147.49,10.98-4.44,30.13-1.04,54.27,8.77,74.96Z"/>
        </g>
        <g>
          <path class="cls-17" d="M347.02,592.62c50.22,67.64,155.21,75.29,215.68,16.1-3.87,147.99-10.65,295.9-18.15,444.14-67.23,12.54-137.81,6.6-203.97-15.52,4.06-147.27,8.12-294.55,6.44-444.71Z"/>
          <g>
            <path class="cls-11" d="M462.84,678.76c-1.43,0-2.85-.02-4.29-.06-35.46-.95-70.19-13.74-97.81-36-1.07-.87-1.24-2.44-.38-3.52.87-1.07,2.44-1.24,3.52-.38,26.76,21.58,60.43,33.97,94.8,34.9,34.36.92,68.65-9.65,96.54-29.76,1.12-.81,2.68-.55,3.49.56.81,1.12.55,2.68-.56,3.49-27.61,19.91-61.3,30.76-95.31,30.76Z"/>
            <path class="cls-11" d="M319.91,879.05c-1.21,0-2.27-.87-2.47-2.1-.22-1.36.71-2.65,2.07-2.87,94.05-15.17,181.98-61.57,247.57-130.66.95-1,2.53-1.04,3.54-.09,1,.95,1.04,2.53.09,3.54-66.34,69.88-155.27,116.81-250.4,132.16-.13.02-.27.03-.4.03Z"/>
            <path class="cls-11" d="M408.56,897.96c-.7,0-1.39-.29-1.88-.85-.91-1.04-.8-2.62.23-3.53,54.36-47.6,120.59-79.98,191.54-93.63,1.37-.26,2.67.63,2.93,1.98.26,1.36-.63,2.67-1.98,2.93-70.08,13.48-135.5,45.46-189.19,92.48-.47.42-1.06.62-1.65.62Z"/>
          </g>
          <path class="cls-2" d="M171.13,649.58c-94.76,0-117.03,314.72-117.93,385.94,55.65,16.3,116.1,15.81,169.27-1.14-23.01-128.89,16.06-265.71-51.34-384.8Z"/>
          <path class="cls-2" d="M349.66,568.02c-73.95,18.63-144.67,50.01-207.36,92.48,83.63,174.76,48.28,203.84,58.98,378.68,60.67,6.46,124.1,9.33,183.58,9.98-9.76-159.4-26.11-321.87-35.2-481.13Z"/>
          <path class="cls-2" d="M385.2,1049.82c-5.44-171.28-10.87-342.56-16.21-511.87-13.16,9.99-27.31,18.68-40.04,24.13-18.08,42.38-36.15,84.77-54.33,127,18.46,10.25,36.66,20.96,53.56,32.77-17.53,13.65-35.48,26.76-53.68,39.21,26.65,100.76,65.08,198.41,110.71,288.77Z"/>
          <path class="cls-2" d="M745.47,649.58c94.76,0,117.03,314.72,117.93,385.94-55.65,16.3-116.1,15.81-169.27-1.14,23.01-128.89-16.06-265.71,51.34-384.8Z"/>
          <path class="cls-2" d="M566.94,568.02c73.95,18.63,144.67,50.01,207.36,92.48-83.63,174.76-48.28,203.84-58.98,378.68-60.67,6.46-124.1,9.33-183.58,9.98,9.76-159.4,26.11-321.87,35.2-481.13Z"/>
          <path class="cls-2" d="M531.4,1049.82c5.44-171.28,10.87-342.56,16.21-511.87,13.16,9.99,27.31,18.68,40.04,24.13,18.08,42.38,36.15,84.77,54.33,127-18.46,10.25-36.66,20.96-53.56,32.77,17.53,13.65,35.48,26.76,53.68,39.21-26.65,100.76-65.08,198.41-110.71,288.77Z"/>
          <g>
            <path class="cls-6" d="M194.95,833.95c-1.21,0-2.28-.88-2.47-2.12-8.38-54.75-25.31-107.58-50.31-157.01-.62-1.23-.13-2.74,1.1-3.36,1.23-.63,2.74-.13,3.36,1.1,25.24,49.9,42.33,103.23,50.79,158.51.21,1.36-.73,2.64-2.09,2.85-.13.02-.26.03-.38.03Z"/>
            <path class="cls-6" d="M179.56,836.75c-.94,0-1.84-.53-2.27-1.44-8.2-17.56-21.73-32.97-38.09-43.37-1.16-.74-1.51-2.29-.77-3.45.74-1.17,2.29-1.51,3.45-.77,17.15,10.91,31.33,27.05,39.93,45.47.58,1.25.04,2.74-1.21,3.32-.34.16-.7.24-1.06.24Z"/>
            <path class="cls-6" d="M174.6,851.91c-.56,0-1.13-.19-1.59-.57-9.36-7.75-21.69-11.87-33.83-11.31-1.38.06-2.55-1-2.61-2.38-.06-1.38,1-2.55,2.38-2.61,13.38-.63,26.95,3.91,37.26,12.45,1.06.88,1.21,2.46.33,3.52-.49.6-1.21.91-1.93.91Z"/>
            <path class="cls-6" d="M202.89,1025.92c-1.24,0-2.31-.92-2.48-2.18-9.06-69.24-10.1-139.59-3.08-209.07.14-1.38,1.36-2.37,2.74-2.24,1.37.14,2.37,1.37,2.24,2.74-6.98,69.1-5.95,139.06,3.06,207.92.18,1.37-.79,2.62-2.15,2.8-.11.01-.22.02-.33.02Z"/>
            <path class="cls-6" d="M354.73,984.88c-1.04,0-2.02-.66-2.37-1.71l-74.17-220.72,1.05-1.09c11.27-11.69,24.91-23.9,42.75-38.26-14.14-10.71-28.98-19.68-46.45-28.1l-1.77-.85.41-1.92c8.36-39.55,23.48-77.16,44.93-111.79.73-1.17,2.27-1.53,3.44-.81,1.17.73,1.54,2.27.81,3.44-20.8,33.57-35.56,70-43.88,108.28,18.06,8.83,33.39,18.31,48.09,29.73l2.51,1.95-2.48,1.98c-18.33,14.64-32.27,26.98-43.71,38.73l73.2,217.84c.44,1.31-.26,2.73-1.57,3.17-.26.09-.53.13-.8.13Z"/>
            <path class="cls-6" d="M550.72,980.85c-.4,0-.81-.1-1.19-.3-1.21-.66-1.66-2.18-1.01-3.39,36.3-66.98,62.65-138.73,78.34-213.27-16.68-15.96-32.4-28.84-48.05-39.36l-3.02-2.03,2.97-2.09c16.05-11.29,34.52-22.25,54.93-32.61-14.34-34.76-28.8-70.83-42.8-105.72-.51-1.28.11-2.74,1.39-3.25,1.28-.51,2.74.11,3.25,1.39,14.28,35.6,29.05,72.42,43.66,107.82l.89,2.15-2.08,1.04c-19.76,9.92-37.7,20.41-53.4,31.21,15.21,10.5,30.52,23.23,46.71,38.81l1,.96-.28,1.35c-15.76,75.5-42.38,148.17-79.13,215.99-.45.83-1.31,1.31-2.2,1.31Z"/>
            <path class="cls-6" d="M627.17,817.53c-1.36,0-2.47-1.09-2.5-2.45-.02-1.38,1.07-2.52,2.45-2.55l77.07-1.41c1.34-.04,2.52,1.07,2.55,2.45.02,1.38-1.07,2.52-2.45,2.55l-77.07,1.41h-.05Z"/>
            <path class="cls-6" d="M622.62,845.84c-1.31,0-2.42-1.03-2.49-2.35-.08-1.38.97-2.56,2.35-2.64l80.87-4.72c1.39-.07,2.56.97,2.64,2.35.08,1.38-.97,2.56-2.35,2.64l-80.87,4.72s-.1,0-.15,0Z"/>
            <path class="cls-6" d="M729.87,833.92c-.1,0-.2,0-.3-.02-1.37-.17-2.35-1.41-2.18-2.78,6.88-56.9,23.26-111.8,48.69-163.17.61-1.24,2.11-1.75,3.35-1.13,1.24.61,1.74,2.11,1.13,3.35-25.18,50.86-41.4,105.21-48.2,161.55-.15,1.27-1.23,2.2-2.48,2.2Z"/>
            <path class="cls-6" d="M734.11,1016.53c-1.36,0-2.47-1.08-2.5-2.45-1.41-65.72-4.37-132.32-8.81-197.93-.09-1.38.95-2.57,2.33-2.66,1.38-.08,2.57.95,2.66,2.33,4.44,65.69,7.41,132.36,8.82,198.16.03,1.38-1.07,2.52-2.45,2.55-.02,0-.04,0-.05,0Z"/>
            <path class="cls-6" d="M743.14,837.66c-.55,0-1.11-.18-1.58-.56-1.07-.87-1.23-2.45-.36-3.52,9.31-11.44,20.02-21.7,31.83-30.52,5.63-4.19,13.07-8.71,20.77-6.35,1.32.4,2.06,1.8,1.66,3.12-.4,1.32-1.8,2.06-3.12,1.66-5.55-1.7-11.64,2.09-16.32,5.58-11.49,8.57-21.9,18.55-30.94,29.67-.49.61-1.21.92-1.94.92Z"/>
            <path class="cls-6" d="M756.21,847.48c-1.04,0-2.01-.66-2.37-1.69-.45-1.31.25-2.73,1.56-3.17,13.74-4.68,28.06-6.78,42.58-6.21,1.38.05,2.45,1.22,2.4,2.6-.05,1.38-1.23,2.42-2.6,2.4-13.89-.54-27.61,1.46-40.77,5.94-.27.09-.54.13-.81.13Z"/>
            <path class="cls-6" d="M760.91,672.2c-.44,0-.88-.12-1.29-.36-46.59-28.09-96.22-51.52-147.51-69.65-1.3-.46-1.98-1.89-1.52-3.19.46-1.3,1.89-1.98,3.19-1.52,51.61,18.24,101.54,41.83,148.42,70.09,1.18.71,1.56,2.25.85,3.43-.47.78-1.3,1.21-2.14,1.21Z"/>
            <path class="cls-6" d="M162.72,681.08c-.81,0-1.61-.4-2.09-1.12-.76-1.15-.44-2.7.71-3.46,38.9-25.61,80.7-46.98,124.25-63.52,1.29-.49,2.73.16,3.22,1.45.49,1.29-.16,2.73-1.45,3.22-43.21,16.41-84.68,37.61-123.28,63.02-.42.28-.9.41-1.37.41Z"/>
          </g>
        </g>
        <path class="cls-14" d="M581.37,230.69c9.8-50.18-77.61-61.07-126.36-59.44-48.75-1.63-136.15,9.26-126.36,59.44-5.04,68.99-2.29,138.55,7.81,207.22,1.32,8.97,4.63,17.55,9.79,25.01,19.61,28.35,45.7,52.14,74.92,68.9,10.36,5.68,22.41,8.15,33.84,6.92,11.43,1.23,23.48-1.24,33.84-6.92,29.23-16.76,55.31-40.55,74.92-68.9,5.16-7.46,8.47-16.04,9.79-25.01,10.09-68.67,12.84-138.23,7.81-207.22Z"/>
        <g>
          <path class="cls-5" d="M319.43,189.88c-55.31,29.13-11.73,116.83,7.98,156.47-1.22-29.73,20.35-54.18,23.49-82.87-5.75-70.16,27.37-79.49,88.84-61.35,42.76,18.59,120.34-40.33,117.26,33.64,2.28,37.55,26.09,75.74,24.54,112.96,32.6-51.53,95.01-187.81-14.03-185.15-.41-72.87-90.9-103.06-148.41-69.8-35.21,18.96-81.39,59.26-120.24,27.86-4.69,12.3-9.83,25.43-6.33,40.51,3.5,15.07,16.82,32.53,26.9,27.74Z"/>
          <path class="cls-5" d="M564.86,171.85c-.36,0-.72-.08-1.07-.24-1.25-.59-1.78-2.08-1.19-3.33,11.96-25.31,2.28-57.83-21.57-72.48-1.18-.72-1.54-2.26-.82-3.44.72-1.18,2.26-1.54,3.44-.82,25.96,15.95,36.49,51.33,23.48,78.87-.43.9-1.33,1.43-2.26,1.43Z"/>
          <path class="cls-5" d="M634.59,185.14c-.85,0-1.69-.44-2.15-1.22-7.5-12.64-21.21-21.68-35.79-23.59-14.58-1.9-30.15,3.3-40.65,13.6-.99.97-2.57.95-3.54-.04-.97-.99-.95-2.57.04-3.54,11.57-11.34,28.74-17.08,44.8-14.98,16.06,2.1,31.18,12.06,39.44,25.99.7,1.19.31,2.72-.88,3.43-.4.24-.84.35-1.27.35Z"/>
          <path class="cls-5" d="M321.98,193.7c-.1,0-.21,0-.32-.02-14.5-1.84-27.28-11.28-34.18-25.25-6.91-13.98-6.64-29.86.71-42.49.69-1.19,2.22-1.6,3.42-.9,1.19.69,1.6,2.22.9,3.42-6.5,11.18-6.71,25.3-.55,37.77,6.16,12.47,17.5,20.88,30.33,22.51,1.37.17,2.34,1.42,2.17,2.8-.16,1.26-1.24,2.19-2.48,2.19Z"/>
          <path class="cls-5" d="M321.39,196.22c-9.53,0-19.18-2.95-27.66-8.7-13.58-9.21-21.62-23.9-21.5-39.28.01-1.37,1.13-2.48,2.5-2.48h.02c1.38.01,2.49,1.14,2.48,2.52-.11,13.71,7.11,26.83,19.31,35.11,12.2,8.27,27.06,10.12,39.76,4.96,1.28-.52,2.74.09,3.26,1.37.52,1.28-.09,2.74-1.37,3.26-5.36,2.18-11.05,3.25-16.79,3.25Z"/>
          <path class="cls-5" d="M293.09,274.77c-.92,0-1.81-.51-2.25-1.4-8.84-17.99-7.92-39.91,2.46-58.62,10.38-18.71,28.49-31.09,48.43-33.11,1.38-.14,2.6.86,2.74,2.24.14,1.37-.86,2.6-2.24,2.74-18.32,1.86-34.98,13.28-44.56,30.56-9.59,17.28-10.46,37.46-2.34,53.99.61,1.24.1,2.74-1.14,3.35-.35.17-.73.26-1.1.26Z"/>
        </g>
        <g>
          <path class="cls-14" d="M575.23,366.17c-.11-11.74,6.57-31,18.38-37.68,11.8-6.66,35.67-7.57,40.88,15.58,5.21,23.16-2.39,53.2-19.87,68.56-17.48,15.36-30.85,16.46-38.66,13.47-7.82-3-.62-48.12-.73-59.93Z"/>
          <g>
            <path class="cls-12" d="M592.84,385.46c-1.15,0-2.18-.8-2.44-1.96-.06-.3-6.14-29.71,22.67-40.08,1.3-.47,2.73.21,3.2,1.51.47,1.3-.21,2.73-1.51,3.2-24.63,8.87-19.7,33.27-19.48,34.31.29,1.35-.57,2.68-1.92,2.97-.18.04-.36.06-.53.06Z"/>
            <path class="cls-12" d="M598.41,401.49c-.93,0-1.82-.52-2.25-1.41-.6-1.24-.08-2.74,1.16-3.34.37-.18,9.22-4.72,10.46-16.7.37-3.63-.93-4.68-1.36-5.02-2.81-2.26-9.52-.74-11.64-.04-1.31.43-2.72-.27-3.16-1.58-.44-1.31.27-2.72,1.57-3.16,1.1-.37,10.91-3.48,16.35.87,1.76,1.41,3.75,4.19,3.21,9.44-1.53,14.83-12.77,20.45-13.25,20.69-.35.17-.72.25-1.09.25Z"/>
          </g>
        </g>
        <g>
          <path class="cls-14" d="M334.37,366.17c.11-11.74-6.56-31-18.38-37.68-11.8-6.66-35.67-7.57-40.88,15.58-5.21,23.16,2.39,53.2,19.87,68.56,17.48,15.36,30.85,16.46,38.66,13.47,7.82-3,.62-48.12.73-59.93Z"/>
          <g>
            <path class="cls-12" d="M316.76,385.46c-.18,0-.36-.02-.54-.06-1.35-.29-2.2-1.62-1.91-2.97.22-1.04,5.15-25.44-19.48-34.31-1.3-.47-1.97-1.9-1.51-3.2.47-1.3,1.9-1.97,3.2-1.51,28.8,10.37,22.73,39.78,22.67,40.08-.26,1.17-1.29,1.97-2.44,1.97Z"/>
            <path class="cls-12" d="M311.19,401.49c-.37,0-.74-.08-1.09-.25-.48-.23-11.72-5.86-13.25-20.69-.54-5.25,1.45-8.03,3.21-9.44,5.44-4.35,15.25-1.24,16.35-.87,1.31.44,2.01,1.86,1.57,3.17-.44,1.31-1.85,2.01-3.16,1.58h0c-2.13-.71-8.83-2.22-11.64.04-.43.34-1.73,1.39-1.36,5.02,1.24,12.09,10.36,16.66,10.46,16.7,1.24.6,1.76,2.1,1.16,3.34-.43.89-1.32,1.41-2.25,1.41Z"/>
          </g>
        </g>
        <g>
          <circle cx="524.11" cy="336.58" r="13.73" transform="translate(29.94 715.76) rotate(-70.21)"/>
          <path class="cls-3" d="M500.99,338.56c-.4,0-.8-.09-1.17-.29-1.22-.65-1.68-2.16-1.03-3.38,4.76-8.95,14.05-14.5,24.84-14.85,10.77-.34,20.42,4.6,25.75,13.22.73,1.17.36,2.71-.81,3.44-1.17.73-2.71.36-3.44-.81-4.38-7.08-12.33-11.15-21.33-10.85-8.98.29-16.68,4.85-20.59,12.2-.45.84-1.31,1.33-2.21,1.33Z"/>
        </g>
        <g>
          <circle cx="394.54" cy="339.08" r="13.73" transform="translate(-63.74 585.29) rotate(-68.92)"/>
          <path class="cls-3" d="M417.67,341.06c-.89,0-1.76-.48-2.21-1.33-3.91-7.35-11.61-11.91-20.59-12.2-8.98-.29-16.95,3.77-21.33,10.85-.73,1.17-2.27,1.54-3.44.81-1.17-.73-1.54-2.27-.81-3.44,5.33-8.63,14.94-13.56,25.74-13.22,10.79.35,20.08,5.9,24.84,14.85.65,1.22.19,2.73-1.03,3.38-.37.2-.78.29-1.17.29Z"/>
        </g>
        <path class="cls-5" d="M555.15,288.18c-4.35-5.07-8.84-10.32-16.94-13.47-15.65-6.07-28.46-2.98-33.24-1.36-8.15,2.69-11.67,5.71-16.09,10.03-1.87,1.82-2.38,4.72-1.28,7.23,1.03,2.35,3.2,3.72,5.61,3.58,2.4-.14,4.6-.92,7.15-1.81,3.82-1.35,8.57-3.02,16.52-3.56,11.36-.64,23.43,1.24,32.29,5.04,1.36.58,2.47.81,3.36.81,1.69,0,2.62-.8,3.08-1.43,1.04-1.41.85-3.53-.45-5.05Z"/>
        <path class="cls-5" d="M425.84,283.38c-4.43-4.31-7.94-7.34-16.09-10.03-4.79-1.62-17.59-4.71-33.24,1.36-8.1,3.14-12.59,8.39-16.94,13.47-1.3,1.52-1.49,3.64-.45,5.05.46.63,1.39,1.43,3.08,1.43.89,0,2-.22,3.36-.81,8.86-3.8,20.92-5.69,32.27-5.04,7.98.54,12.73,2.21,16.54,3.56,2.55.9,4.75,1.68,7.15,1.81,2.42.14,4.57-1.23,5.61-3.58,1.1-2.5.59-5.41-1.28-7.23Z"/>
        <g>
          <path class="cls-4" d="M445.09,411.62c-.69,0-1.37-.28-1.86-.83-.52-.58-1.74-1.63-3.04-2.74-2.62-2.24-5.87-5.03-8.27-7.98-3.57-4.39-4.68-9.88-2.95-14.68,1.67-4.63,3.38-9.1,5.04-13.43,6.46-16.87,12.04-31.43,9.73-42.02-.29-1.35.56-2.68,1.91-2.97,1.35-.3,2.68.56,2.97,1.91,2.63,12.04-3.2,27.26-9.94,44.87-1.65,4.3-3.35,8.75-5,13.33-1.13,3.13-.34,6.8,2.12,9.82,2.11,2.6,5.18,5.23,7.65,7.34,1.54,1.32,2.77,2.37,3.51,3.2.92,1.03.83,2.61-.19,3.53-.48.43-1.07.64-1.67.64Z"/>
          <path class="cls-4" d="M457.36,412.74c-.29,0-.58-.05-.87-.15-1.3-.47-1.96-1.94-1.49-3.23.26-.73,2.95-7.17,15.66-8.96,1.38-.19,2.63.76,2.82,2.13.19,1.37-.76,2.63-2.13,2.82-9.69,1.36-11.66,5.73-11.68,5.77-.37,1.01-1.31,1.62-2.32,1.62Z"/>
        </g>
        <g>
          <path class="cls-9" d="M473.76,197.07c-.87,0-1.72-.46-2.18-1.27-.68-1.2-.25-2.73.95-3.4,15.94-8.97,26.28-27.28,25.74-45.56-.54-18.28-11.95-35.95-28.39-43.96-1.24-.6-1.76-2.1-1.15-3.34.6-1.24,2.1-1.76,3.34-1.15,18.07,8.8,30.6,28.21,31.2,48.3.59,20.09-10.78,40.21-28.29,50.06-.39.22-.81.32-1.22.32Z"/>
          <path class="cls-9" d="M496.25,193.12c-.81,0-1.61-.4-2.09-1.13-.76-1.15-.44-2.7.71-3.46,13.06-8.59,21.8-23.01,23.37-38.56,1.58-15.55-4.09-31.43-15.16-42.46-.98-.97-.98-2.56,0-3.54.98-.98,2.56-.98,3.54,0,12.13,12.09,18.33,29.47,16.61,46.51-1.73,17.03-11.3,32.82-25.6,42.23-.42.28-.9.41-1.37.41Z"/>
          <path class="cls-9" d="M512.8,188.21c-.96,0-1.88-.56-2.29-1.5-.55-1.27.03-2.74,1.29-3.29,9-3.93,16.49-10.87,21.1-19.54,4.6-8.67,6.15-18.77,4.36-28.42-.25-1.36.64-2.66,2-2.91,1.36-.25,2.66.64,2.91,2,2,10.76.27,22.01-4.86,31.68-5.13,9.67-13.48,17.4-23.51,21.78-.33.14-.67.21-1,.21Z"/>
          <path class="cls-9" d="M593.51,288.02c-.12,0-.23,0-.35-.02-1.37-.19-2.32-1.45-2.13-2.82,2.13-15.25,4-35.19-.51-54.12-4.54-19.03-15.28-34.57-29.49-42.63-1.2-.68-1.62-2.21-.94-3.41.68-1.2,2.21-1.62,3.41-.94,15.41,8.74,27.03,25.44,31.88,45.82,4.71,19.75,2.79,40.29.6,55.97-.17,1.25-1.25,2.15-2.47,2.15Z"/>
          <path class="cls-9" d="M605.09,292.75c-.24,0-.49-.04-.74-.11-1.32-.41-2.06-1.8-1.65-3.12,6.18-20.09,8.51-36.27,7.34-50.92-1.47-18.37-9.05-34.74-20.78-44.92-1.04-.91-1.15-2.48-.25-3.53.91-1.04,2.48-1.15,3.53-.25,12.72,11.04,20.91,28.64,22.49,48.3,1.23,15.31-1.17,32.08-7.54,52.79-.33,1.07-1.32,1.77-2.39,1.77Z"/>
          <path class="cls-9" d="M316.08,276.78c-1.22,0-2.29-.9-2.47-2.14-4.7-32.28,11.62-66.44,39.69-83.07,1.19-.7,2.72-.31,3.42.88.7,1.19.31,2.72-.88,3.43-26.37,15.62-41.71,47.71-37.29,78.04.2,1.37-.75,2.64-2.11,2.83-.12.02-.24.03-.36.03Z"/>
          <path class="cls-9" d="M306.25,250.15c-1.33,0-2.43-1.05-2.5-2.39-.93-20.3,10.31-40.7,27.96-50.76,1.2-.68,2.73-.26,3.41.93.68,1.2.27,2.73-.93,3.41-16.06,9.16-26.29,27.72-25.44,46.19.06,1.38-1,2.55-2.38,2.61-.04,0-.08,0-.12,0Z"/>
          <path class="cls-9" d="M439.01,192.17c-.22,0-.44-.03-.66-.09-1.33-.37-2.12-1.74-1.75-3.07,2.59-9.45-2.49-20.57-11.33-24.79-11.01-5.26-24.35-.46-35.96,4.94l-.54.25c-12.03,5.59-25.67,11.93-39.13,8.21-1.33-.37-2.11-1.75-1.74-3.08.37-1.33,1.75-2.11,3.08-1.74,11.69,3.24,23.89-2.44,35.69-7.92l.54-.25c12.66-5.88,27.34-11.06,40.22-4.91,11.1,5.3,17.25,18.75,14,30.62-.3,1.11-1.31,1.84-2.41,1.84Z"/>
          <path class="cls-9" d="M450.69,170.68c-1.01,0-1.97-.62-2.34-1.62-3.26-8.73-10.42-15.89-19.15-19.16-8.72-3.27-18.83-2.57-27.02,1.86-1.22.66-2.73.21-3.39-1.01-.66-1.21-.21-2.73,1.01-3.39,9.45-5.11,21.09-5.92,31.15-2.15,10.06,3.77,18.31,12.02,22.08,22.09.48,1.29-.17,2.73-1.47,3.22-.29.11-.58.16-.88.16Z"/>
        </g>
        <g>
          <g>
            <path class="cls-17" d="M522.04,385.28c-17.36,0-33.93-5.14-40.26-11.75-5.84-6.1-8.12-13.91-9.45-20.03-4.36-19.95.97-35.96,14.26-42.81,9.06-4.67,22.09-8.52,55.83-5.11,13.14,1.33,23.97,6.65,29.7,14.6,4.48,6.22,5.85,13.99,3.94,22.47-1.44,6.43-7.45,28.07-24.08,36.36-8.92,4.44-19.56,6.27-29.92,6.27ZM519.81,310.29c-16.59,0-24.75,2.77-30.49,5.73-15.89,8.19-12.55,29.78-11.15,36.21,1.17,5.35,3.12,12.14,7.93,17.16,7.72,8.07,40.46,15.58,63.19,4.26,11.33-5.65,18.23-20.39,20.91-32.31,1.54-6.86.55-12.8-2.96-17.66-4.73-6.56-14-10.99-25.44-12.15-8.67-.88-15.9-1.25-22-1.25Z"/>
            <path class="cls-17" d="M585.14,322.69c-.83-5.85-24.64-13.72-30.98-14.68-2.93-.44,6.24,6.75,8.8,8.62,2.77,2.03,5.58,4.79,7.28,8.55.9,2,1.49,4.22,1.73,6.55.24,2.34-1.5,5.24-.59,7.09.64,1.3,2.07,1.98,3.14,1,3.43-3.18,5.89-5.45,9.32-8.62.93-.86,1.55-6.82,1.31-8.5Z"/>
          </g>
          <g>
            <path class="cls-17" d="M358.33,379c-16.63-8.28-22.64-29.92-24.08-36.36-1.91-8.48-.54-16.25,3.94-22.47,5.73-7.95,16.56-13.28,29.7-14.6,33.73-3.4,46.77.44,55.83,5.11,13.29,6.85,18.61,22.85,14.26,42.81-1.33,6.12-3.62,13.92-9.45,20.03-6.33,6.62-22.9,11.75-40.26,11.75-10.36,0-21.01-1.83-29.92-6.27ZM368.49,311.53c-11.43,1.16-20.71,5.58-25.44,12.15-3.5,4.85-4.49,10.8-2.96,17.66,2.68,11.92,9.57,26.66,20.91,32.31,22.73,11.32,55.47,3.81,63.19-4.26,4.81-5.02,6.76-11.81,7.93-17.16,1.4-6.42,4.74-28.01-11.15-36.21-5.74-2.96-13.89-5.73-30.49-5.73-6.1,0-13.33.37-22,1.25Z"/>
            <path class="cls-17" d="M326.46,331.19c3.43,3.18,5.89,5.45,9.32,8.62,1.06.98,2.5.3,3.14-1,.91-1.85-.83-4.75-.59-7.09.24-2.32.83-4.55,1.73-6.55,1.7-3.76,4.51-6.52,7.28-8.55,2.56-1.88,11.72-9.07,8.8-8.62-6.34.96-30.15,8.83-30.98,14.68-.24,1.68.38,7.64,1.31,8.5Z"/>
          </g>
          <path class="cls-17" d="M474.92,332.83c-.55,0-1.1-.15-1.59-.46-15.62-9.8-35.02-.48-35.21-.39-1.49.73-3.28.12-4.02-1.37-.73-1.48-.12-3.28,1.36-4.01.91-.45,22.56-10.92,41.06.68,1.4.88,1.83,2.73.95,4.14-.57.91-1.55,1.41-2.54,1.41Z"/>
        </g>
        <g>
          <path d="M415.02,433.72c13.69-1.32,49.09-3.93,85.77-.12,3.39.35,5.52,3.88,4.24,7.04-10,24.59-25.07,34.11-46.72,34.11s-40.35-10.28-47.71-34.44c-.94-3.1,1.2-6.29,4.43-6.6Z"/>
          <path class="cls-7" d="M502.51,434.1c-2.93,5.46-7.67,9.21-12.65,10.11-8.21,1.47-40.44,1.61-59.41,0-10.54-.88-15.04-5.85-16.98-10.08.48-.23,1.01-.37,1.56-.42,13.68-1.31,49.08-3.93,85.76-.11.62.06,1.2.24,1.72.5Z"/>
          <path class="cls-15" d="M493.8,459.82c-9.11,10.54-20.78,14.94-35.48,14.94-13.59,0-26.01-4.04-35.18-13,4.04-4.03,14.48-11.61,35.72-11.19,21.62.42,31.41,6.33,34.94,9.25Z"/>
        </g>
      </g>
    </g>
  </g>
</svg>