<?xml version="1.0" encoding="UTF-8"?>
<svg xmlns="http://www.w3.org/2000/svg" xmlns:xlink="http://www.w3.org/1999/xlink" viewBox="0 0 1195.36 1195.36">
  <defs>
    <style>
      .cls-1, .cls-2, .cls-3, .cls-4, .cls-5, .cls-6, .cls-7, .cls-8, .cls-9, .cls-10, .cls-11, .cls-12, .cls-13, .cls-14, .cls-15, .cls-16, .cls-17, .cls-18, .cls-19, .cls-20, .cls-21, .cls-22 {
        mix-blend-mode: multiply;
      }

      .cls-1, .cls-23 {
        fill: #e6e6e6;
      }

      .cls-24 {
        mask: url(#mask-5);
      }

      .cls-25 {
        mask: url(#mask-13);
      }

      .cls-2, .cls-26, .cls-11 {
        fill: #fdb477;
      }

      .cls-2, .cls-10 {
        opacity: .4;
      }

      .cls-27 {
        fill: #ffd3a6;
      }

      .cls-28 {
        mask: url(#mask-1);
      }

      .cls-3 {
        fill: #ccc;
      }

      .cls-4 {
        fill: url(#radial-gradient-3);
      }

      .cls-5 {
        fill: #d4145a;
      }

      .cls-5, .cls-7, .cls-11, .cls-29, .cls-30 {
        opacity: .6;
      }

      .cls-31 {
        mask: url(#mask-10);
      }

      .cls-32 {
        mask: url(#mask-6);
      }

      .cls-6 {
        fill: url(#radial-gradient);
      }

      .cls-33 {
        mask: url(#mask-7);
      }

      .cls-34 {
        fill: #9e2021;
      }

      .cls-7 {
        fill: url(#linear-gradient-2);
      }

      .cls-35 {
        filter: url(#luminosity-noclip-5);
      }

      .cls-36 {
        fill: #fff;
      }

      .cls-37 {
        mask: url(#mask);
      }

      .cls-8 {
        fill: url(#radial-gradient-7);
      }

      .cls-38, .cls-39, .cls-20, .cls-30 {
        fill: #703517;
      }

      .cls-40 {
        fill: #ba124f;
      }

      .cls-9 {
        fill: url(#linear-gradient-6);
      }

      .cls-9, .cls-22 {
        opacity: .8;
      }

      .cls-41 {
        fill: none;
      }

      .cls-39, .cls-42, .cls-43 {
        opacity: .3;
      }

      .cls-39, .cls-42, .cls-43, .cls-30 {
        mix-blend-mode: screen;
      }

      .cls-42 {
        fill: url(#radial-gradient-4);
      }

      .cls-44 {
        mask: url(#mask-8);
      }

      .cls-45 {
        filter: url(#luminosity-noclip-11);
      }

      .cls-46 {
        mask: url(#mask-2);
      }

      .cls-47 {
        filter: url(#luminosity-noclip-3);
      }

      .cls-10 {
        fill: #ffaa7e;
      }

      .cls-48 {
        mask: url(#mask-9);
      }

      .cls-12 {
        fill: url(#radial-gradient-2);
      }

      .cls-12, .cls-18, .cls-19, .cls-20 {
        opacity: .5;
      }

      .cls-49 {
        fill: #5c2907;
      }

      .cls-50 {
        clip-path: url(#clippath-1);
      }

      .cls-51 {
        isolation: isolate;
      }

      .cls-52 {
        fill: #99642f;
      }

      .cls-53 {
        fill: #ed4790;
      }

      .cls-13 {
        fill: #999;
      }

      .cls-14 {
        fill: url(#radial-gradient-5);
      }

      .cls-54 {
        fill: #9e005d;
      }

      .cls-55 {
        filter: url(#luminosity-noclip-13);
      }

      .cls-56 {
        filter: url(#luminosity-noclip-9);
      }

      .cls-15 {
        fill: url(#linear-gradient-5);
      }

      .cls-57 {
        fill: #572a0c;
      }

      .cls-43 {
        fill: url(#radial-gradient-6);
      }

      .cls-17 {
        fill: url(#linear-gradient-3);
      }

      .cls-18 {
        fill: #c94b1e;
      }

      .cls-19 {
        fill: url(#radial-gradient-8);
      }

      .cls-29 {
        mix-blend-mode: color-dodge;
      }

      .cls-58 {
        mask: url(#mask-11);
      }

      .cls-59 {
        fill: #f15a24;
      }

      .cls-60 {
        mask: url(#mask-12);
      }

      .cls-61 {
        fill: #701611;
      }

      .cls-62 {
        fill: #3b0a07;
      }

      .cls-63 {
        mask: url(#mask-4);
      }

      .cls-21 {
        fill: url(#linear-gradient);
      }

      .cls-64 {
        filter: url(#luminosity-noclip-7);
      }

      .cls-65 {
        clip-path: url(#clippath);
      }

      .cls-66 {
        fill: #b15b2a;
      }

      .cls-22 {
        fill: url(#linear-gradient-4);
      }

      .cls-67 {
        mask: url(#mask-3);
      }

      .cls-68 {
        filter: url(#luminosity-noclip);
      }
    </style>
    <clipPath id="clippath">
      <circle class="cls-41" cx="597.68" cy="597.68" r="597.68"/>
    </clipPath>
    <clipPath id="clippath-1">
      <path class="cls-41" d="M765.02,1107.05c-.7-7.17-1.44-14.45-2.19-21.78-.27-2.76-.56-5.52-.85-8.3,53.94-3.81,80.72-21.37,80.72-21.37,0,0-24.22-93.59-49.72-129.97-25.5-36.38-96.97-51.79-96.97-51.79v.04c-5.18-1.81-10.68-3.48-16.37-5-13.43-3.62-27.76-6.5-40.94-8.73-20.85-1.88-41.25-2.74-62.3-2.01-16.08,2.38-35.38,5.83-53.15,10.59-5.82,1.56-11.47,3.26-16.79,5.11h0s-71.47,15.4-96.97,51.78c-25.5,36.38-49.72,129.97-49.72,129.97,0,0,26.74,17.54,80.63,21.36-8.72,82.95-13.92,161.82-13.92,161.82h349.42s-2.62-39.69-7.24-92.36c-1.1-12.51-2.32-25.77-3.63-39.38Z"/>
    </clipPath>
    <filter id="luminosity-noclip" x="688.97" y="627.36" width="135.82" height="135.82" color-interpolation-filters="sRGB" filterUnits="userSpaceOnUse">
      <feFlood flood-color="#fff" result="bg"/>
      <feBlend in="SourceGraphic" in2="bg"/>
    </filter>
    <filter id="luminosity-noclip-2" x="688.97" y="-8789.68" width="135.82" height="32766" color-interpolation-filters="sRGB" filterUnits="userSpaceOnUse">
      <feFlood flood-color="#fff" result="bg"/>
      <feBlend in="SourceGraphic" in2="bg"/>
    </filter>
    <mask id="mask-1" x="688.97" y="-8789.68" width="135.82" height="32766" maskUnits="userSpaceOnUse"/>
    <radialGradient id="radial-gradient" cx="-87.9" cy="-194.73" fx="-87.9" fy="-194.73" r="67.91" gradientTransform="translate(565.48 790.2) rotate(-140.68) scale(1 -1)" gradientUnits="userSpaceOnUse">
      <stop offset="0" stop-color="#fff"/>
      <stop offset=".08" stop-color="#f6f6f6"/>
      <stop offset=".22" stop-color="#ddd"/>
      <stop offset=".4" stop-color="#b5b5b5"/>
      <stop offset=".6" stop-color="#7e7e7e"/>
      <stop offset=".83" stop-color="#393939"/>
      <stop offset="1" stop-color="#000"/>
    </radialGradient>
    <mask id="mask" x="688.97" y="627.36" width="135.82" height="135.82" maskUnits="userSpaceOnUse">
      <g class="cls-68">
        <g class="cls-28">
          <circle class="cls-6" cx="756.88" cy="695.27" r="67.91" transform="translate(-269.95 738.83) rotate(-45)"/>
        </g>
      </g>
    </mask>
    <radialGradient id="radial-gradient-2" cx="-87.9" cy="-194.73" fx="-87.9" fy="-194.73" r="67.91" gradientTransform="translate(565.48 790.2) rotate(-140.68) scale(1 -1)" gradientUnits="userSpaceOnUse">
      <stop offset="0" stop-color="#f69d76"/>
      <stop offset=".13" stop-color="#f6a37e"/>
      <stop offset=".35" stop-color="#f8b497"/>
      <stop offset=".63" stop-color="#fad1be"/>
      <stop offset=".95" stop-color="#fef8f5"/>
      <stop offset="1" stop-color="#fff"/>
    </radialGradient>
    <filter id="luminosity-noclip-3" x="655.19" y="538.67" width="135.82" height="135.82" color-interpolation-filters="sRGB" filterUnits="userSpaceOnUse">
      <feFlood flood-color="#fff" result="bg"/>
      <feBlend in="SourceGraphic" in2="bg"/>
    </filter>
    <filter id="luminosity-noclip-4" x="655.19" y="-8789.68" width="135.82" height="32766" color-interpolation-filters="sRGB" filterUnits="userSpaceOnUse">
      <feFlood flood-color="#fff" result="bg"/>
      <feBlend in="SourceGraphic" in2="bg"/>
    </filter>
    <mask id="mask-3" x="655.19" y="-8789.68" width="135.82" height="32766" maskUnits="userSpaceOnUse"/>
    <radialGradient id="radial-gradient-3" cx="-63.06" cy="-286.32" fx="-63.06" fy="-286.32" r="67.91" gradientTransform="translate(492.88 788.11) rotate(-140.68) scale(1 -1)" gradientUnits="userSpaceOnUse">
      <stop offset="0" stop-color="#fff"/>
      <stop offset="1" stop-color="#000"/>
    </radialGradient>
    <mask id="mask-2" x="655.19" y="538.67" width="135.82" height="135.82" maskUnits="userSpaceOnUse">
      <g class="cls-47">
        <g class="cls-67">
          <circle class="cls-4" cx="723.1" cy="606.58" r="67.91" transform="translate(-217.12 688.97) rotate(-45)"/>
        </g>
      </g>
    </mask>
    <radialGradient id="radial-gradient-4" cx="-63.06" cy="-286.32" fx="-63.06" fy="-286.32" r="67.91" gradientTransform="translate(492.88 788.11) rotate(-140.68) scale(1 -1)" gradientUnits="userSpaceOnUse">
      <stop offset="0" stop-color="#fff"/>
      <stop offset="1" stop-color="#fff"/>
    </radialGradient>
    <filter id="luminosity-noclip-5" x="392.94" y="538.67" width="135.82" height="135.82" color-interpolation-filters="sRGB" filterUnits="userSpaceOnUse">
      <feFlood flood-color="#fff" result="bg"/>
      <feBlend in="SourceGraphic" in2="bg"/>
    </filter>
    <filter id="luminosity-noclip-6" x="392.94" y="-8789.68" width="135.82" height="32766" color-interpolation-filters="sRGB" filterUnits="userSpaceOnUse">
      <feFlood flood-color="#fff" result="bg"/>
      <feBlend in="SourceGraphic" in2="bg"/>
    </filter>
    <mask id="mask-5" x="392.94" y="-8789.68" width="135.82" height="32766" maskUnits="userSpaceOnUse"/>
    <radialGradient id="radial-gradient-5" cx="-5368.06" cy="240.93" fx="-5368.06" fy="240.93" r="67.91" gradientTransform="translate(5807.88 1139.04) rotate(8.26)" xlink:href="#radial-gradient-3"/>
    <mask id="mask-4" x="392.94" y="538.67" width="135.82" height="135.82" maskUnits="userSpaceOnUse">
      <g class="cls-35">
        <g class="cls-24">
          <circle class="cls-14" cx="460.85" cy="606.58" r="67.91" transform="translate(-26.85 21.37) rotate(-2.58)"/>
        </g>
      </g>
    </mask>
    <radialGradient id="radial-gradient-6" cx="-5368.06" cy="240.93" fx="-5368.06" fy="240.93" r="67.91" gradientTransform="translate(5807.88 1139.04) rotate(8.26)" xlink:href="#radial-gradient-4"/>
    <filter id="luminosity-noclip-7" x="382.99" y="638.14" width="135.82" height="135.82" color-interpolation-filters="sRGB" filterUnits="userSpaceOnUse">
      <feFlood flood-color="#fff" result="bg"/>
      <feBlend in="SourceGraphic" in2="bg"/>
    </filter>
    <filter id="luminosity-noclip-8" x="382.99" y="-8789.68" width="135.82" height="32766" color-interpolation-filters="sRGB" filterUnits="userSpaceOnUse">
      <feFlood flood-color="#fff" result="bg"/>
      <feBlend in="SourceGraphic" in2="bg"/>
    </filter>
    <mask id="mask-7" x="382.99" y="-8789.68" width="135.82" height="32766" maskUnits="userSpaceOnUse"/>
    <radialGradient id="radial-gradient-7" cx="217.65" cy="-214.26" fx="217.65" fy="-214.26" r="67.91" gradientTransform="translate(418.1 1009.7) rotate(-128.38) scale(1 -1)" xlink:href="#radial-gradient"/>
    <mask id="mask-6" x="382.99" y="638.14" width="135.82" height="135.82" maskUnits="userSpaceOnUse">
      <g class="cls-64">
        <g class="cls-33">
          <circle class="cls-8" cx="450.9" cy="706.05" r="67.91" transform="translate(-386.85 703.93) rotate(-57.29)"/>
        </g>
      </g>
    </mask>
    <radialGradient id="radial-gradient-8" cx="217.65" cy="-214.26" fx="217.65" fy="-214.26" r="67.91" gradientTransform="translate(418.1 1009.7) rotate(-128.38) scale(1 -1)" xlink:href="#radial-gradient-2"/>
    <filter id="luminosity-noclip-9" x="554.58" y="638.97" width="67.8" height="68.93" color-interpolation-filters="sRGB" filterUnits="userSpaceOnUse">
      <feFlood flood-color="#fff" result="bg"/>
      <feBlend in="SourceGraphic" in2="bg"/>
    </filter>
    <filter id="luminosity-noclip-10" x="554.58" y="-8789.68" width="67.8" height="32766" color-interpolation-filters="sRGB" filterUnits="userSpaceOnUse">
      <feFlood flood-color="#fff" result="bg"/>
      <feBlend in="SourceGraphic" in2="bg"/>
    </filter>
    <mask id="mask-9" x="554.58" y="-8789.68" width="67.8" height="32766" maskUnits="userSpaceOnUse"/>
    <linearGradient id="linear-gradient" x1="3633.33" y1="-672.43" x2="3600.04" y2="-650.57" gradientTransform="translate(4265.19 402.08) rotate(165.32) scale(1 -1)" gradientUnits="userSpaceOnUse">
      <stop offset=".04" stop-color="#000"/>
      <stop offset="1" stop-color="#fff"/>
    </linearGradient>
    <mask id="mask-8" x="554.58" y="638.97" width="67.8" height="68.93" maskUnits="userSpaceOnUse">
      <g class="cls-56">
        <g class="cls-48">
          <path class="cls-21" d="M599.8,638.97s-5.43,28.46,20.23,45.02c0,0,8.84,7.36-7.76,16.3-16.59,8.94-45.52,7.53-45.52,7.53,0,0-43.17-52.1,33.04-68.85Z"/>
        </g>
      </g>
    </mask>
    <linearGradient id="linear-gradient-2" x1="3633.33" y1="-672.43" x2="3600.04" y2="-650.57" gradientTransform="translate(4265.19 402.08) rotate(165.32) scale(1 -1)" gradientUnits="userSpaceOnUse">
      <stop offset=".04" stop-color="#fff"/>
      <stop offset="1" stop-color="#f69d76"/>
    </linearGradient>
    <filter id="luminosity-noclip-11" x="296.66" y="631.56" width="48.73" height="63.68" color-interpolation-filters="sRGB" filterUnits="userSpaceOnUse">
      <feFlood flood-color="#fff" result="bg"/>
      <feBlend in="SourceGraphic" in2="bg"/>
    </filter>
    <filter id="luminosity-noclip-12" x="296.66" y="-8789.68" width="48.73" height="32766" color-interpolation-filters="sRGB" filterUnits="userSpaceOnUse">
      <feFlood flood-color="#fff" result="bg"/>
      <feBlend in="SourceGraphic" in2="bg"/>
    </filter>
    <mask id="mask-11" x="296.66" y="-8789.68" width="48.73" height="32766" maskUnits="userSpaceOnUse"/>
    <linearGradient id="linear-gradient-3" x1="7869.13" y1="-801.31" x2="7862.26" y2="-741.12" gradientTransform="translate(8160.77 -353.34) rotate(166.94) scale(1 -1)" gradientUnits="userSpaceOnUse">
      <stop offset="0" stop-color="#fff"/>
      <stop offset=".96" stop-color="#000"/>
    </linearGradient>
    <mask id="mask-10" x="296.66" y="631.56" width="48.73" height="63.68" maskUnits="userSpaceOnUse">
      <g class="cls-45">
        <g class="cls-58">
          <path class="cls-17" d="M341.84,655.65c-1.18-9.67-6.36-19.69-15.51-23.02-11.32-4.13-24.53,4.34-28.26,15.8-3.73,11.46.33,24.3,7.55,33.94,6.63,8.86,18.39,16.06,28.43,11.43,7.68-3.54,11.18-12.75,11.32-21.2.14-8.45-3.54-16.95-3.54-16.95Z"/>
        </g>
      </g>
    </mask>
    <linearGradient id="linear-gradient-4" x1="7869.13" y1="-801.31" x2="7862.26" y2="-741.12" gradientTransform="translate(8160.77 -353.34) rotate(166.94) scale(1 -1)" gradientUnits="userSpaceOnUse">
      <stop offset="0" stop-color="#f69d76"/>
      <stop offset=".96" stop-color="#fff"/>
    </linearGradient>
    <filter id="luminosity-noclip-13" x="856.75" y="624.38" width="48.36" height="63.85" color-interpolation-filters="sRGB" filterUnits="userSpaceOnUse">
      <feFlood flood-color="#fff" result="bg"/>
      <feBlend in="SourceGraphic" in2="bg"/>
    </filter>
    <filter id="luminosity-noclip-14" x="856.75" y="-8789.68" width="48.36" height="32766" color-interpolation-filters="sRGB" filterUnits="userSpaceOnUse">
      <feFlood flood-color="#fff" result="bg"/>
      <feBlend in="SourceGraphic" in2="bg"/>
    </filter>
    <mask id="mask-13" x="856.75" y="-8789.68" width="48.36" height="32766" maskUnits="userSpaceOnUse"/>
    <linearGradient id="linear-gradient-5" x1="1345.58" y1="625.81" x2="1338.71" y2="685.99" gradientTransform="translate(-304.8 -246.92) rotate(11.62)" xlink:href="#linear-gradient-3"/>
    <mask id="mask-12" x="856.75" y="624.38" width="48.36" height="63.85" maskUnits="userSpaceOnUse">
      <g class="cls-55">
        <g class="cls-25">
          <path class="cls-15" d="M859.9,649c.94-9.7,5.86-19.84,14.93-23.4,11.21-4.41,24.63,3.73,28.65,15.09,4.01,11.36.28,24.3-6.7,34.12-6.41,9.02-17.98,16.52-28.14,12.14-7.76-3.34-11.5-12.46-11.85-20.91-.35-8.45,3.12-17.04,3.12-17.04Z"/>
        </g>
      </g>
    </mask>
    <linearGradient id="linear-gradient-6" x1="1345.58" y1="625.81" x2="1338.71" y2="685.99" gradientTransform="translate(-304.8 -246.92) rotate(11.62)" xlink:href="#linear-gradient-4"/>
  </defs>
  <g class="cls-51">
    <g id="Layer_2" data-name="Layer 2">
      <g id="Boy_and_Girl" data-name="Boy and Girl">
        <g class="cls-65">
          <g>
            <g>
              <polygon class="cls-27" points="382.67 1060.47 364.03 1162.38 439.11 1175.99 449.51 1071.15 382.67 1060.47"/>
              <path class="cls-10" d="M382.67,1060.47l-.68,3.75c16.21,18.61,39.9,27.91,64.93,33.1l2.6-26.16-66.84-10.69Z"/>
              <path class="cls-53" d="M409.48,925.63c-25.5,36.38-49.72,129.97-49.72,129.97,0,0,28.6,18.77,86.25,21.7l60.44-203.46s-71.47,15.41-96.97,51.79Z"/>
              <path class="cls-5" d="M488.44,934.47c-11.22,10.88-21.24,22.58-27.01,36.4-13.89,38.46-37.56,74.47-69.23,97.94,13.62,3.86,31.54,7.36,53.8,8.49l42.43-142.84Z"/>
              <g>
                <path class="cls-40" d="M443.92,1005.76c-1.12-3.58-2.91-6.91-4.95-10.06-2.07-3.13-4.48-6.05-7.2-8.69-2.69-2.66-5.81-4.9-9.1-6.75-.85-.43-1.69-.86-2.54-1.27-.86-.39-1.77-.68-2.65-1.02l-1.34-.46c-.45-.13-.92-.23-1.38-.33-.92-.2-1.84-.39-2.76-.53.81.49,1.63.93,2.44,1.36.4.23.82.41,1.21.64l1.16.74c.77.49,1.57.91,2.31,1.43.73.53,1.47,1.05,2.21,1.56,2.88,2.15,5.66,4.4,8.22,6.93,2.58,2.5,5.04,5.13,7.41,7.89,2.38,2.75,4.65,5.61,6.95,8.55Z"/>
                <path class="cls-40" d="M445.47,990.69c-2.45-3.73-4.64-7.48-6.59-11.34-1.97-3.84-3.68-7.78-5.09-11.81l-.56-1.5-.46-1.53c-.31-1.02-.65-2.04-.93-3.07-.49-2.08-1.11-4.14-1.46-6.26-.96-4.22-1.3-8.53-1.89-12.98-1.02,4.33-1.49,8.88-1.1,13.38.07,2.27.53,4.49.91,6.73.22,1.11.56,2.19.84,3.29.15.55.3,1.09.47,1.64l.57,1.6c1.5,4.28,3.56,8.35,6.12,12.07,2.56,3.7,5.55,7.15,9.18,9.8Z"/>
                <path class="cls-40" d="M367.23,1040.63c4.07,4.42,9.24,7.75,14.73,10.57,5.51,2.81,11.49,4.97,17.74,6.62,1.57.4,3.19.7,4.78,1.06l2.4.51,2.47.38,4.95.7c1.68.15,3.38.28,5.08.4,3.35.35,6.89.21,10.34.27h1.31s1.33-.09,1.33-.09l2.66-.17c1.77-.12,3.55-.26,5.32-.41-1.69-.14-3.37-.27-5.06-.37-1.68-.14-3.41-.12-5.05-.35l-4.98-.49c-.82-.09-1.67-.13-2.49-.24l-2.44-.35c-1.63-.24-3.25-.46-4.89-.67l-4.78-.89-2.4-.42-2.34-.54c-1.56-.37-3.13-.69-4.67-1.1l-4.59-1.25c-1.54-.4-2.98-.97-4.49-1.42-1.52-.44-2.96-1-4.42-1.54l-2.19-.81-2.14-.89c-5.68-2.39-11.17-5.1-16.16-8.51Z"/>
              </g>
              <g>
                <polygon class="cls-27" points="819.78 1060.47 838.41 1162.38 763.34 1175.99 752.93 1071.15 819.78 1060.47"/>
                <path class="cls-10" d="M819.78,1060.47l.68,3.75c-16.21,18.61-39.9,27.91-64.93,33.1l-2.6-26.16,66.84-10.69Z"/>
                <path class="cls-53" d="M792.97,925.63c25.5,36.38,49.72,129.97,49.72,129.97,0,0-28.6,18.77-86.25,21.7l-60.44-203.46s71.47,15.41,96.97,51.79Z"/>
                <path class="cls-5" d="M714,934.47c11.22,10.88,21.24,22.58,27.01,36.4,13.89,38.46,37.56,74.47,69.23,97.94-13.62,3.86-31.54,7.36-53.8,8.49l-42.43-142.84Z"/>
                <g>
                  <path class="cls-40" d="M758.53,1005.76c1.12-3.58,2.91-6.91,4.95-10.06,2.07-3.13,4.48-6.05,7.2-8.69,2.69-2.66,5.81-4.9,9.1-6.75.85-.43,1.69-.86,2.54-1.27.86-.39,1.77-.68,2.65-1.02l1.34-.46c.45-.13.92-.23,1.38-.33.92-.2,1.84-.39,2.76-.53-.81.49-1.63.93-2.44,1.36-.4.23-.82.41-1.21.64l-1.16.74c-.77.49-1.57.91-2.31,1.43-.73.53-1.47,1.05-2.21,1.56-2.88,2.15-5.66,4.4-8.22,6.93-2.58,2.5-5.04,5.13-7.41,7.89-2.38,2.75-4.65,5.61-6.95,8.55Z"/>
                  <path class="cls-40" d="M756.97,990.69c2.45-3.73,4.64-7.48,6.59-11.34,1.97-3.84,3.68-7.78,5.09-11.81l.56-1.5.46-1.53c.31-1.02.65-2.04.93-3.07.49-2.08,1.11-4.14,1.46-6.26.96-4.22,1.3-8.53,1.89-12.98,1.02,4.33,1.49,8.88,1.1,13.38-.07,2.27-.53,4.49-.91,6.73-.22,1.11-.56,2.19-.84,3.29-.15.55-.3,1.09-.47,1.64l-.57,1.6c-1.5,4.28-3.56,8.35-6.12,12.07-2.56,3.7-5.55,7.15-9.18,9.8Z"/>
                  <path class="cls-40" d="M835.22,1040.63c-4.07,4.42-9.24,7.75-14.73,10.57-5.51,2.81-11.49,4.97-17.74,6.62-1.57.4-3.19.7-4.78,1.06l-2.4.51-2.47.38-4.95.7c-1.68.15-3.38.28-5.08.4-3.35.35-6.89.21-10.34.27h-1.31s-1.33-.09-1.33-.09l-2.66-.17c-1.77-.12-3.55-.26-5.32-.41,1.69-.14,3.37-.27,5.07-.37,1.68-.14,3.41-.12,5.05-.35l4.98-.49c.82-.09,1.67-.13,2.49-.24l2.44-.35c1.63-.24,3.25-.46,4.89-.67l4.78-.89,2.4-.42,2.34-.54c1.56-.37,3.13-.69,4.67-1.1l4.59-1.25c1.54-.4,2.98-.97,4.49-1.42,1.52-.44,2.96-1,4.42-1.54l2.19-.81,2.14-.89c5.68-2.39,11.17-5.1,16.16-8.51Z"/>
                </g>
              </g>
              <path class="cls-53" d="M768.65,1146.42c-1.1-12.51-2.32-25.77-3.63-39.38-.7-7.17-1.44-14.45-2.19-21.78-.27-2.81-.57-5.61-.87-8.44-.02-.15-.04-.3-.04-.44-.34-3.06-.65-6.12-.99-9.18-3.5-32.29-7.51-64.74-11.94-93-6.08-38.7-12.96-69.53-20.38-81.24-.87-1.37-1.75-2.49-2.64-3.31-5.55-5.19-14.01-9.71-24.08-13.61-6.82-2.66-14.37-5.04-22.26-7.15-13.43-3.62-27.76-6.5-40.94-8.73-20.85-1.88-41.25-2.74-62.3-2.01-16.08,2.38-35.38,5.83-53.15,10.59-19.69,5.28-37.46,12.13-46.85,20.91-.7.65-1.37,1.46-2.07,2.45-27.64,39.71-47.86,346.68-47.86,346.68h349.42s-2.62-39.69-7.24-92.36Z"/>
              <g class="cls-29">
                <g class="cls-50">
                  <g>
                    <path class="cls-36" d="M576.76,1139.05c14.34,1.46,12.09,23.74-2.27,22.28-14.34-1.46-12.09-23.74,2.27-22.28Z"/>
                    <g>
                      <path class="cls-36" d="M711.54,918.22c14.34,1.46,12.09,23.74-2.27,22.28-14.34-1.46-12.09-23.74,2.27-22.28Z"/>
                      <path class="cls-36" d="M633.08,955.97c14.34,1.46,12.09,23.74-2.27,22.28-14.34-1.46-12.09-23.74,2.27-22.28Z"/>
                      <path class="cls-36" d="M709.87,1020.36c14.34,1.46,12.09,23.74-2.27,22.28-14.34-1.46-12.09-23.74,2.27-22.28Z"/>
                      <path class="cls-36" d="M760.64,950.67c14.34,1.46,12.09,23.74-2.27,22.28-14.34-1.46-12.09-23.74,2.27-22.28Z"/>
                      <path class="cls-36" d="M593.12,1039.66c14.34,1.46,12.09,23.74-2.27,22.28-14.34-1.46-12.09-23.74,2.27-22.28Z"/>
                      <path class="cls-36" d="M703.19,1159.42c14.34,1.46,12.09,23.74-2.27,22.28-14.34-1.46-12.09-23.74,2.27-22.28Z"/>
                      <path class="cls-36" d="M667.57,1055.97c14.34,1.46,12.09,23.74-2.27,22.28-14.34-1.46-12.09-23.74,2.27-22.28Z"/>
                      <path class="cls-36" d="M499.46,1065.05c14.34,1.46,12.09,23.74-2.27,22.28-14.34-1.46-12.09-23.74,2.27-22.28Z"/>
                      <path class="cls-36" d="M784.72,994.75c14.34,1.46,12.09,23.74-2.27,22.28-14.34-1.46-12.09-23.74,2.27-22.28Z"/>
                      <path class="cls-36" d="M534.72,963.84c14.34,1.46,12.09,23.74-2.27,22.28-14.34-1.46-12.09-23.74,2.27-22.28Z"/>
                      <path class="cls-36" d="M460.82,917.64c14.34,1.46,12.09,23.74-2.27,22.28-14.34-1.46-12.09-23.74,2.27-22.28Z"/>
                      <path class="cls-36" d="M435.08,1011.08c14.34,1.46,12.09,23.74-2.27,22.28-14.34-1.46-12.09-23.74,2.27-22.28Z"/>
                      <path class="cls-36" d="M756.08,1081.21c14.34,1.46,12.09,23.74-2.27,22.28-14.34-1.46-12.09-23.74,2.27-22.28Z"/>
                      <path class="cls-36" d="M476.86,1127.63c14.34,1.46,12.09,23.74-2.27,22.28-14.34-1.46-12.09-23.74,2.27-22.28Z"/>
                      <path class="cls-36" d="M521.12,901.32c14.34,1.46,12.09,23.74-2.27,22.28-14.34-1.46-12.09-23.74,2.27-22.28Z"/>
                      <path class="cls-36" d="M636.21,1118.89c9.36.95,16.52,9.73,15.56,19.09-.96,9.4-9.7,16.52-19.09,15.56-9.36-.95-16.52-9.73-15.56-19.09.96-9.4,9.7-16.52,19.09-15.56Z"/>
                      <path class="cls-36" d="M767.93,1148.53c9.36.95,16.52,9.73,15.56,19.09-.96,9.4-9.7,16.52-19.09,15.56-9.36-.95-16.52-9.73-15.56-19.09.96-9.4,9.7-16.52,19.09-15.56Z"/>
                      <path class="cls-36" d="M373.01,1007.04c7.63.78,13.46,7.93,12.69,15.56-.78,7.66-7.9,13.47-15.56,12.69-7.63-.78-13.46-7.93-12.69-15.56.78-7.66,7.9-13.47,15.56-12.69Z"/>
                      <path class="cls-36" d="M405.21,1059.69c7.63.78,13.46,7.93,12.69,15.56-.78,7.66-7.9,13.47-15.56,12.69-7.63-.78-13.46-7.93-12.69-15.56.78-7.66,7.9-13.47,15.56-12.69Z"/>
                      <path class="cls-36" d="M678.49,961c9.36.95,16.52,9.73,15.56,19.09-.96,9.4-9.7,16.52-19.09,15.56-9.36-.95-16.52-9.73-15.56-19.09.96-9.4,9.7-16.52,19.09-15.56Z"/>
                      <path class="cls-36" d="M571.14,973.77c9.36.95,16.52,9.73,15.56,19.09-.96,9.4-9.7,16.52-19.09,15.56-9.36-.95-16.52-9.73-15.56-19.09.96-9.4,9.7-16.52,19.09-15.56Z"/>
                      <path class="cls-36" d="M829.42,1004.9c9.36.95,16.52,9.73,15.56,19.09-.96,9.4-9.7,16.52-19.09,15.56-9.36-.95-16.52-9.73-15.56-19.09.96-9.4,9.7-16.52,19.09-15.56Z"/>
                      <path class="cls-36" d="M482.33,866.51c9.36.95,16.52,9.73,15.56,19.09-.96,9.4-9.7,16.52-19.09,15.56-9.36-.95-16.52-9.73-15.56-19.09.96-9.4,9.7-16.52,19.09-15.56Z"/>
                      <path class="cls-36" d="M445.68,1086.23c9.36.95,16.52,9.73,15.56,19.09-.96,9.4-9.7,16.52-19.09,15.56-9.36-.95-16.52-9.73-15.56-19.09.96-9.4,9.7-16.52,19.09-15.56Z"/>
                      <path class="cls-36" d="M549.71,1073.9c9.36.95,16.52,9.73,15.56,19.09-.96,9.4-9.7,16.52-19.09,15.56-9.36-.95-16.52-9.73-15.56-19.09.96-9.4,9.7-16.52,19.09-15.56Z"/>
                      <path class="cls-36" d="M482.33,975.96c9.36.95,16.52,9.73,15.56,19.09-.96,9.4-9.7,16.52-19.09,15.56-9.36-.95-16.52-9.73-15.56-19.09.96-9.4,9.7-16.52,19.09-15.56Z"/>
                      <path class="cls-36" d="M807.74,934.35c9.36.95,16.52,9.73,15.56,19.09-.96,9.4-9.7,16.52-19.09,15.56-9.36-.95-16.52-9.73-15.56-19.09.96-9.4,9.7-16.52,19.09-15.56Z"/>
                      <path class="cls-36" d="M406.32,938.27c9.36.95,16.52,9.73,15.56,19.09-.96,9.4-9.7,16.52-19.09,15.56-9.36-.95-16.52-9.73-15.56-19.09.96-9.4,9.7-16.52,19.09-15.56Z"/>
                      <path class="cls-36" d="M763.62,872.36c9.36.95,16.52,9.73,15.56,19.09-.96,9.4-9.7,16.52-19.09,15.56-9.36-.95-16.52-9.73-15.56-19.09.96-9.4,9.7-16.52,19.09-15.56Z"/>
                      <path class="cls-36" d="M709.15,1076.41c9.36.95,16.52,9.73,15.56,19.09-.96,9.4-9.7,16.52-19.09,15.56-9.36-.95-16.52-9.73-15.56-19.09.96-9.4,9.7-16.52,19.09-15.56Z"/>
                      <path class="cls-36" d="M632.7,1006.27c9.56.97,8.06,15.83-1.51,14.85-9.56-.97-8.06-15.83,1.51-14.85Z"/>
                      <path class="cls-36" d="M662.27,1181.46c9.56.97,8.06,15.83-1.51,14.85-9.56-.97-8.06-15.83,1.51-14.85Z"/>
                      <path class="cls-36" d="M521.42,1143.41c9.56.97,8.06,15.83-1.51,14.85-9.56-.97-8.06-15.83,1.51-14.85Z"/>
                      <path class="cls-36" d="M608.85,1081.19c9.56.97,8.06,15.83-1.51,14.85-9.56-.97-8.06-15.83,1.51-14.85Z"/>
                      <path class="cls-36" d="M526.08,1024.11c9.56.97,8.06,15.83-1.51,14.85-9.56-.97-8.06-15.83,1.51-14.85Z"/>
                      <path class="cls-36" d="M555.53,931.03c9.56.97,8.06,15.83-1.51,14.85-9.56-.97-8.06-15.83,1.51-14.85Z"/>
                      <path class="cls-36" d="M722.41,982.97c9.56.97,8.06,15.83-1.51,14.85-9.56-.97-8.06-15.83,1.51-14.85Z"/>
                      <path class="cls-36" d="M780.03,1040.91c9.56.97,8.06,15.83-1.51,14.85-9.56-.97-8.06-15.83,1.51-14.85Z"/>
                      <path class="cls-36" d="M457.74,1180.59c9.56.97,8.06,15.83-1.51,14.85-9.56-.97-8.06-15.83,1.51-14.85Z"/>
                      <path class="cls-36" d="M439.74,965.4c9.56.97,8.06,15.83-1.51,14.85-9.56-.97-8.06-15.83,1.51-14.85Z"/>
                      <path class="cls-36" d="M682.93,892.86c9.56.97,8.06,15.83-1.51,14.85-9.56-.97-8.06-15.83,1.51-14.85Z"/>
                    </g>
                  </g>
                </g>
              </g>
              <g>
                <path class="cls-13" d="M613.13,956c-.22,6.36-5.56,11.33-11.91,11.11-6.36-.22-11.33-5.56-11.11-11.91.22-6.36,5.56-11.33,11.91-11.11,6.36.22,11.33,5.56,11.11,11.91Z"/>
                <path class="cls-23" d="M612.57,954.92c-.22,6.36-5.56,11.33-11.91,11.11-6.36-.22-11.33-5.56-11.11-11.91.22-6.36,5.56-11.33,11.91-11.11,6.36.22,11.33,5.56,11.11,11.91Z"/>
                <g>
                  <g>
                    <path class="cls-16" d="M602.46,951.81c-.03.76.57,1.39,1.32,1.42.76.03,1.39-.57,1.42-1.32.03-.76-.57-1.39-1.32-1.42-.76-.03-1.39.57-1.42,1.32Z"/>
                    <path class="cls-16" d="M596.43,957.38c-.03.76.56,1.39,1.32,1.42.76.03,1.39-.57,1.42-1.32.03-.76-.57-1.39-1.32-1.42-.76-.03-1.39.56-1.42,1.32Z"/>
                    <rect class="cls-54" x="600.19" y="949.9" width="1.33" height="9.43" rx=".33" ry=".33" transform="translate(312.48 2045.1) rotate(-133)"/>
                    <path class="cls-3" d="M600.18,954.33l-.56.52.89.99.53-.49c-.38-.25-.69-.57-.86-1.02Z"/>
                  </g>
                  <g>
                    <path class="cls-16" d="M599.41,951.7c-.03.76-.66,1.35-1.42,1.32-.76-.03-1.35-.66-1.32-1.42.03-.76.66-1.35,1.42-1.32s1.35.66,1.32,1.42Z"/>
                    <path class="cls-16" d="M605.03,957.68c-.03.76-.66,1.35-1.42,1.32s-1.35-.66-1.32-1.42c.03-.76.66-1.35,1.42-1.32.76.03,1.35.66,1.32,1.42Z"/>
                    <rect class="cls-54" x="600.15" y="949.9" width="1.33" height="9.43" rx=".33" ry=".33" transform="translate(-489.64 666.22) rotate(-43)"/>
                  </g>
                </g>
              </g>
              <path class="cls-1" d="M520.39,924.09c19.75-69.23,61.8-56.32,61.8-56.32,7.2.47,16.17,2.37,23.05,4.07,6.88-1.7,15.86-3.61,23.05-4.07,0,0,42.05-12.91,61.8,56.32,18.28,64.07-73.48,9.97-84.85,3.06-11.38,6.91-103.14,61.02-84.85-3.06Z"/>
              <path class="cls-23" d="M515.21,921.37c19.75-69.23,61.8-56.32,61.8-56.32,7.2.47,16.17,2.37,23.05,4.07,6.88-1.7,15.86-3.61,23.05-4.07,0,0,42.05-12.91,61.8,56.32,18.28,64.07-73.48,9.97-84.85,3.06-11.38,6.91-103.14,61.02-84.85-3.06Z"/>
            </g>
            <g>
              <path class="cls-26" d="M533.75,804.02s14.01,39.4,15.89,82.84c.13,3.02,1.45,5.88,3.65,7.96,16.6,15.65,44.56,19.1,67.28,13.53,9.31-2.2,17.33-6.2,23.78-11.8,2.65-2.3,4.15-5.65,4.24-9.16.86-31.64,3.62-64.97,11.2-72.44,15.24-15.02-126.05-10.92-126.05-10.92Z"/>
              <path class="cls-2" d="M659.8,814.94c-5.85,5.77-8.83,26.96-10.28,50.87-8.19,2.11-16.5,3.79-25.09,4.59-26.02,2.4-51.34,1.49-76.23-1.44-4.1-35.79-14.45-64.94-14.45-64.94,0,0,141.28-4.1,126.05,10.92Z"/>
              <g>
                <g>
                  <path class="cls-38" d="M333.53,240.58c-19.37-13.93-44.98-16.88-68.73-18.24-54.7-3.12-97.23,44.09-118.86,87.86-22.92,46.37-13.89,89.85-3.4,139.09,8.33,39.11,45.21,235.44-38.72,175.69,0,0,32.41,67.34,106.09-5.26,73.69-72.6,131-230.99,67.81-308.42,0,0,103.26,37.12,55.82-70.72Z"/>
                  <path class="cls-30" d="M298.29,226.22c-11.03-2.26-22.46-3.25-33.49-3.88-54.7-3.12-97.23,44.09-118.86,87.86-13.8,27.93-16.01,54.81-13.3,82.53,7.13-41.67,18.47-79.93,46.84-113.88,29.64-36.85,74.55-54.93,118.81-52.62Z"/>
                  <path class="cls-39" d="M173.95,611.03c10.04-56.27-11-106.56-30.53-158.6,7.89,38.18,32.01,172.81-7.49,182.92,14.98,2.71,35.08-8.96,38.01-24.32Z"/>
                  <path class="cls-20" d="M277.72,311.3s2.14.77,5.65,1.76c-16.44-5.63-33.08-14.56-47.38-26.05,3.23,12.97,6.34,25.93,9.75,38.62,13.95,55.4,12.66,110.09,4.96,165.75-5.94,39.02-14.53,76.83-26.87,113.39,66.61-77.59,113.04-220.99,53.89-293.47Z"/>
                  <path class="cls-52" d="M274.25,242.98c-22.3-.18-45.13,5.99-64.04,18.87-9.55,6.28-17.84,14.44-24.73,23.61-.91,1.13-1.69,2.31-2.48,3.49l-2.38,3.55c-1.45,2.44-3.02,4.82-4.37,7.32-1.37,2.48-2.77,4.96-4,7.51-.63,1.27-1.28,2.53-1.89,3.81l-1.77,3.86c-9.18,20.73-14.82,42.79-17.86,65.06-.33,2.79-.73,5.58-.98,8.38-.29,2.79-.58,5.59-.73,8.4-.34,5.62-.5,11.26-.33,16.89.39,11.24,1.96,22.52,5.53,33.12-2.21-10.96-2.89-22.07-2.41-33.11.39-11.05,1.95-22.01,3.82-32.91,1.98-10.88,4.39-21.67,7.52-32.24,1.53-5.3,3.23-10.53,5.06-15.72,1.91-5.16,3.91-10.28,6.19-15.27,4.44-10.02,9.63-19.75,15.95-28.61l2.39-3.28c.78-1.11,1.71-2.09,2.56-3.15,1.68-2.13,3.59-4.05,5.45-6.02,3.86-3.8,7.91-7.45,12.32-10.64,8.74-6.5,18.54-11.63,28.87-15.42,1.27-.53,2.59-.93,3.9-1.36,1.31-.42,2.62-.88,3.94-1.27,2.67-.69,5.32-1.52,8.03-2.07,1.35-.3,2.7-.62,4.06-.9l4.1-.71,2.06-.37,2.07-.27,4.15-.54Z"/>
                  <path class="cls-52" d="M179.68,617.02c1.54-.06,3.02-.63,4.36-1.39.67-.38,1.36-.77,1.94-1.29.59-.5,1.26-.94,1.76-1.54l1.59-1.73,1.34-1.91c.97-1.25,1.57-2.68,2.33-4.05l.55-1.04.43-1.08.84-2.18c.62-1.44,1-2.94,1.41-4.44.94-2.98,1.42-6.03,2-9.08,1.96-12.25,1.83-24.65,1.08-36.91-1.5-24.57-5.85-48.69-10.03-72.72-2.2-12-4.39-23.98-6.4-35.97-2.09-11.98-3.87-23.98-5.26-36.02-.71-6.02-1.17-12.05-1.53-18.09-.4-6.04-.42-12.08-.25-18.12.13-6.04.75-12.06,1.75-18.03,1.03-5.96,2.52-11.86,4.75-17.56-2.84,5.41-4.94,11.23-6.48,17.19-1.54,5.96-2.55,12.06-3.14,18.19-1.16,12.27-.97,24.63-.05,36.87.81,12.26,2.51,24.41,4.26,36.52,1.85,12.1,4,24.12,6.09,36.13,2.21,11.99,4.35,23.97,6.35,35.96,2.02,11.98,3.82,24,5.01,36.03.31,3.01.67,6.02.78,9.03l.26,4.52c.06,1.51.25,3.02.22,4.52.02,3.01.11,6.03.06,9.04l-.23,4.5c-.1,1.5-.1,3.02-.32,4.5-.36,2.98-.61,5.99-1.3,8.9-.29,1.47-.55,2.95-1.05,4.36l-.65,2.15-.32,1.08-.43,1.03c-.61,1.35-1.07,2.81-1.88,4.05l-1.12,1.94-1.36,1.77c-.42.63-1,1.09-1.52,1.64-.51.56-1.12.99-1.73,1.43-1.22.86-2.6,1.58-4.11,1.8Z"/>
                </g>
                <path class="cls-38" d="M304.06,333.2s15.17,32.65,30.44,48.39c15.27,15.75,92.17-96.97,92.17-96.97l-75.2-12.92s-58.84-.53-47.41,61.5Z"/>
                <g>
                  <path class="cls-59" d="M351.35,257.85s-5.31-19.09-20.49-15.07-46.31,17.44-57.7,53.61c-11.39,36.16-12.66,69.9,18.44,54.18,0,0,6.26,26.67,29.65,3.42,0,0,7.75-56.77,38.91-67.89,0,0,11.85.62,14.26-9.38,2.41-9.99-7.98-29.02-23.08-18.87Z"/>
                  <path class="cls-18" d="M372.55,264.45c-.12,3-1.41,5.6-4.46,7.37-34.09,20.02-46.46,47.83-56.23,80.22-1.24,2.32-3.79,2.35-6.32,3.54-4.46,1.68-8.98-1.21-13.03-2.24,2.44,6.17,10.21,19.05,28.74.64,0,0,7.75-56.77,38.91-67.89,0,0,11.85.62,14.26-9.38.85-3.52.1-8.17-1.87-12.26Z"/>
                  <path class="cls-18" d="M351.3,257.66c-.25-.82-1.39-4.3-3.71-7.75-59.54,25.02-46.8,67.95-57.98,75.39-11.74,7.81-21.37-10.32-21.37-10.32,0,0,0,0,0-.01-5.85,27.74-2.28,48.29,22.93,35.82-.84-26.92,7.7-68.06,60.15-93.12Z"/>
                </g>
                <path class="cls-41" d="M328.14,315.09c-.43.31-.86.62-1.29.93.05.12.08.19.08.19.4-.41.81-.78,1.21-1.13Z"/>
                <path class="cls-59" d="M328.14,315.09c.84-.61,1.7-1.21,2.57-1.81-.85.47-1.71,1.07-2.57,1.81Z"/>
              </g>
              <g>
                <g>
                  <path class="cls-38" d="M852.26,234.07c19.02-14.41,44.55-18.01,68.25-19.96,54.61-4.49,98.31,41.64,121.03,84.85,24.07,45.78,16.14,89.48,6.89,138.96-7.34,39.31-39.3,236.5,43.11,174.67,0,0-30.71,68.14-106.19-2.6-75.48-70.73-136.75-227.63-75.52-306.63,0,0-102.3,39.7-57.57-69.3Z"/>
                  <path class="cls-30" d="M887.13,218.84c10.97-2.54,22.37-3.82,33.38-4.72,54.61-4.49,98.31,41.64,121.03,84.85,14.5,27.57,17.38,54.39,15.36,82.17-8.17-41.48-20.47-79.45-49.68-112.67-30.55-36.1-75.9-53.04-120.09-49.63Z"/>
                  <path class="cls-39" d="M1021.08,600.4c-11.45-56,8.33-106.8,26.54-159.32-6.93,38.37-27.67,173.56,12.07,182.68-14.91,3.08-35.29-8.07-38.61-23.36Z"/>
                  <path class="cls-20" d="M909.83,303.38s-2.12.82-5.6,1.9c16.29-6.04,32.71-15.39,46.71-27.22-2.9,13.05-5.69,26.08-8.78,38.85-12.56,55.73-9.9,110.37-.8,165.82,6.91,38.86,16.45,76.44,29.71,112.68-68.54-75.9-118.55-218.09-61.24-292.03Z"/>
                  <path class="cls-52" d="M911.59,234.99l4.16.44,2.08.22,2.06.32,4.12.61c1.37.24,2.72.53,4.08.8,2.73.48,5.4,1.24,8.08,1.87,1.34.35,2.65.78,3.97,1.17,1.32.4,2.65.77,3.93,1.27,10.43,3.53,20.35,8.41,29.25,14.69,4.49,3.08,8.63,6.63,12.58,10.33,1.91,1.92,3.87,3.8,5.6,5.88.87,1.03,1.83,2,2.64,3.08l2.47,3.22c6.54,8.7,11.97,18.3,16.66,28.2,2.4,4.93,4.53,10,6.57,15.11,1.96,5.14,3.79,10.33,5.45,15.59,3.4,10.49,6.07,21.22,8.32,32.04,2.14,10.85,3.98,21.78,4.65,32.81.75,11.03.35,22.15-1.58,33.16,3.31-10.69,4.59-22,4.7-33.25.03-5.63-.27-11.26-.75-16.87-.22-2.81-.58-5.6-.94-8.38-.32-2.79-.79-5.56-1.19-8.35-3.59-22.19-9.79-44.1-19.48-64.59l-1.86-3.82c-.64-1.26-1.33-2.51-1.99-3.76-1.29-2.52-2.76-4.96-4.19-7.41-1.41-2.46-3.04-4.8-4.55-7.21l-2.46-3.49c-.82-1.16-1.63-2.32-2.57-3.43-7.12-9-15.62-16.95-25.32-22.99-19.23-12.4-42.21-17.99-64.5-17.26Z"/>
                  <path class="cls-52" d="M1015.5,606.54c-1.52-.18-2.92-.86-4.16-1.69-.62-.42-1.24-.84-1.76-1.38-.53-.53-1.13-.98-1.56-1.6l-1.4-1.73-1.17-1.91c-.85-1.22-1.34-2.66-1.98-4l-.46-1.02-.35-1.07-.7-2.13c-.53-1.39-.83-2.87-1.16-4.33-.77-2.89-1.1-5.9-1.53-8.86-.26-1.47-.3-2.99-.43-4.49l-.34-4.5c-.12-3.01-.1-6.03-.17-9.04-.06-1.5.08-3.02.1-4.53l.15-4.53c.04-3.02.32-6.03.56-9.05.89-12.05,2.39-24.12,4.11-36.14,1.69-12.04,3.53-24.07,5.44-36.11,1.79-12.06,3.64-24.13,5.19-36.27,1.44-12.15,2.83-24.34,3.34-36.61.61-12.26.49-24.62-.97-36.85-.74-6.11-1.91-12.19-3.59-18.11-1.68-5.92-3.93-11.68-6.9-17.02,2.37,5.63,4.01,11.5,5.19,17.43,1.15,5.94,1.92,11.94,2.2,17.98.33,6.03.45,12.07.21,18.12-.21,6.04-.52,12.09-1.08,18.12-1.08,12.06-2.57,24.11-4.36,36.14-1.71,12.03-3.6,24.07-5.5,36.11-3.58,24.12-7.32,48.35-8.2,72.95-.45,12.27-.26,24.68,2,36.87.66,3.03,1.22,6.07,2.23,9.03.45,1.49.87,2.98,1.52,4.4l.9,2.16.45,1.07.57,1.03c.79,1.35,1.43,2.77,2.43,3.99l1.39,1.88,1.63,1.69c.51.59,1.19,1.01,1.8,1.49.59.51,1.29.87,1.97,1.24,1.36.72,2.86,1.26,4.4,1.28Z"/>
                </g>
                <path class="cls-38" d="M884.05,325.93s-14.35,33.02-29.22,49.14c-14.88,16.12-94.57-94.63-94.57-94.63l74.85-14.8s58.81-2.01,48.94,60.29Z"/>
                <g>
                  <path class="cls-59" d="M834.88,251.78s4.83-19.22,20.11-15.58c15.27,3.64,46.73,16.28,59.02,52.14,12.29,35.87,14.41,69.56-17.08,54.63,0,0-5.59,26.82-29.55,4.16,0,0-9.17-56.56-40.6-66.9,0,0-11.83.91-14.49-9.02-2.66-9.93,7.25-29.21,22.6-19.44Z"/>
                  <path class="cls-18" d="M813.85,258.92c.19,3,1.55,5.56,4.64,7.26,34.58,19.16,47.65,46.65,58.22,78.78,1.3,2.29,3.84,2.26,6.4,3.38,4.5,1.57,8.95-1.43,12.97-2.56-2.28,6.22-9.73,19.3-28.71,1.36,0,0-9.17-56.56-40.6-66.9,0,0-11.83.91-14.49-9.02-.94-3.5-.31-8.16,1.57-12.31Z"/>
                  <path class="cls-18" d="M834.93,251.6c.23-.83,1.29-4.34,3.52-7.84,60.14,23.52,48.49,66.75,59.86,73.91,11.94,7.51,21.11-10.86,21.11-10.86,0,0,0,0,0-.01,6.55,27.58,3.49,48.22-22.02,36.38.16-26.93-9.4-67.85-62.46-91.58Z"/>
                </g>
                <path class="cls-41" d="M859.52,308.43c.44.3.88.6,1.31.9-.05.13-.07.19-.07.19-.41-.4-.83-.76-1.24-1.09Z"/>
                <path class="cls-59" d="M859.52,308.43c-.86-.58-1.73-1.17-2.62-1.74.86.45,1.74,1.02,2.62,1.74Z"/>
              </g>
              <path class="cls-27" d="M319.06,482.98c14.19-69.59,68.24-199.81,273.97-201.27,1.1,0,2.19,0,3.29,0,1.09-.03,2.18-.05,3.29-.07,205.71-3.7,263,125.12,278.94,194.34,5.12,22.23,4.59,45.44-1.46,67.41-18.89,68.52-24.23,143.62-24.23,143.62-26.42,120.52-142.99,162.7-247.1,169.32v.21c-.74-.02-1.48-.05-2.22-.08-.74.04-1.48.09-2.22.13v-.21c-104.24-4.01-221.83-43.25-251.27-163.07,0,0-7.22-74.94-27.83-142.97-6.6-21.8-7.71-45-3.15-67.35Z"/>
              <path class="cls-11" d="M375.32,469.94c21.17-22.36,18.14-59.66,50.14-74.65,79.99-37.49,167.61-46.2,250.64-32.34,90.52,15.81,152.87,89.11,193.93,171.98,7.73,13.47,7.52,44.09-8.72,40.08-22.46-5.85-36.76-31.4-60.37-38.64-11.28-4.28-22.52-7.2-33.67-9.81-16.95-3.96-33.46-9.63-49.1-17.27-53.2-25.98-99.75-61.16-99.75-61.16,5.22,12.58,53.22,61.68,53.22,61.68-73.41-34.11-92.74-97.25-92.74-97.25,5.04,97.77-64.46,100.98-64.46,100.98,30.64-30.4,29.83-93.38,29.83-93.37-35.7,82.28-149.89,66.64-193.17,140.26-8.21-30.4-4.4-61.34,24.21-90.48Z"/>
              <path class="cls-38" d="M368.46,277.33c38.47-33.98,87.32-54.08,137.06-63.88,26.34-5.19,53.57-7.75,80.94-7.69,32.1-1.96,64.27-.3,95.3,5.01,49.97,8.55,99.31,27.41,138.62,60.42,40.81,34.26,63.93,80.4,74.82,130.34,10.08,37.31,11.81,77.57,5,117.93-4.52,26.85-11.82,53.25-21.34,78.72-1.04,2.78-14.36,28.6-12.98,30.64-.02-.02-12.88-18.95-12.88-18.95-4.73-44.52-51.73-87.91-51.73-87.91-74.6-10.27-176.53-87.31-176.53-87.31,5.22,12.58,53.22,61.68,53.22,61.68-73.41-34.11-92.74-97.25-92.74-97.25,5.04,97.77-64.46,100.98-64.46,100.98,30.64-30.4,29.83-93.38,29.83-93.37-36.1,83.19-152.44,66.26-194.59,142.72-13.32,24.17-14.93,53-13.66,80.57-27.22-18.63-39.41-52.53-45.48-84.95-17.27-92.22-2-202.69,71.59-267.69Z"/>
              <path class="cls-20" d="M895.92,464.49c-22.1,22.21-48.92,32.48-77.74,35.35,9.14,14.48,10.94,34.09,13.67,51.84-7.81-20.82-22.4-36.56-38.25-51.08-31.14-.97-63.65-8.69-94.38-18.01,32.12,17.87,69.66,34.91,102.05,39.37,0,0,47,43.39,51.73,87.91,0,0,12.86,18.93,12.88,18.95-1.39-2.04,11.94-27.87,12.98-30.64,1.07-2.87,2.11-5.76,3.13-8.65,2.65-17.8,7.57-35.5,9.86-53.86,2.7-22.93,6.3-47.68,4.06-71.19Z"/>
              <path class="cls-20" d="M343.86,567.68c-3.29-13.14-2.67-25.85.26-38.21-9.8.97-19.84-2.07-27.93-9.17-5.83-5.06-11.11-10.6-15.86-16.52-.75,22.93.51,45.78,3.28,68.36,7.34,23.02,19.13,44.4,38.75,57.82-1.27-27.57.33-56.4,13.66-80.57,12.21-22.15,30.66-36.46,51.58-47.64-7.82,1.79-15.5,4.3-22.96,7.62-19.07,15.18-36.5,32.69-40.77,58.3Z"/>
              <path class="cls-39" d="M743.14,305c-4.52,5.42-12.13,6.61-19.05,6.76-19.35.43-38.78-4.4-55.83-13.89,7.59,4.58,7.82,16.72,2.52,23.97s-14.14,10.6-22.63,12.88c-16.45,4.42-33.56,6.22-50.53,5.3-7.89-.42-16.14-1.58-22.54-6.37-6.4-4.79-10.16-14.24-6.42-21.44-29.21,25.22-71.14,33.72-107.42,21.77-2.35-.77-4.91-1.84-5.95-4.15-1.07-2.38-.12-5.18,1.07-7.49,4.61-8.89,13.03-15.57,22.54-17.86-8.89.28-17.33,3.85-26,5.87-8.67,2.02-18.54,2.25-25.62-3.34-7.07-5.58-8.58-18.62-1.01-23.42-8.8,4.05-17.48,9.28-23,17.44-5.52,8.16-7.1,19.82-1.6,28s18.94,9.95,24.68,1.96c-7.38,16.03,2.44,36.34,17.62,44.65,15.18,8.31,33.67,7.02,50.24,2.36,24.21-6.81,46.58-20.44,64.08-39.03-.95,18.41,18.54,30.24,35.68,35.33,20.57,6.1,42.04,8.97,63.43,8.48,14.31-.33,29.48-2.53,40.48-11.99,11-9.46,15.46-28.27,5.87-39.27,22.55,9.85,47.92,12.65,71.97,7.96,14.79-2.89,32.32-14.93,27.31-29.62-2.59-7.61-10.35-11.74-17.43-15.13-10.86-5.19-30.57-20.07-42.6-15.08,2.82,7.5,6.25,18.1.13,25.34Z"/>
              <g class="cls-37">
                <circle class="cls-12" cx="756.88" cy="695.27" r="67.91" transform="translate(-269.95 738.83) rotate(-45)"/>
              </g>
              <g class="cls-46">
                <circle class="cls-42" cx="723.1" cy="606.58" r="67.91" transform="translate(-217.12 688.97) rotate(-45)"/>
              </g>
              <path class="cls-38" d="M692.31,538.3c-1.81,1.23-4.2-.5-3.52-2.58,0-.02.01-.04.02-.06.63-1.93,1.44-3.82,2.45-5.62,2-3.62,4.78-6.9,8.15-9.66,3.38-2.76,7.43-4.9,11.79-6.14,4.35-1.26,8.95-1.6,13.35-1.18,4.4.41,8.65,1.5,12.49,3.18,1.98.75,3.76,1.8,5.57,2.77,1.76,1.04,3.43,2.22,5.05,3.4,6.34,4.95,11.54,10.95,14.95,18.28-7.77-2.25-14.46-5.09-21-7.31l-4.82-1.55c-1.6-.42-3.14-.97-4.69-1.3-3.08-.83-6.09-1.33-9.02-1.62-5.86-.59-11.38.01-17.23,2.15-4.42,1.61-8.88,4.06-13.54,7.23Z"/>
              <g class="cls-63">
                <circle class="cls-43" cx="460.85" cy="606.58" r="67.91" transform="translate(-26.85 21.37) rotate(-2.58)"/>
              </g>
              <path class="cls-38" d="M495.64,538.3c1.81,1.23,4.2-.5,3.52-2.58,0-.02-.01-.04-.02-.06-.63-1.93-1.44-3.82-2.45-5.62-2-3.62-4.78-6.9-8.15-9.66-3.38-2.76-7.43-4.9-11.79-6.14-4.35-1.26-8.95-1.6-13.35-1.18-4.4.41-8.65,1.5-12.49,3.18-1.98.75-3.76,1.8-5.57,2.77-1.76,1.04-3.43,2.22-5.05,3.4-6.34,4.95-11.54,10.95-14.95,18.28,7.77-2.25,14.46-5.09,21-7.31l4.82-1.55c1.6-.42,3.14-.97,4.69-1.3,3.08-.83,6.09-1.33,9.02-1.62,5.86-.59,11.38.01,17.23,2.15,4.42,1.61,8.88,4.06,13.54,7.23Z"/>
              <g class="cls-32">
                <circle class="cls-19" cx="450.9" cy="706.05" r="67.91" transform="translate(-386.85 703.93) rotate(-57.29)"/>
              </g>
              <g>
                <g class="cls-44">
                  <path class="cls-7" d="M599.8,638.97s-5.43,28.46,20.23,45.02c0,0,8.84,7.36-7.76,16.3-16.59,8.94-45.52,7.53-45.52,7.53,0,0-43.17-52.1,33.04-68.85Z"/>
                </g>
                <path class="cls-61" d="M599.8,638.97c-1.17,4.43-1.55,9.03-1.54,13.66.11,4.62.69,9.33,2.2,13.9,1.48,4.55,3.9,9.04,7.56,12.6,1.79,1.78,3.94,3.3,6.12,4.51,1.69.92,3.2,2.05,3.91,3.19.7,1.12.83,2.01.31,3.39-.46,1.36-1.71,2.85-3.11,4.16-2.88,2.69-6.66,4.8-10.54,6.59-7.87,3.52-16.55,5.53-25.62,6.16,8.89,2.16,18.5,1.56,27.48-1.29,4.48-1.5,8.89-3.48,12.83-6.73,1.93-1.66,3.84-3.59,5.04-6.45.63-1.38.9-3.11.81-4.8-.15-1.73-.79-3.36-1.66-4.69-.44-.65-.94-1.22-1.44-1.78-.53-.48-1.05-1-1.6-1.42-.55-.39-1.1-.81-1.66-1.16l-1.7-.96c-1.8-.92-3.37-1.99-4.87-3.3-2.97-2.59-5.26-6.06-7-9.89-1.73-3.84-3-8.04-3.82-12.37-.89-4.33-1.39-8.78-1.69-13.33Z"/>
              </g>
              <path class="cls-57" d="M745.08,255.64c8.83,4.19,17.15,9.26,25.16,14.71,8.02,5.44,15.69,11.37,23.03,17.64,7.29,6.33,14.34,12.94,20.91,20,6.6,7.03,12.96,14.29,18.75,22,1.52,1.87,2.89,3.86,4.34,5.78,1.44,1.93,2.87,3.87,4.21,5.88l4.07,5.98c1.29,2.04,2.56,4.09,3.87,6.11,1.34,2.01,2.56,4.09,3.78,6.17,1.22,2.08,2.48,4.14,3.67,6.25l3.45,6.37c.58,1.06,1.19,2.11,1.74,3.18l1.63,3.24c8.77,17.26,16.15,35.26,22.6,53.72-3.9-19.17-10.05-37.93-18.13-55.87-7.98-18-18.28-34.98-30.22-50.7l-4.61-5.79-4.8-5.64c-1.58-1.9-3.29-3.68-4.95-5.51l-2.5-2.73c-.85-.89-1.74-1.75-2.61-2.63-6.97-6.98-14.28-13.65-22.1-19.66-7.77-6.07-15.99-11.55-24.52-16.44-8.58-4.78-17.44-9.17-26.8-12.07Z"/>
              <path class="cls-57" d="M815.1,324.23c8,10.99,15.27,22.38,22.06,34.03,6.77,11.66,13.01,23.61,18.49,35.89l2.12,4.58c.71,1.53,1.3,3.1,1.95,4.65l3.84,9.33c2.3,6.32,4.81,12.57,6.77,19.02,4.42,12.75,7.45,25.89,10.68,39.12-1.12-13.53-3.11-27.12-6.87-40.26l-1.3-4.96c-.41-1.66-1.04-3.25-1.55-4.88l-3.22-9.74c-1.19-3.2-2.51-6.36-3.76-9.54-.65-1.58-1.23-3.19-1.93-4.75l-2.11-4.67c-2.79-6.24-5.96-12.3-9.15-18.34l-5.14-8.87c-1.74-2.94-3.63-5.79-5.46-8.66-7.5-11.39-15.8-22.31-25.42-31.95Z"/>
              <path class="cls-57" d="M390.92,283.13c-7.16,5.73-13.61,12.31-19.82,19.07-6.14,6.84-11.94,13.99-17.33,21.45-5.44,7.42-10.4,15.2-15.1,23.12-4.66,7.95-8.83,16.18-12.73,24.53-3.85,8.38-7.23,16.97-10.25,25.67l-2.17,6.56-1.96,6.63c-1.37,4.4-2.36,8.9-3.49,13.36-4.09,17.95-6.43,36.28-6.62,54.6,2.3-18.17,5.72-36.09,10.47-53.62,2.57-8.71,5.08-17.44,8.32-25.92,3.11-8.52,6.46-16.95,10.33-25.15,7.49-16.52,16.43-32.36,26.46-47.51,5.04-7.55,10.34-14.96,15.98-22.1,5.64-7.15,11.53-14.13,17.92-20.67Z"/>
              <path class="cls-57" d="M374.36,329.76c-5.35,5.91-9.95,12.49-14.32,19.17l-3.2,5.07-3.03,5.17c-2.08,3.42-3.86,7-5.74,10.53-1.93,3.51-3.58,7.15-5.28,10.77-.83,1.82-1.73,3.61-2.51,5.45l-2.34,5.52c-1.57,3.68-3.09,7.38-4.42,11.15-1.36,3.76-2.8,7.49-4.1,11.27-2.36,7.64-4.92,15.22-6.82,22.99l-1.5,5.8c-.49,1.94-1.03,3.86-1.41,5.82-.85,3.9-1.66,7.81-2.44,11.73-.39,1.96-.82,3.9-1.17,5.87l-.93,5.92-1.77,11.83c-.31,1.97-.46,3.96-.66,5.94l-.56,5.95c-.35,3.97-.7,7.94-.97,11.9.84-3.9,1.61-7.8,2.37-11.7.8-3.89,1.38-7.82,2.29-11.68l2.58-11.61,1.25-5.81c.44-1.93.97-3.84,1.45-5.76.99-3.83,1.96-7.67,2.89-11.51.44-1.93,1.03-3.82,1.57-5.72l1.65-5.7c2.02-7.64,4.59-15.12,6.99-22.64,1.24-3.75,2.63-7.45,3.94-11.17.68-1.85,1.28-3.74,2.03-5.56l2.18-5.51,2.15-5.52c.71-1.84,1.55-3.63,2.32-5.45,1.6-3.61,3.06-7.29,4.77-10.85,1.66-3.58,3.3-7.18,5.11-10.7l2.64-5.32,2.81-5.23c3.74-6.98,7.72-13.84,12.18-20.43Z"/>
              <path class="cls-49" d="M779.5,517.38c-11.04-5.49-22.02-10.7-32.96-15.98-10.95-5.23-21.82-10.56-32.65-15.96-5.45-2.63-10.79-5.47-16.21-8.15l-8.05-4.18-4.05-2.06-4.01-2.14c-2.67-1.43-5.37-2.81-8.07-4.21-2.65-1.47-5.33-2.9-8.03-4.32l-4.06-2.11c-1.34-.73-2.66-1.48-4.02-2.19-2.7-1.45-5.41-2.88-8.2-4.23,2.21,2.15,4.49,4.21,6.79,6.26,1.14,1.04,2.31,2.04,3.48,3.05,1.19.98,2.4,1.92,3.61,2.88,2.42,1.89,4.86,3.78,7.33,5.63,2.5,1.79,5.04,3.53,7.59,5.26l3.83,2.58,3.92,2.43c2.61,1.62,5.25,3.21,7.9,4.78l8.08,4.47c2.69,1.49,5.46,2.83,8.2,4.23,11.02,5.48,22.34,10.34,33.94,14.43,11.6,4.06,23.44,7.55,35.63,9.54Z"/>
              <path class="cls-49" d="M680.4,492.81c-2.58-1.76-5.17-3.93-7.67-6.21-2.5-2.29-4.97-4.69-7.38-7.17-4.86-4.92-9.58-10.05-14.21-15.28-4.72-5.16-9.26-10.49-13.92-15.74l-6.93-7.94-6.98-7.94c1.73,3.08,3.53,6.12,5.39,9.11,1.84,3.01,3.74,5.98,5.69,8.92,3.84,5.92,7.94,11.67,12.1,17.39,2.76,3.67,5.58,7.31,8.49,10.9-1.46-.98-2.93-1.94-4.36-2.96-4.54-3.26-8.97-6.7-13.21-10.36-4.27-3.63-8.38-7.46-12.32-11.47-7.94-7.96-15.16-16.67-21.79-25.88-6.59-9.24-12.53-19-18.07-29.13,3.39,11.03,8.12,21.69,13.85,31.82,1.42,2.54,2.97,5.01,4.49,7.5,1.59,2.45,3.2,4.88,4.94,7.23,3.4,4.75,7.02,9.37,10.93,13.74,7.76,8.8,16.53,16.73,26.02,23.69,4.76,3.47,9.7,6.69,14.85,9.6,2.58,1.44,5.18,2.86,7.87,4.13,1.34.64,2.7,1.26,4.07,1.85,1.41.6,2.71,1.14,4.32,1.72l31.47,11.25-27.62-18.8Z"/>
              <path class="cls-49" d="M587.63,402.35c-.48-6.27-1.25-12.52-2.6-18.64.18,12.5-.62,24.91-2.33,37.08-.22,1.52-.44,3.04-.73,4.54-.27,1.51-.52,3.02-.84,4.51-.55,3.01-1.26,5.97-1.98,8.92l-1.23,4.38c-.42,1.45-.94,2.87-1.4,4.31-.43,1.45-1.01,2.83-1.52,4.24l-.79,2.11-.9,2.05c-2.37,5.47-5.17,10.73-8.65,15.44-3.46,4.71-7.48,8.93-12.01,12.47-4.53,3.57-9.72,6.2-15.13,8.25l-4.12,1.42-4.26,1.02c.17-.29.35-.58.52-.88,1.75-2.99,3.39-6.03,4.93-9.12,3.07-6.19,5.94-12.48,8.25-18.99,1.1-3.28,2.24-6.53,3.13-9.87.49-1.65.93-3.32,1.27-5.02.36-1.69.75-3.37,1.08-5.06,1.21-6.8,1.69-13.71,1.27-20.51-.93,6.77-2.45,13.32-4.46,19.72-1.12,3.17-2.15,6.34-3.47,9.42-1.18,3.12-2.6,6.16-3.97,9.2-2.94,6-5.97,11.95-9.41,17.67-1.72,2.86-3.46,5.7-5.27,8.49-1.79,2.77-3.72,5.58-5.58,8.14l-5.52,7.57,9.21-1.04,4.89-.55,2.45-.28c.81-.13,1.62-.33,2.42-.5l4.84-1.06,4.75-1.52c1.61-.44,3.11-1.18,4.64-1.85,1.52-.7,3.09-1.29,4.51-2.18,1.45-.84,2.93-1.64,4.35-2.52l4.08-2.94c5.28-4.14,9.86-9.09,13.63-14.53,3.83-5.41,6.67-11.37,8.99-17.42,2.3-6.07,3.96-12.32,5.11-18.61.54-3.15,1.05-6.3,1.4-9.46.22-1.58.29-3.17.42-4.75.14-1.58.21-3.16.28-4.75.32-6.33.17-12.65-.27-18.92Z"/>
              <path class="cls-49" d="M552.82,401.24c-2.23,5.88-5.69,11-9.4,15.82-3.84,4.74-7.87,9.26-12.36,13.35-2.24,2.05-4.38,4.17-6.8,6.03l-3.51,2.89-1.74,1.46-1.85,1.34c-2.47,1.78-4.89,3.61-7.34,5.41l-7.64,5.03c-1.27.84-2.51,1.73-3.81,2.53l-3.96,2.32-7.87,4.75-16.21,8.85c-2.76,1.38-5.52,2.78-8.27,4.21l-4.12,2.16c-1.37.74-2.74,1.48-4.15,2.12-5.6,2.7-11.19,5.48-16.71,8.57,6.16-1.27,12.25-2.85,18.33-4.51,3.05-.82,5.98-1.96,8.96-2.97,2.97-1.05,5.94-2.13,8.89-3.23,2.96-1.09,5.8-2.49,8.69-3.77,2.88-1.3,5.75-2.63,8.61-4.01l8.33-4.61,4.14-2.36c1.36-.82,2.67-1.73,4.01-2.6,2.64-1.79,5.3-3.54,7.91-5.36,2.5-1.99,5.02-3.96,7.5-5.98l1.85-1.52,1.76-1.64,3.48-3.31c1.14-1.13,2.36-2.15,3.39-3.4l3.19-3.61c4.24-4.81,7.89-10.18,10.97-15.8l2.09-4.34c.64-1.47,1.17-3,1.72-4.49.51-1.52.91-3.08,1.3-4.61l.42-2.35c.09-.79.2-1.58.2-2.37Z"/>
              <g>
                <path class="cls-34" d="M536.85,747.17c10.31,4.49,20.68,8.08,31.14,10.84,10.46,2.71,21.02,4.55,31.59,4.91,5.28.21,10.57.12,15.83-.45,5.25-.55,10.5-1.38,15.67-2.76,2.62-.56,5.14-1.5,7.74-2.25,2.52-.98,5.13-1.76,7.62-2.93,5.13-1.97,9.98-4.75,15.04-7.36-4.09,4.26-8.55,8.16-13.41,11.35-2.38,1.72-4.94,3.02-7.46,4.47-1.28.66-2.6,1.24-3.9,1.85l-1.97.9-2.01.76c-5.33,2.15-10.89,3.5-16.49,4.42-5.6.94-11.28,1.16-16.92.96-11.29-.4-22.43-2.99-33-7.12-5.28-2.09-10.43-4.57-15.38-7.47-4.92-2.96-9.75-6.16-14.09-10.13Z"/>
                <g>
                  <path class="cls-34" d="M543.6,736.76c1.4,3.23,1.08,6.62.14,9.6-.48,1.5-1.26,2.85-2.25,3.96-.52.54-1.01,1.09-1.54,1.58-.55.48-1.07.98-1.58,1.47-2.12,1.89-4.39,3.48-6.82,4.51-.59.3-1.2.53-1.82.72l-1.83.61c-1.23.33-2.49.53-3.71.75l-.2-.71c1.05-.76,2.1-1.44,3.1-2.19.96-.85,1.98-1.5,2.84-2.42l1.33-1.27c.42-.44.81-.93,1.21-1.39.42-.44.81-.89,1.16-1.39.36-.49.74-.95,1.07-1.46.32-.52.62-1.04.91-1.58.28-.54.49-1.13.74-1.68.46-1.11,1.02-2.11,1.68-3.07.68-.95,1.37-1.92,2.19-2.92.79-1.01,1.65-2.05,2.74-3.2l.65.08Z"/>
                  <path class="cls-34" d="M655.37,736.68c1.09,1.16,1.94,2.2,2.74,3.2.81,1,1.5,1.97,2.19,2.92.66.96,1.21,1.96,1.68,3.07.24.55.46,1.14.74,1.68.28.54.59,1.06.91,1.58.33.51.71.96,1.07,1.46.35.5.74.96,1.16,1.39.4.46.79.94,1.21,1.39l1.33,1.27c.86.93,1.89,1.58,2.84,2.42,1,.75,2.05,1.43,3.1,2.19l-.2.71c-1.22-.22-2.47-.42-3.71-.75l-1.83-.61c-.62-.19-1.23-.42-1.82-.72-2.43-1.03-4.7-2.62-6.82-4.51-.51-.49-1.03-.99-1.58-1.47-.53-.49-1.02-1.05-1.54-1.58-.99-1.11-1.78-2.46-2.25-3.96-.94-2.98-1.26-6.38.14-9.6l.65-.08Z"/>
                </g>
              </g>
              <g>
                <path class="cls-27" d="M379.14,640.75c-3.89-18.58-16.26-34.52-33.78-41.83-16.91-7.06-44.59-11.02-67.69,15.11-46.19,52.25,14.48,133.83,86.77,111.47,0,0,27.18-25.07,14.69-84.74Z"/>
                <g>
                  <g class="cls-31">
                    <path class="cls-22" d="M341.84,655.65c-1.18-9.67-6.36-19.69-15.51-23.02-11.32-4.13-24.53,4.34-28.26,15.8-3.73,11.46.33,24.3,7.55,33.94,6.63,8.86,18.39,16.06,28.43,11.43,7.68-3.54,11.18-12.75,11.32-21.2.14-8.45-3.54-16.95-3.54-16.95Z"/>
                  </g>
                  <path class="cls-34" d="M346,653.37c-.81-4.03-2.31-8.03-4.54-11.65-1.12-1.81-2.47-3.48-3.92-5.06-.78-.73-1.55-1.48-2.36-2.17-.85-.64-1.66-1.34-2.56-1.9-.91-.54-1.77-1.16-2.73-1.62l-1.43-.71-.71-.34s-.41-.18-.53-.22l-.46-.15c-2.28-.67-4.48-.82-6.68-.67-2.19.18-4.29.73-6.27,1.49-1.94.86-3.78,1.87-5.37,3.16-3.2,2.55-5.71,5.69-7.55,9.11,3.01-2.47,6.02-4.76,9.32-6.26,1.61-.81,3.31-1.31,4.96-1.73,1.69-.31,3.36-.49,5-.39,1.62.09,3.26.45,4.61.99l.21.1c.11.05-.04-.02.12.08l.55.34,1.09.66c.74.41,1.4.98,2.1,1.46,2.72,2.05,5,4.56,6.76,7.45,1.36,2.17,2.43,4.53,3.27,7.02-.46-.42-.91-.84-1.41-1.2-3.04-2.2-6.79-2.98-10.14-2.55-3.36.44-6.5,1.82-8.93,4.15,3.2-.35,6.2-.45,9.01-.09,2.81.35,5.36,1.26,7.54,2.83,1.09.78,2.1,1.71,3.05,2.78.92,1.1,1.81,2.28,2.61,3.61.18.28.33.6.51.89.11.9.19,1.81.26,2.72.53,7.33.16,14.88-.65,22.58,3.57-6.93,5.52-14.66,6.05-22.62.22-3.99,0-8.05-.8-12.09Z"/>
                </g>
              </g>
              <g>
                <path class="cls-27" d="M822.24,635.04c3.42-18.67,15.39-34.92,32.72-42.66,16.73-7.48,44.3-12.14,68.04,13.4,47.48,51.08-11.12,134.15-83.95,113.61,0,0-27.8-24.38-16.81-84.35Z"/>
                <g>
                  <g class="cls-60">
                    <path class="cls-9" d="M859.9,649c.94-9.7,5.86-19.84,14.93-23.4,11.21-4.41,24.63,3.73,28.65,15.09,4.01,11.36.28,24.3-6.7,34.12-6.41,9.02-17.98,16.52-28.14,12.14-7.76-3.34-11.5-12.46-11.85-20.91-.35-8.45,3.12-17.04,3.12-17.04Z"/>
                  </g>
                  <path class="cls-34" d="M856.21,646.69c.81-4.03,2.31-8.03,4.54-11.65,1.12-1.81,2.47-3.48,3.92-5.06.78-.73,1.55-1.48,2.36-2.17.85-.64,1.66-1.34,2.56-1.9.91-.54,1.77-1.16,2.73-1.62l1.43-.71.71-.34s.41-.18.53-.22l.46-.15c2.28-.67,4.48-.82,6.68-.67,2.19.18,4.29.73,6.27,1.49,1.94.86,3.78,1.87,5.37,3.16,3.2,2.55,5.71,5.69,7.55,9.11-3.01-2.47-6.02-4.76-9.32-6.26-1.61-.81-3.31-1.31-4.96-1.73-1.69-.31-3.36-.49-5-.39-1.62.09-3.26.45-4.61.99l-.21.1c-.11.05.04-.02-.12.08l-.55.34-1.09.66c-.74.41-1.4.98-2.1,1.46-2.72,2.05-5,4.56-6.76,7.45-1.36,2.17-2.43,4.53-3.27,7.02.46-.42.91-.84,1.41-1.2,3.04-2.2,6.79-2.98,10.14-2.55,3.36.44,6.5,1.82,8.93,4.15-3.2-.35-6.2-.45-9.01-.09-2.81.35-5.36,1.26-7.54,2.83-1.09.78-2.1,1.71-3.05,2.78-.92,1.1-1.81,2.28-2.61,3.61-.18.28-.33.6-.51.89-.11.9-.19,1.81-.26,2.72-.53,7.33-.16,14.88.65,22.58-3.57-6.93-5.52-14.66-6.05-22.62-.22-3.99,0-8.05.8-12.09Z"/>
                </g>
              </g>
              <g>
                <path class="cls-66" d="M613.13,401.24c12.13,12.74,25.54,24,39.58,34.3,7.03,5.14,14.25,10,21.62,14.61l11.18,6.7c3.8,2.11,7.67,4.09,11.5,6.14,3.77,2.17,7.75,3.92,11.68,5.77l5.9,2.77c.99.45,1.96.94,2.96,1.37l3.03,1.21,12.09,4.92c1.99.88,4.08,1.5,6.14,2.2l6.18,2.12c8.18,3.05,16.65,5.13,25.06,7.54,4.17,1.37,8.5,2.04,12.76,3.05,4.28.94,8.56,1.93,12.85,2.96-4.37-.4-8.75-.83-13.13-1.32-4.37-.53-8.8-.85-13.11-1.81l-12.99-2.6c-4.38-.73-8.56-2.2-12.83-3.35-4.24-1.27-8.57-2.28-12.71-3.85l-12.47-4.61-3.11-1.17c-1.02-.42-2.02-.91-3.03-1.36l-6.05-2.76c-4.03-1.85-8.11-3.59-11.98-5.77-15.79-8.07-30.65-17.93-44.4-29.08-13.71-11.15-26.49-23.63-36.73-37.99Z"/>
                <path class="cls-66" d="M558.26,383.71c2.06,8.74,2.71,17.68,2.81,26.61.02,8.93-.69,17.89-2.3,26.75-1.61,8.84-4.09,17.62-7.92,25.88-3.78,8.21-9.08,16.06-16.26,21.51,4.63-7.67,7.92-15.55,10.39-23.78,2.54-8.17,4.36-16.57,5.92-25.04,1.55-8.48,2.78-17.06,3.91-25.71,1.17-8.65,2.17-17.36,3.45-26.22Z"/>
                <path class="cls-66" d="M544.55,383.71c-.52,6.84-2.71,13.49-5.39,19.84-2.68,6.39-6.26,12.36-10.18,18.09-7.97,11.39-18.04,21.19-29.03,29.57-2.8,2.02-5.55,4.14-8.4,6.08l-8.85,5.37c-1.49.86-2.95,1.78-4.47,2.59l-4.62,2.29c-3.07,1.55-6.17,3.03-9.28,4.48-6.31,2.7-12.78,4.97-19.19,7.31-6.6,1.82-13.18,3.66-19.82,5.13,6.08-3.16,12.23-5.96,18.35-8.77l17.89-9.26c2.88-1.72,5.76-3.41,8.67-5.03l4.35-2.46c1.42-.86,2.78-1.83,4.17-2.74l8.35-5.44c2.72-1.89,5.32-3.94,7.99-5.9,10.5-8.02,20.43-16.83,28.93-26.98,4.13-5.14,8.26-10.37,11.64-16.1,3.54-5.65,6.61-11.62,8.86-18.05Z"/>
              </g>
              <g>
                <g>
                  <g>
                    <ellipse class="cls-61" cx="456.65" cy="599.56" rx="29.31" ry="24.76" transform="translate(-145.98 1052.16) rotate(-89.61)"/>
                    <path class="cls-61" d="M491.09,583.2c-3.36-5.6-8.46-9.98-14.25-13.22-5.82-3.2-12.6-5.07-19.5-5.07-6.89,0-13.77,1.99-19.5,5.44-5.73,3.49-10.49,8.19-13.71,13.82,5.82-2.86,11.25-5.5,16.74-7.33,5.48-1.84,10.97-2.79,16.49-2.82,5.52,0,11.09.89,16.69,2.53,5.61,1.65,11.2,3.9,17.03,6.64Z"/>
                  </g>
                  <circle class="cls-62" cx="456.67" cy="596.69" r="16.75" transform="translate(-191.92 217.32) rotate(-22.25)"/>
                  <path class="cls-36" d="M450.99,580.55c-.93,3.37,1.05,6.85,4.42,7.78,3.37.93,6.85-1.05,7.78-4.42.93-3.37-1.05-6.86-4.42-7.78s-6.86,1.05-7.78,4.42Z"/>
                </g>
                <path class="cls-61" d="M443.83,581.11c-.85.09-1.09.03-1.55.02-.41-.03-.77-.08-1.15-.13-.72-.12-1.42-.26-2.08-.43-1.33-.34-2.56-.78-3.75-1.27-2.37-.98-4.5-2.21-6.5-3.54-2.01-1.31-3.84-2.81-5.6-4.31l-2.54-2.36-2.39-2.46,3.11,1.38,3.14,1.21c2.11.71,4.21,1.37,6.33,1.79,2.1.44,4.19.72,6.19.73.99,0,1.96-.04,2.86-.18.45-.06.87-.15,1.27-.25.17-.06.37-.11.52-.18.1-.05.41-.15.12-.16l2.03,10.15Z"/>
                <path class="cls-61" d="M451.55,579.19c-.63-.1-.84-.19-1.2-.29-.34-.1-.62-.21-.93-.32-.59-.23-1.15-.47-1.69-.73-1.08-.52-2.08-1.1-3.03-1.72-1.91-1.24-3.6-2.66-5.13-4.16-1.51-1.53-2.87-3.14-4.05-4.83-.62-.82-1.13-1.72-1.68-2.56-.51-.88-.99-1.77-1.47-2.64.81.59,1.6,1.19,2.41,1.75.84.52,1.63,1.09,2.49,1.54,1.67.97,3.41,1.76,5.14,2.4,1.75.61,3.5,1.07,5.21,1.29.85.12,1.7.18,2.5.18.4,0,.8-.02,1.16-.06.18-.02.37-.04.52-.07.12-.03.39-.06.25-.12l-.5,10.34Z"/>
              </g>
              <g>
                <g>
                  <g>
                    <ellipse class="cls-61" cx="727.17" cy="599.56" rx="24.76" ry="29.31" transform="translate(-4.03 4.92) rotate(-.39)"/>
                    <path class="cls-61" d="M692.72,583.2c3.36-5.6,8.46-9.98,14.25-13.22,5.82-3.2,12.6-5.07,19.5-5.07,6.89,0,13.77,1.99,19.5,5.44,5.73,3.49,10.49,8.19,13.71,13.82-5.82-2.86-11.25-5.5-16.74-7.33-5.48-1.84-10.97-2.79-16.49-2.82-5.52,0-11.09.89-16.69,2.53-5.61,1.65-11.2,3.9-17.03,6.64Z"/>
                  </g>
                  <path class="cls-62" d="M743.9,596.58c.06,9.25-7.39,16.8-16.64,16.86-9.25.06-16.8-7.39-16.86-16.64s7.39-16.8,16.64-16.86c9.25-.06,16.8,7.39,16.86,16.64Z"/>
                  <path class="cls-36" d="M732.83,580.55c.93,3.37-1.05,6.85-4.42,7.78-3.37.93-6.86-1.05-7.78-4.42-.93-3.37,1.05-6.86,4.42-7.78,3.37-.93,6.86,1.05,7.78,4.42Z"/>
                </g>
                <path class="cls-61" d="M739.98,581.11c.85.09,1.09.03,1.55.02.41-.03.77-.08,1.15-.13.72-.12,1.42-.26,2.08-.43,1.33-.34,2.56-.78,3.75-1.27,2.37-.98,4.5-2.21,6.5-3.54,2.01-1.31,3.84-2.81,5.6-4.31l2.54-2.36,2.39-2.46-3.11,1.38-3.14,1.21c-2.11.71-4.21,1.37-6.33,1.79-2.1.44-4.19.72-6.19.73-.99,0-1.96-.04-2.86-.18-.45-.06-.87-.15-1.27-.25-.17-.06-.37-.11-.52-.18-.1-.05-.41-.15-.12-.16l-2.03,10.15Z"/>
                <path class="cls-61" d="M732.27,579.19c.63-.1.84-.19,1.2-.29.34-.1.62-.21.93-.32.59-.23,1.15-.47,1.69-.73,1.08-.52,2.08-1.1,3.03-1.72,1.91-1.24,3.6-2.66,5.13-4.16,1.51-1.53,2.87-3.14,4.05-4.83.62-.82,1.13-1.72,1.68-2.56.51-.88.99-1.77,1.47-2.64-.81.59-1.6,1.19-2.41,1.75-.84.52-1.63,1.09-2.49,1.54-1.67.97-3.41,1.76-5.14,2.4-1.75.61-3.5,1.07-5.21,1.29-.85.12-1.7.18-2.5.18-.4,0-.8-.02-1.16-.06-.18-.02-.37-.04-.52-.07-.12-.03-.39-.06-.25-.12l.5,10.34Z"/>
              </g>
            </g>
          </g>
        </g>
      </g>
    </g>
  </g>
</svg>