<?xml version="1.0" encoding="UTF-8"?>
<svg xmlns="http://www.w3.org/2000/svg" xmlns:xlink="http://www.w3.org/1999/xlink" viewBox="0 0 1195.36 1195.36">
  <defs>
    <style>
      .cls-1 {
        mask: url(#mask-5);
      }

      .cls-2 {
        fill: #db582a;
      }

      .cls-3 {
        mask: url(#mask-13);
      }

      .cls-4 {
        fill: #a66949;
      }

      .cls-5 {
        mask: url(#mask-1);
      }

      .cls-6 {
        fill: #bd7e5d;
      }

      .cls-7 {
        fill: url(#radial-gradient-3);
      }

      .cls-7, .cls-8, .cls-9, .cls-10, .cls-11, .cls-12, .cls-13, .cls-14, .cls-15, .cls-16, .cls-17, .cls-18, .cls-19, .cls-20, .cls-21, .cls-22, .cls-23, .cls-24, .cls-25, .cls-26 {
        mix-blend-mode: multiply;
      }

      .cls-27 {
        mask: url(#mask-10);
      }

      .cls-28 {
        mask: url(#mask-6);
      }

      .cls-8 {
        fill: url(#radial-gradient);
      }

      .cls-29 {
        mask: url(#mask-7);
      }

      .cls-30 {
        fill: #9e2021;
      }

      .cls-31 {
        fill: #692e19;
      }

      .cls-9 {
        fill: url(#linear-gradient-2);
      }

      .cls-9, .cls-13, .cls-17, .cls-23, .cls-24 {
        opacity: .6;
      }

      .cls-32 {
        filter: url(#luminosity-noclip-5);
      }

      .cls-33 {
        fill: #fff;
      }

      .cls-34 {
        mask: url(#mask);
      }

      .cls-10 {
        fill: url(#radial-gradient-7);
      }

      .cls-11 {
        fill: #f0a03e;
      }

      .cls-11, .cls-15 {
        opacity: .5;
      }

      .cls-12 {
        fill: url(#linear-gradient-6);
      }

      .cls-12, .cls-26 {
        opacity: .8;
      }

      .cls-35 {
        fill: none;
      }

      .cls-36, .cls-20 {
        fill: #838bc5;
      }

      .cls-13 {
        fill: #ffd469;
      }

      .cls-37 {
        fill: url(#radial-gradient-4);
      }

      .cls-37, .cls-38 {
        mix-blend-mode: screen;
      }

      .cls-37, .cls-38, .cls-16, .cls-20 {
        opacity: .3;
      }

      .cls-39 {
        mask: url(#mask-8);
      }

      .cls-40 {
        filter: url(#luminosity-noclip-11);
      }

      .cls-41 {
        mask: url(#mask-2);
      }

      .cls-42 {
        filter: url(#luminosity-noclip-3);
      }

      .cls-14 {
        opacity: .4;
      }

      .cls-14, .cls-15 {
        fill: #ffaa7e;
      }

      .cls-38 {
        fill: url(#radial-gradient-2);
      }

      .cls-43 {
        mask: url(#mask-9);
      }

      .cls-44 {
        fill: #73311b;
      }

      .cls-45 {
        fill: #8a4834;
      }

      .cls-46 {
        fill: #b3b9e0;
      }

      .cls-47 {
        isolation: isolate;
      }

      .cls-48 {
        fill: #fdc18f;
      }

      .cls-16, .cls-49 {
        fill: #6872bd;
      }

      .cls-17 {
        fill: url(#radial-gradient-8);
      }

      .cls-18 {
        fill: url(#radial-gradient-5);
      }

      .cls-50 {
        filter: url(#luminosity-noclip-13);
      }

      .cls-19 {
        fill: #ffe51e;
      }

      .cls-51 {
        filter: url(#luminosity-noclip-9);
      }

      .cls-21 {
        fill: url(#linear-gradient-5);
      }

      .cls-22 {
        fill: url(#linear-gradient-3);
      }

      .cls-23 {
        fill: url(#radial-gradient-6);
      }

      .cls-52 {
        mask: url(#mask-11);
      }

      .cls-53 {
        fill: #7079bd;
      }

      .cls-24 {
        fill: #b3b3b3;
      }

      .cls-54 {
        fill: #6e2f19;
      }

      .cls-55 {
        mask: url(#mask-12);
      }

      .cls-56 {
        fill: #50589c;
      }

      .cls-57 {
        fill: #701611;
      }

      .cls-58 {
        fill: #3b0a07;
      }

      .cls-59 {
        mask: url(#mask-4);
      }

      .cls-25 {
        fill: url(#linear-gradient);
      }

      .cls-60 {
        fill: #6a73b5;
      }

      .cls-61 {
        fill: #f0a369;
      }

      .cls-62 {
        fill: #ffbe42;
      }

      .cls-63 {
        fill: #fd827e;
      }

      .cls-64 {
        filter: url(#luminosity-noclip-7);
      }

      .cls-65 {
        clip-path: url(#clippath);
      }

      .cls-26 {
        fill: url(#linear-gradient-4);
      }

      .cls-66 {
        mask: url(#mask-3);
      }

      .cls-67 {
        filter: url(#luminosity-noclip);
      }
    </style>
    <clipPath id="clippath">
      <circle class="cls-35" cx="597.68" cy="597.68" r="597.68"/>
    </clipPath>
    <filter id="luminosity-noclip" x="546.13" y="596.63" width="75.94" height="80.51" color-interpolation-filters="sRGB" filterUnits="userSpaceOnUse">
      <feFlood flood-color="#fff" result="bg"/>
      <feBlend in="SourceGraphic" in2="bg"/>
    </filter>
    <filter id="luminosity-noclip-2" x="546.13" y="-10112.27" width="75.94" height="32766" color-interpolation-filters="sRGB" filterUnits="userSpaceOnUse">
      <feFlood flood-color="#fff" result="bg"/>
      <feBlend in="SourceGraphic" in2="bg"/>
    </filter>
    <mask id="mask-1" x="546.13" y="-10112.27" width="75.94" height="32766" maskUnits="userSpaceOnUse"/>
    <linearGradient id="linear-gradient" x1="-2511.13" y1="2056.85" x2="-2547.5" y2="2080.73" gradientTransform="translate(3742.39 -157.83) rotate(25.16)" gradientUnits="userSpaceOnUse">
      <stop offset=".04" stop-color="#000"/>
      <stop offset="1" stop-color="#fff"/>
    </linearGradient>
    <mask id="mask" x="546.13" y="596.63" width="75.94" height="80.51" maskUnits="userSpaceOnUse">
      <g class="cls-67">
        <g class="cls-5">
          <path class="cls-25" d="M580.45,596.63s.18,31.65-30.67,44.33c0,0-10.95,6.15,5.09,19.05,16.04,12.9,47.39,17.13,47.39,17.13,0,0,56.72-47.38-21.81-80.51Z"/>
        </g>
      </g>
    </mask>
    <linearGradient id="linear-gradient-2" x1="-2511.13" y1="2056.85" x2="-2547.5" y2="2080.73" gradientTransform="translate(3742.39 -157.83) rotate(25.16)" gradientUnits="userSpaceOnUse">
      <stop offset=".04" stop-color="#fff"/>
      <stop offset="1" stop-color="#f69d76"/>
    </linearGradient>
    <filter id="luminosity-noclip-3" x="668.29" y="520.94" width="148.36" height="148.36" color-interpolation-filters="sRGB" filterUnits="userSpaceOnUse">
      <feFlood flood-color="#fff" result="bg"/>
      <feBlend in="SourceGraphic" in2="bg"/>
    </filter>
    <filter id="luminosity-noclip-4" x="668.29" y="-10112.27" width="148.36" height="32766" color-interpolation-filters="sRGB" filterUnits="userSpaceOnUse">
      <feFlood flood-color="#fff" result="bg"/>
      <feBlend in="SourceGraphic" in2="bg"/>
    </filter>
    <mask id="mask-3" x="668.29" y="-10112.27" width="148.36" height="32766" maskUnits="userSpaceOnUse"/>
    <radialGradient id="radial-gradient" cx="-2665.39" cy="2295.93" fx="-2665.39" fy="2295.93" r="74.17" gradientTransform="translate(3385.3 2917.33) rotate(82.05)" gradientUnits="userSpaceOnUse">
      <stop offset="0" stop-color="#fff"/>
      <stop offset="1" stop-color="#000"/>
    </radialGradient>
    <mask id="mask-2" x="668.29" y="520.94" width="148.36" height="148.36" maskUnits="userSpaceOnUse">
      <g class="cls-42">
        <g class="cls-66">
          <circle class="cls-8" cx="742.47" cy="595.12" r="74.18" transform="translate(-203.35 699.31) rotate(-45)"/>
        </g>
      </g>
    </mask>
    <radialGradient id="radial-gradient-2" cx="-2665.39" cy="2295.93" fx="-2665.39" fy="2295.93" r="74.17" gradientTransform="translate(3385.3 2917.33) rotate(82.05)" gradientUnits="userSpaceOnUse">
      <stop offset="0" stop-color="#fff"/>
      <stop offset="1" stop-color="#fff"/>
    </radialGradient>
    <filter id="luminosity-noclip-5" x="384.06" y="513.32" width="148.36" height="148.36" color-interpolation-filters="sRGB" filterUnits="userSpaceOnUse">
      <feFlood flood-color="#fff" result="bg"/>
      <feBlend in="SourceGraphic" in2="bg"/>
    </filter>
    <filter id="luminosity-noclip-6" x="384.06" y="-10112.27" width="148.36" height="32766" color-interpolation-filters="sRGB" filterUnits="userSpaceOnUse">
      <feFlood flood-color="#fff" result="bg"/>
      <feBlend in="SourceGraphic" in2="bg"/>
    </filter>
    <mask id="mask-5" x="384.06" y="-10112.27" width="148.36" height="32766" maskUnits="userSpaceOnUse"/>
    <radialGradient id="radial-gradient-3" cx="-2896.82" cy="2461.07" fx="-2896.82" fy="2461.07" r="74.17" gradientTransform="translate(4253.28 368.41) rotate(37.05)" xlink:href="#radial-gradient"/>
    <mask id="mask-4" x="384.06" y="513.32" width="148.36" height="148.36" maskUnits="userSpaceOnUse">
      <g class="cls-32">
        <g class="cls-1">
          <circle class="cls-7" cx="458.24" cy="587.5" r="74.18"/>
        </g>
      </g>
    </mask>
    <radialGradient id="radial-gradient-4" cx="-2896.82" cy="2461.07" fx="-2896.82" fy="2461.07" r="74.17" gradientTransform="translate(4253.28 368.41) rotate(37.05)" xlink:href="#radial-gradient-2"/>
    <filter id="luminosity-noclip-7" x="361.27" y="609.42" width="148.36" height="148.36" color-interpolation-filters="sRGB" filterUnits="userSpaceOnUse">
      <feFlood flood-color="#fff" result="bg"/>
      <feBlend in="SourceGraphic" in2="bg"/>
    </filter>
    <filter id="luminosity-noclip-8" x="361.27" y="-10112.27" width="148.36" height="32766" color-interpolation-filters="sRGB" filterUnits="userSpaceOnUse">
      <feFlood flood-color="#fff" result="bg"/>
      <feBlend in="SourceGraphic" in2="bg"/>
    </filter>
    <mask id="mask-7" x="361.27" y="-10112.27" width="148.36" height="32766" maskUnits="userSpaceOnUse"/>
    <radialGradient id="radial-gradient-5" cx="-2857.12" cy="2551.49" fx="-2857.12" fy="2551.49" r="74.17" gradientTransform="translate(4253.28 368.41) rotate(37.05)" gradientUnits="userSpaceOnUse">
      <stop offset="0" stop-color="#fff"/>
      <stop offset=".08" stop-color="#f6f6f6"/>
      <stop offset=".22" stop-color="#ddd"/>
      <stop offset=".4" stop-color="#b5b5b5"/>
      <stop offset=".6" stop-color="#7e7e7e"/>
      <stop offset=".83" stop-color="#393939"/>
      <stop offset="1" stop-color="#000"/>
    </radialGradient>
    <mask id="mask-6" x="361.27" y="609.42" width="148.36" height="148.36" maskUnits="userSpaceOnUse">
      <g class="cls-64">
        <g class="cls-29">
          <circle class="cls-18" cx="435.45" cy="683.6" r="74.18"/>
        </g>
      </g>
    </mask>
    <radialGradient id="radial-gradient-6" cx="-2857.12" cy="2551.49" fx="-2857.12" fy="2551.49" r="74.17" gradientTransform="translate(4253.28 368.41) rotate(37.05)" gradientUnits="userSpaceOnUse">
      <stop offset="0" stop-color="#f69d76"/>
      <stop offset=".13" stop-color="#f6a37e"/>
      <stop offset=".35" stop-color="#f8b497"/>
      <stop offset=".63" stop-color="#fad1be"/>
      <stop offset=".95" stop-color="#fef8f5"/>
      <stop offset="1" stop-color="#fff"/>
    </radialGradient>
    <filter id="luminosity-noclip-9" x="688.6" y="610.71" width="148.36" height="148.36" color-interpolation-filters="sRGB" filterUnits="userSpaceOnUse">
      <feFlood flood-color="#fff" result="bg"/>
      <feBlend in="SourceGraphic" in2="bg"/>
    </filter>
    <filter id="luminosity-noclip-10" x="688.6" y="-10112.27" width="148.36" height="32766" color-interpolation-filters="sRGB" filterUnits="userSpaceOnUse">
      <feFlood flood-color="#fff" result="bg"/>
      <feBlend in="SourceGraphic" in2="bg"/>
    </filter>
    <mask id="mask-9" x="688.6" y="-10112.27" width="148.36" height="32766" maskUnits="userSpaceOnUse"/>
    <radialGradient id="radial-gradient-7" cx="-2595.1" cy="2355.33" fx="-2595.1" fy="2355.33" r="74.17" gradientTransform="translate(4262.71 869.97) rotate(45.25)" xlink:href="#radial-gradient-5"/>
    <mask id="mask-8" x="688.6" y="610.71" width="148.36" height="148.36" maskUnits="userSpaceOnUse">
      <g class="cls-51">
        <g class="cls-43">
          <circle class="cls-10" cx="762.78" cy="684.89" r="74.18" transform="translate(-89.96 115.91) rotate(-8.21)"/>
        </g>
      </g>
    </mask>
    <radialGradient id="radial-gradient-8" cx="-2595.1" cy="2355.33" fx="-2595.1" fy="2355.33" r="74.17" gradientTransform="translate(4262.71 869.97) rotate(45.25)" xlink:href="#radial-gradient-6"/>
    <filter id="luminosity-noclip-11" x="282.85" y="600.66" width="46.6" height="69.55" color-interpolation-filters="sRGB" filterUnits="userSpaceOnUse">
      <feFlood flood-color="#fff" result="bg"/>
      <feBlend in="SourceGraphic" in2="bg"/>
    </filter>
    <filter id="luminosity-noclip-12" x="282.85" y="-10112.27" width="46.6" height="32766" color-interpolation-filters="sRGB" filterUnits="userSpaceOnUse">
      <feFlood flood-color="#fff" result="bg"/>
      <feBlend in="SourceGraphic" in2="bg"/>
    </filter>
    <mask id="mask-11" x="282.85" y="-10112.27" width="46.6" height="32766" maskUnits="userSpaceOnUse"/>
    <linearGradient id="linear-gradient-3" x1="11732.97" y1="-2183.8" x2="11725.48" y2="-2118.22" gradientTransform="translate(12104.43 -1123.37) rotate(161.08) scale(1 -1)" gradientUnits="userSpaceOnUse">
      <stop offset="0" stop-color="#fff"/>
      <stop offset=".96" stop-color="#000"/>
    </linearGradient>
    <mask id="mask-10" x="282.85" y="600.66" width="46.6" height="69.55" maskUnits="userSpaceOnUse">
      <g class="cls-40">
        <g class="cls-52">
          <path class="cls-22" d="M324.09,625.26c-2.19-10.53-8.07-21.08-16.81-23.92-10.81-3.51-21.89,7.02-23.97,19.97-2.08,12.95,3.1,26.7,10.81,36.66,7.07,9.14,18.63,15.99,27.27,9.98,6.6-4.59,8.74-15.05,7.89-24.36-.85-9.31-5.19-18.33-5.19-18.33Z"/>
        </g>
      </g>
    </mask>
    <linearGradient id="linear-gradient-4" x1="11732.97" y1="-2183.8" x2="11725.48" y2="-2118.22" gradientTransform="translate(12104.43 -1123.37) rotate(161.08) scale(1 -1)" gradientUnits="userSpaceOnUse">
      <stop offset="0" stop-color="#f69d76"/>
      <stop offset=".96" stop-color="#fff"/>
    </linearGradient>
    <filter id="luminosity-noclip-13" x="877.44" y="600.66" width="46.6" height="69.55" color-interpolation-filters="sRGB" filterUnits="userSpaceOnUse">
      <feFlood flood-color="#fff" result="bg"/>
      <feBlend in="SourceGraphic" in2="bg"/>
    </filter>
    <filter id="luminosity-noclip-14" x="877.44" y="-10112.27" width="46.6" height="32766" color-interpolation-filters="sRGB" filterUnits="userSpaceOnUse">
      <feFlood flood-color="#fff" result="bg"/>
      <feBlend in="SourceGraphic" in2="bg"/>
    </filter>
    <mask id="mask-13" x="877.44" y="-10112.27" width="46.6" height="32766" maskUnits="userSpaceOnUse"/>
    <linearGradient id="linear-gradient-5" x1="10082.53" y1="-1618.01" x2="10075.04" y2="-1552.43" gradientTransform="translate(-9152.73 -1123.37) rotate(18.92)" xlink:href="#linear-gradient-3"/>
    <mask id="mask-12" x="877.44" y="600.66" width="46.6" height="69.55" maskUnits="userSpaceOnUse">
      <g class="cls-50">
        <g class="cls-3">
          <path class="cls-21" d="M882.81,625.26c2.19-10.53,8.07-21.08,16.81-23.92,10.81-3.51,21.89,7.02,23.97,19.97,2.08,12.95-3.1,26.7-10.81,36.66-7.07,9.14-18.63,15.99-27.27,9.98-6.6-4.59-8.74-15.05-7.89-24.36.85-9.31,5.19-18.33,5.19-18.33Z"/>
        </g>
      </g>
    </mask>
    <linearGradient id="linear-gradient-6" x1="10082.53" y1="-1618.01" x2="10075.04" y2="-1552.43" gradientTransform="translate(-9152.73 -1123.37) rotate(18.92)" xlink:href="#linear-gradient-4"/>
  </defs>
  <g class="cls-47">
    <g id="Layer_2" data-name="Layer 2">
      <g id="Boy_and_Girl" data-name="Boy and Girl">
        <g class="cls-65">
          <g>
            <g>
              <polygon class="cls-61" points="869.42 1060.04 890.49 1137.56 793.64 1172.44 784.52 1076.82 869.42 1060.04"/>
              <path class="cls-36" d="M700.5,872.3s78.78,4.1,113.94,52.54c38.39,52.9,67.6,149.41,67.6,149.41,0,0-21.85,33.22-100.78,21.82,0,0-44.43-84.27-80.76-223.77Z"/>
              <path class="cls-20" d="M872.43,1083.17c-12.77,8.91-39.94,20.3-91.16,12.9,0,0-32.98-62.57-65.35-169.12,31.29,35.71,56.41,78.32,88.64,115.75,16.66,19.44,40.25,37.71,67.87,40.46Z"/>
              <path class="cls-49" d="M879.6,1060.1c3.99,11.06,6.23,17.87,6.23,17.87,0,0-22.76,34.61-104.99,22.73,0,0-2.17-4.12-5.95-12.03,37.62.38,74.19-6.06,104.7-28.57Z"/>
              <path class="cls-16" d="M848.85,1076.97c10.15,2.74,20.16,5.34,30.13,7.91-11.68,9.42-40.07,24.2-98.13,15.81,0,0-2.17-4.12-5.95-12.03,25.67.26,50.85-2.66,73.95-11.7Z"/>
              <polygon class="cls-61" points="333.21 1060.04 312.14 1137.56 400.35 1172.44 418.11 1076.82 333.21 1060.04"/>
              <path class="cls-36" d="M502.13,872.3s-77.66-1.84-113.94,52.54c-36.28,54.38-67.6,149.41-67.6,149.41,0,0,21.85,33.22,100.78,21.82,0,0,44.43-84.27,80.76-223.77Z"/>
              <path class="cls-20" d="M330.2,1083.17c12.77,8.91,39.94,20.3,91.16,12.9,0,0,32.98-62.57,65.35-169.12-31.29,35.71-56.41,78.32-88.64,115.75-16.66,19.44-40.25,37.71-67.87,40.46Z"/>
              <path class="cls-56" d="M668.34,860.52s-2.65-5.26-15.59-5.28c-12.46-.02-95.18-2.73-114.78,2.25-1.21.31-2.14,1.24-2.46,2.44l-4.31,24.02s37.58-16.5,139.43-1.53l-2.3-21.9Z"/>
              <path class="cls-62" d="M794.68,1234.31c-1.91-126.16-27.26-260.71-39.31-317.98-53.26-30.37-115.74-41.7-177.71-33.16-18.13,1.82-37.22,6.49-56.32,11.17-5.16,1.01-10.29,1.94-15.41,2.84-32.15,71.67-62.43,246.11-76.72,337.13h365.47Z"/>
              <g>
                <path class="cls-19" d="M763.05,954.8h-277.18c2.01-6.97,4.03-13.67,6.07-20.05h267.2c1.24,6.18,2.56,12.89,3.91,20.05Z"/>
                <path class="cls-19" d="M768.86,986.73h-291.56c1.72-6.85,3.48-13.55,5.25-20.05h282.72c1.17,6.38,2.37,13.09,3.59,20.05Z"/>
                <path class="cls-19" d="M774.28,1019.31h-304.83c1.55-6.79,3.14-13.49,4.73-20.05h296.83c1.09,6.5,2.19,13.19,3.28,20.05Z"/>
                <path class="cls-19" d="M779.26,1052.6h-317.15c1.44-6.73,2.87-13.42,4.35-20.05h309.88c.99,6.55,1.97,13.24,2.92,20.05Z"/>
                <path class="cls-19" d="M783.32,1083.17h-327.48c1.34-6.68,2.69-13.39,4.06-20.05h320.83c.89,6.58,1.75,13.27,2.59,20.05Z"/>
                <path class="cls-19" d="M787.46,1119.4h-338.61c1.25-6.63,2.52-13.34,3.81-20.05h332.61c.77,6.62,1.5,13.3,2.19,20.05Z"/>
                <path class="cls-19" d="M790.39,1150.7h-347.22c1.17-6.58,2.37-13.29,3.61-20.05h341.8c.65,6.65,1.25,13.34,1.8,20.05Z"/>
                <path class="cls-19" d="M792.68,1182.47h-355.02c1.1-6.52,2.26-13.22,3.46-20.05h350.21c.5,6.67.95,13.37,1.35,20.05Z"/>
              </g>
              <path class="cls-11" d="M724.39,1158.34c-4.38-1.9-8.6-4.1-12.78-6.36-4.17-2.28-8.28-4.64-12.29-7.17-8.08-4.95-15.87-10.33-23.43-15.98-7.52-5.72-14.92-11.58-21.93-17.9-7.07-6.25-13.92-12.74-20.49-19.51-6.58-6.76-12.94-13.74-19.03-20.96-1.58-1.76-3.02-3.63-4.54-5.44-1.48-1.84-3.04-3.62-4.47-5.51-2.87-3.76-5.86-7.43-8.65-11.25-11.32-15.19-21.76-31.06-31.77-47.34,7.49,17.59,16.78,34.44,27.43,50.41,5.23,8.05,11.08,15.69,17.03,23.25,6.05,7.48,12.5,14.63,19.13,21.6,6.8,6.81,13.81,13.43,21.17,19.64,7.4,6.16,15.04,12.04,23.07,17.35,4.01,2.66,8.06,5.26,12.21,7.69,4.18,2.38,8.36,4.74,12.67,6.88,4.3,2.13,8.65,4.17,13.11,5.96,4.44,1.8,8.96,3.44,13.58,4.66Z"/>
              <path class="cls-11" d="M520.68,1097.84c5.04-1.69,10.29-2.36,15.49-2.59,5.21-.2,10.4.12,15.52.86,10.25,1.51,20.13,4.76,29.6,8.88,9.44,4.22,18.47,9.38,27.17,15.09,8.67,5.77,16.99,12.1,25.28,18.59-7.02-7.84-14.81-15-23.25-21.4-8.44-6.39-17.6-11.94-27.36-16.31-9.8-4.25-20.23-7.39-31-8.25-5.37-.47-10.8-.33-16.13.4-2.66.42-5.31.94-7.88,1.71-2.57.78-5.11,1.7-7.43,3.02Z"/>
              <path class="cls-13" d="M672.46,1234.31h122.21c-1.96-129.63-28.67-268.13-40.28-322.54-32.03-12.67-65.3-21.68-99.56-27.76,10.02,46.04,19.43,92.05,21.79,139.35,2.65,70.32,1.9,141.02-4.17,210.95Z"/>
              <ellipse class="cls-2" cx="602.77" cy="903.02" rx="76.63" ry="42.77" transform="translate(-14.15 9.61) rotate(-.9)"/>
              <path class="cls-36" d="M682.19,1018.15c.2,2.18.39,4.38.6,6.59.83,9.12,1.67,18.48,2.5,27.99,5.07,58.06,9.96,122.48,12.82,181.58h115.03c-13.65-111.42-36.62-269.51-64.98-350.3,0,0-17.51-10.78-63.02-15.25h-.01c-8.57-1.51-15.34-1.76-18.1.31,0,0,6.85,59.9,14.37,140.67.25,2.78.52,5.57.78,8.4Z"/>
              <path class="cls-53" d="M719.71,1234.31c-6.71-101.03-18.85-199.61-19.04-201.15-.14-1.12-1.16-1.91-2.28-1.78-1.12.14-1.92,1.16-1.78,2.28.19,1.53,12.3,99.87,19,200.64h4.09Z"/>
              <path class="cls-24" d="M704.81,908.92l36.45,75.6,3.44,7.14-45.28,18.95-6.02,3.07-11.1,5.65c-.04-.4-.07-.79-.11-1.18-.27-2.83-.53-5.62-.78-8.4-3.6-38.54-7.02-72.32-9.64-97.1-1.28-21.53-2.2-35.65-2.45-39.41,13.23,10.58,25.28,22.4,35.5,35.69Z"/>
              <path class="cls-24" d="M685.13,1011.2c-.12,1.81-.24,3.63-.36,5.47-.06.98-.12,1.96-.19,2.96-.02.39-.06.79-.08,1.18-.13,1.79-.25,3.59-.37,5.41-.17,2.54-.34,5.09-.51,7.66.54,6.01,1.09,12.12,1.62,18.28l2.31-1.59,29.36-20.27-3.79-4.13-10.34-11.29-1.44-1.57-8.68-1.12-7.53-.99Z"/>
              <g>
                <path class="cls-60" d="M786.05,1006.55c3.22-4.2,5.74-8.85,7.92-13.62,2.21-4.77,3.96-9.74,5.38-14.8,1.43-5.06,2.45-10.24,2.98-15.48.63-5.22.6-10.54-.04-15.77-1.45,5.1-2.49,10.12-3.81,15.09-1.28,4.97-2.56,9.91-3.95,14.82l-4.2,14.78c-1.45,4.94-2.91,9.88-4.27,14.98Z"/>
                <path class="cls-60" d="M821.6,966.87c-3.5,5.01-6.72,10.11-9.88,15.22-3.2,5.09-6.27,10.23-9.4,15.33-3.13,5.09-6.23,10.19-9.42,15.25-3.23,5.03-6.49,10.02-9.94,15.08,4.95-3.61,9.21-8.09,13.11-12.79,3.91-4.7,7.33-9.76,10.53-14.94,3.17-5.2,6.02-10.57,8.55-16.09,2.54-5.52,4.82-11.16,6.45-17.07Z"/>
                <path class="cls-60" d="M782.41,1025.57c-.9-11.08-2.44-22.07-4.23-33-.86-5.48-1.9-10.91-2.9-16.36-1.03-5.44-2.22-10.86-3.34-16.28-1.26-5.4-2.47-10.81-3.83-16.18-1.39-5.37-2.79-10.74-4.38-16.06-.82-2.66-1.6-5.32-2.45-7.97-.87-2.64-1.8-5.27-2.7-7.89-.92-2.62-2.01-5.2-3.04-7.78-1.03-2.58-2.34-5.07-3.55-7.56l1.07,4.03c.37,1.33.77,2.65,1.05,4.01.6,2.71,1.36,5.34,1.91,8.06,1.26,5.37,2.39,10.77,3.6,16.15l7.01,32.36,3.62,16.17c1.29,5.37,2.44,10.78,3.79,16.14,2.57,10.76,5.26,21.49,8.38,32.16Z"/>
              </g>
              <g>
                <path class="cls-46" d="M681.4,1009.75c.25,2.78.52,5.57.78,8.4.04.4.07.79.11,1.18.16,1.79.33,3.6.49,5.4.28,3.02.55,6.08.83,9.15.54,6.01,1.09,12.12,1.62,18.28.02.18.03.38.05.56l2.26-2.15,25.57-24.4,2.68-2.56-16.39-13-1.67-1.33-16.35.46Z"/>
                <path class="cls-46" d="M664.97,857.44s16.09,3.78,20.17,11.32c0,0,.28.19.39.72l1.75,3.22.59,1.09,58.37,107.89-48.48,27.6-15.56,8.86c-.27-2.83-.53-5.62-.78-8.4-3.6-38.54-7.02-72.32-9.64-97.1-2.37-22.51-4.05-37.6-4.56-42.13l-2.22-13.07Z"/>
              </g>
              <path class="cls-49" d="M323.03,1060.1c-3.99,11.06-6.23,17.87-6.23,17.87,0,0,22.76,34.61,104.99,22.73,0,0,2.17-4.12,5.95-12.03-37.62.38-74.19-6.06-104.7-28.57Z"/>
              <path class="cls-16" d="M353.78,1076.97c-10.15,2.74-20.16,5.34-30.13,7.91,11.68,9.42,40.07,24.2,98.13,15.81,0,0,2.17-4.12,5.95-12.03-25.67.26-50.85-2.66-73.95-11.7Z"/>
              <path class="cls-36" d="M502.4,1234.31c3.76-59.43,9.67-124.34,15.67-182.78.98-9.5,1.96-18.85,2.93-27.95.24-2.2.47-4.4.7-6.58.31-2.82.62-5.62.91-8.39,8.75-80.64,16.5-140.44,16.5-140.44-2.72-2.12-9.5-1.96-18.09-.59h-.01c-24.7,3.98-61.41,10.38-61.41,10.38-29.97,81.43-56.33,243.79-72.13,356.35h114.93Z"/>
              <path class="cls-53" d="M484.85,1234.31c8.22-101.24,21.97-200.47,22.18-202.01.16-1.12-.62-2.15-1.74-2.31-1.12-.16-2.15.62-2.31,1.74-.22,1.54-14,101.05-22.23,202.57h4.1Z"/>
              <path class="cls-24" d="M500.74,907.45l-37.6,75.04-3.55,7.09,44.99,19.63,5.98,3.16,11.01,5.82c.05-.4.08-.79.13-1.18.31-2.82.62-5.62.91-8.39,4.18-38.48,8.12-72.2,11.12-96.94,1.6-21.5,2.74-35.61,3.05-39.37-13.39,10.38-25.62,22.02-36.04,35.15Z"/>
              <path class="cls-24" d="M487.41,1028.77l29.24,21.37,1.45,1.07c.77-7.54,1.55-14.97,2.33-22.25-.05-1.13-.08-2.26-.13-3.37-.07-1.82-.14-3.63-.22-5.42,0-.4-.03-.79-.04-1.19-.04-1.02-.08-2.02-.11-3.01-.07-1.82-.14-3.63-.22-5.42l-7.65.78-8.61.89-1.48,1.54-10.9,11.26-3.67,3.77Z"/>
              <g>
                <path class="cls-46" d="M488,1021.96l3.08,3.03,25.57,25.14,1.42,1.4c0-.11.03-.23.03-.34.77-7.54,1.55-14.97,2.33-22.25.18-1.8.38-3.6.57-5.38.19-1.8.38-3.61.57-5.39.05-.4.08-.79.13-1.18.3-2.83.61-5.62.91-8.38l-16.35-.71-1.68,1.31-16.58,12.76Z"/>
                <path class="cls-46" d="M541.34,856.58s-16.14,3.53-20.34,11.01c0,0-.28.19-.4.71l-1.79,3.19-.6,1.08-60,106.99,48.06,28.33,15.43,9.1c.31-2.82.62-5.62.91-8.39,4.18-38.48,8.12-72.2,11.12-96.94,2.71-22.47,4.62-37.53,5.2-42.06l2.42-13.03Z"/>
              </g>
              <g>
                <path class="cls-60" d="M421.37,1022.91c3.28-10.62,6.13-21.32,8.87-32.03,1.43-5.34,2.66-10.73,4.03-16.08l3.87-16.11,7.5-32.25c1.29-5.36,2.5-10.74,3.84-16.1.58-2.71,1.39-5.33,2.03-8.03.31-1.35.72-2.67,1.11-3.99l1.13-4.01c-1.25,2.46-2.59,4.94-3.67,7.5-1.07,2.56-2.19,5.13-3.16,7.73-.95,2.61-1.91,5.22-2.82,7.85-.89,2.63-1.71,5.28-2.57,7.93-1.67,5.3-3.15,10.65-4.62,15.99-1.44,5.36-2.74,10.74-4.08,16.12-1.2,5.41-2.47,10.8-3.59,16.23-1.09,5.43-2.21,10.86-3.15,16.32-1.96,10.91-3.66,21.86-4.73,32.93Z"/>
                <path class="cls-60" d="M416.58,1006.55c-3.22-4.2-5.74-8.85-7.92-13.62-2.21-4.77-3.96-9.74-5.38-14.8-1.43-5.06-2.45-10.24-2.98-15.48-.63-5.22-.6-10.54.04-15.77,1.45,5.1,2.49,10.12,3.81,15.09,1.28,4.97,2.56,9.91,3.95,14.82l4.2,14.78c1.45,4.94,2.91,9.88,4.27,14.98Z"/>
                <path class="cls-60" d="M381.03,966.87c3.5,5.01,6.72,10.11,9.88,15.22,3.2,5.09,6.27,10.23,9.4,15.33,3.13,5.09,6.23,10.19,9.42,15.25,3.23,5.03,6.49,10.02,9.94,15.08-4.95-3.61-9.21-8.09-13.11-12.79-3.91-4.7-7.33-9.76-10.53-14.94-3.17-5.2-6.02-10.57-8.55-16.09-2.54-5.52-4.82-11.16-6.45-17.07Z"/>
              </g>
            </g>
            <g>
              <path class="cls-61" d="M541.59,827.18l59.16,2.46,59.78-4.9s-11.14,57.25-4.12,73.23c6.61,15.05-34.48,22.07-52.68,21.47-17.72,1.54-60.39-3.75-54.44-19.27,6.23-16.25-7.69-72.99-7.69-72.99Z"/>
              <path class="cls-14" d="M600.75,829.64l59.78-4.9s-5.58,28.67-6.35,51.09c-34.58,7.19-69.61,3.31-104.55-5.54-2.54-20.69-8.04-43.12-8.04-43.12l59.16,2.46Z"/>
              <path class="cls-48" d="M602.96,289.41h0c21.38.11,278.49,4.77,288.56,164.34,0,0-20.96,177.62-26.13,237.71-3.74,43.44-50.36,114.69-141.58,145.03-35.93,13.99-78.93,21.98-125.1,21.62-48-.37-92.44-9.7-128.97-25.31-85.69-32.31-129.27-100.88-132.68-143.03-4.86-60.12-24.91-237.87-24.91-237.87,11.36-166.43,290.82-162.49,290.82-162.49Z"/>
              <g>
                <g class="cls-34">
                  <path class="cls-9" d="M580.45,596.63s.18,31.65-30.67,44.33c0,0-10.95,6.15,5.09,19.05,16.04,12.9,47.39,17.13,47.39,17.13,0,0,56.72-47.38-21.81-80.51Z"/>
                </g>
                <path class="cls-57" d="M580.45,596.63c-1.21,4.82-2.63,9.51-4.45,13.98-1.75,4.49-3.93,8.75-6.56,12.53-2.63,3.78-5.78,7.06-9.49,9.25-1.86,1.11-3.77,1.95-5.89,2.58l-2.01.7c-.67.27-1.35.61-2.02.92-.67.34-1.34.8-1.99,1.2-.65.5-1.3,1.01-1.9,1.62-1.19,1.26-2.2,2.88-2.7,4.7-.43,1.8-.49,3.7-.09,5.3.73,3.3,2.39,5.76,4.13,7.92,3.58,4.27,7.92,7.28,12.43,9.78,9.08,4.84,19.28,7.4,29.25,6.86-9.62-2.46-18.54-6.34-26.3-11.69-3.81-2.69-7.46-5.71-10.02-9.17-1.25-1.7-2.3-3.54-2.52-5.1-.29-1.59.03-2.54,1.01-3.61.99-1.09,2.85-2.01,4.85-2.66,2.57-.87,5.18-2.06,7.46-3.62,4.63-3.09,8.12-7.43,10.62-12.02,2.52-4.61,4.09-9.55,5.13-14.49.93-4.97,1.44-9.99,1.08-14.98Z"/>
              </g>
              <path class="cls-30" d="M509.33,714.67c0,30.49,15.91,57.38,40.12,73.28,14.58,9.59,32.2,15.2,51.16,15.2s36.56-5.61,51.16-15.2c24.22-15.91,40.13-42.79,40.13-73.28,0-.32-.03-.65-.03-.96-2.04.65-4.1,1.28-6.21,1.87h-.01c-25.13,7.23-54.14,11.36-85.03,11.36s-58.05-3.87-82.62-10.69c-2.93-.79-5.81-1.65-8.63-2.55-.01.32-.03.65-.03.96Z"/>
              <path class="cls-33" d="M516.96,715.92c8.61,11.3,30.37,28.51,82.95,28.72,56.17.22,77.27-18.25,84.7-28.73-25.16,7.14-54.18,11.15-85.08,11.03-29.92-.12-58.04-4.1-82.58-11.01Z"/>
              <path class="cls-63" d="M549.34,787.75c14.55,9.65,32.14,15.33,51.1,15.41,18.96.07,36.58-5.46,51.22-15-8.19-10.29-27.96-17.59-51.09-17.68-23.11-.09-42.95,7.05-51.23,17.27Z"/>
              <path class="cls-30" d="M509.24,713.33v-.39s.39.12.39.12c14.21,4.37,28.82,7.43,43.55,9.13,14.73,1.79,29.56,2.43,44.34,2.27,14.78-.18,29.54-1.01,44.17-2.82,14.62-1.88,29.15-4.52,43.35-8.44l.41-.11h.37s.01,0,.01,0l-.76.1,6.14-1.76,3.61-1.03-.03,3.67c-.06,6.03-.66,12.15-1.87,18.1-1.29,5.95-3.16,11.75-5.58,17.32-2.38,5.59-5.47,10.84-8.94,15.8-3.51,4.93-7.41,9.59-11.84,13.71-4.4,4.14-9.19,7.85-14.26,11.12-5.1,3.21-10.49,5.97-16.11,8.15-11.21,4.41-23.27,6.57-35.27,6.5-12-.08-24-2.37-35.08-6.94-5.53-2.28-10.86-5.06-15.84-8.36-4.96-3.33-9.62-7.08-13.88-11.25-8.37-8.45-15.36-18.33-19.85-29.33-4.65-10.91-6.97-22.74-7.05-34.58l.02-.98ZM511.5,731.85c1.16,5.77,3.01,11.4,5.39,16.77,4.71,10.79,11.82,20.43,20.34,28.43,8.65,7.87,18.67,14.23,29.57,18.35,5.44,2.08,11.07,3.6,16.78,4.66,5.72,1,11.53,1.52,17.33,1.47,11.6-.11,23.18-2.36,33.88-6.76,5.36-2.16,10.49-4.89,15.33-8.04,4.81-3.2,9.33-6.81,13.47-10.82,4.17-3.98,7.82-8.48,11.08-13.21,3.24-4.75,6.05-9.8,8.21-15.11,2.19-5.3,3.84-10.81,4.96-16.43,1.04-5.65,1.49-11.33,1.44-17.1l3.58,2.64-6.3,1.93-.32.1h-.44s-.01,0-.01,0l.78-.11c-14.46,4.17-29.25,7.17-44.18,8.86-14.92,1.76-29.96,2.42-44.95,1.85-14.98-.57-29.9-2.23-44.62-4.84-14.71-2.68-29.22-6.25-43.39-10.87l.39-.27-.04.95c.02,5.89.56,11.77,1.71,17.54Z"/>
              <g class="cls-41">
                <circle class="cls-38" cx="742.47" cy="595.12" r="74.18" transform="translate(-203.35 699.31) rotate(-45)"/>
              </g>
              <g class="cls-59">
                <circle class="cls-37" cx="458.24" cy="587.5" r="74.18"/>
              </g>
              <g>
                <g class="cls-28">
                  <circle class="cls-23" cx="435.45" cy="683.6" r="74.18"/>
                </g>
                <g class="cls-39">
                  <circle class="cls-17" cx="762.78" cy="684.89" r="74.18" transform="translate(-89.96 115.91) rotate(-8.21)"/>
                </g>
              </g>
              <path class="cls-57" d="M494.93,510.24c1.87,1.46,4.58-.26,3.99-2.55,0-.02-.01-.04-.02-.06-.55-2.15-1.32-4.26-2.3-6.28-1.93-4.07-4.74-7.83-8.23-11.06-3.49-3.23-7.76-5.83-12.42-7.48-4.65-1.66-9.64-2.35-14.45-2.19-4.82.15-9.52,1.04-13.82,2.61-2.21.68-4.22,1.7-6.26,2.64-1.99,1.01-3.88,2.18-5.74,3.35-7.26,4.95-13.33,11.12-17.58,18.85,8.61-1.95,16.08-4.6,23.37-6.58l5.36-1.37c1.77-.35,3.49-.85,5.21-1.1,3.42-.7,6.74-1.04,9.95-1.15,6.44-.24,12.44.81,18.67,3.55,4.71,2.06,9.4,5.06,14.25,8.84Z"/>
              <path class="cls-57" d="M708.19,512.65c-2.05,1.19-4.51-.87-3.61-3.07,0-.02.02-.04.03-.06.84-2.05,1.88-4.04,3.13-5.92,2.47-3.77,5.76-7.12,9.65-9.85,3.89-2.73,8.48-4.73,13.32-5.73,4.84-1.02,9.87-1.02,14.62-.22,4.76.8,9.29,2.32,13.34,4.45,2.09.97,3.95,2.25,5.85,3.46,1.84,1.27,3.55,2.68,5.23,4.1,6.52,5.89,11.71,12.82,14.87,21.06-8.27-3.09-15.31-6.73-22.26-9.68l-5.13-2.08c-1.71-.58-3.35-1.32-5.01-1.79-3.3-1.16-6.54-1.94-9.71-2.49-6.35-1.11-12.44-.88-18.98.99-4.95,1.41-9.99,3.74-15.32,6.83Z"/>
              <path class="cls-15" d="M508.4,348.19c43.14-8.41,88.8-3.01,128.34,20.45,46.21,27.74,96.72,45.78,130.18,84.41-3.6-.49-7.29-.74-11.08-.7-78.44.7-175.6-56.41-175.6-56.41,22.38,41.24,68.64,58.38,68.64,58.38-70.35,2.67-154.35-36.65-154.35-36.65,34.24,49.49,149.59,78.4,149.59,78.4-88.93,13.38-202.81-30.79-268.2-95.2,36.84-29.49,85.3-44.29,132.47-52.68Z"/>
              <path class="cls-45" d="M907.27,282.06c-66.91-138.06-254.41-196.43-396.01-156.72-69.01,19.35-165.42,63.52-177.19,143.65-44.94,7.33-104.62,57.73-96.47,144.32,9.51,101.1,88.32,164.3,88.32,164.3,1.57-29.58,40.09-82.9,65.09-127.68,7.35-13.17,10.98-28.68,12.46-44,66.9,55.39,168.95,91.2,250.2,78.98,0,0-115.36-28.91-149.59-78.4,0,0,83.99,39.32,154.35,36.65,0,0-46.26-17.14-68.64-58.38,0,0,97.16,57.1,175.6,56.41,78.44-.7,111.66,138.58,111.66,138.58,0,0,101.87-149.87,30.23-297.71Z"/>
              <path class="cls-54" d="M919.29,363.41c-3.36,7.05-7.12,14.01-11.37,20.86-25.8,41.56-63.91,54.36-105.52,56.08,27.45,15.64,43.55,44.8,52.18,77.75,15.37,31.93,22.47,61.67,22.47,61.67,0,0,24.86-36.59,41.38-91.44,8.44-41.69,11.19-85.32.87-124.92Z"/>
              <path class="cls-54" d="M295.92,452.27c-29.22-13.28-44.7-38.32-48.9-66.26-4.1,37.14,2.85,75.8,16.2,111.98,26.31,50.43,62.7,79.63,62.7,79.63.68-12.76,8.23-29.93,18.6-48.92,11.31-33.41,29.5-64.64,43.55-97.99-25.74,23.06-62.07,34.23-92.16,21.56Z"/>
              <path class="cls-4" d="M305.09,327.49c1.37-3.62,3.16-7.01,5.15-9.92,6.31-9.24,15.36-16.62,25.75-20.8-1.23.49-2.72,4.76-3.26,5.94-1.01,2.19-1.86,4.46-2.52,6.78-1.3,4.57-1.9,9.38-1.5,14.12.38,4.52,1.39,9.35,4.65,12.67,3.31,3.38,7.94,4.72,12.52,5.29-6.91,5.49-10.6,14.82-10.22,23.37.58,22.06,30.97,30.69,48.49,21.98,1.11-.47,2.2-.96,3.3-1.44,0,7.59-6.01,14.3-13.1,17.14-7.26,2.9-15.38,2.53-23.13,1.56-8.01-1-16.09-2.65-23.16-6.54s-13.08-10.3-14.92-18.16c-1.84-7.86,1.28-17.05,8.35-20.94-6.7,3.28-15.1-2.05-17.65-9.07-2.48-6.84-1.45-14.84,1.24-21.97Z"/>
              <path class="cls-31" d="M765.88,443.97c-2.76-1.65-5.62-3.17-8.36-4.87l-4.06-2.63-2.04-1.31-1.97-1.41-3.95-2.82-3.82-2.99-1.92-1.5-1.84-1.59c-1.22-1.07-2.47-2.12-3.67-3.21-4.73-4.45-9.35-9.09-13.48-14.19-4.19-5.05-8.08-10.42-11.27-16.29,1.79,6.47,4.81,12.58,8.21,18.43,3.52,5.78,7.45,11.37,11.95,16.51,1.13,1.28,2.3,2.51,3.45,3.78l1.75,1.88,1.83,1.79c1.22,1.19,2.43,2.41,3.69,3.56l.24.2c-6.93-1.83-13.83-3.76-20.72-5.7-14.77-4.21-29.44-8.71-44.05-13.41-14.6-4.73-29.03-9.93-43.44-15.31-13.13-5.11-26.1-10.63-39.07-16.52-1.32-1.81-2.61-3.65-3.87-5.51-2.44-3.79-4.84-7.64-6.91-11.72,1.07,4.45,2.64,8.8,4.44,13.05.94,2.1,1.88,4.22,2.9,6.29,1.1,2.03,2.12,4.12,3.32,6.1,4.61,8.06,10.15,15.67,16.59,22.5.8.86,1.55,1.77,2.39,2.59l2.55,2.43,2.56,2.44c.85.82,1.7,1.64,2.63,2.36l5.5,4.46,1.39,1.11,1.46,1.01,1.95,1.35c-5-.53-9.99-1.1-14.98-1.71-14.41-1.89-28.75-4.3-43-7.19-14.28-2.81-28.34-6.53-42.35-10.63-3.48-1.08-6.95-2.2-10.47-3.24-3.48-1.11-6.89-2.44-10.35-3.65-1.72-.63-3.47-1.2-5.21-1.81-1.73-.63-3.4-1.38-5.11-2.06-2.16-.88-4.36-1.72-6.54-2.57-4.13-3.09-8.23-6.24-12.25-9.49,5.78,5.95,11.94,11.54,18.26,16.95,3.16,2.7,6.37,5.34,9.61,7.96l9.88,7.63,10.1,7.35,10.37,6.99c3.46,2.33,7.04,4.46,10.57,6.7,1.78,1.09,3.51,2.26,5.33,3.28l5.45,3.09c7.2,4.24,14.69,7.96,22.13,11.79,3.76,1.84,7.59,3.53,11.4,5.26l5.73,2.58,5.85,2.31,11.71,4.59,8.99,3c-1.41.01-2.83.04-4.24.03-10.7-.02-21.43-.61-32.09-1.76-21.32-2.42-42.51-6.5-63.11-12.79-10.32-3.06-20.56-6.48-30.56-10.53-5.05-1.91-9.97-4.14-14.96-6.21-2.47-1.09-4.91-2.26-7.37-3.39-2.45-1.14-4.92-2.25-7.32-3.51-19.42-9.57-38.1-20.73-56.16-33,16.54,14.26,34.58,26.84,53.63,37.78,2.36,1.41,4.79,2.68,7.21,3.98,2.43,1.28,4.84,2.61,7.28,3.86,4.94,2.4,9.83,4.95,14.9,7.08,10.03,4.54,20.34,8.47,30.78,12.03,10.46,3.5,21.13,6.39,31.9,8.84,10.77,2.48,21.69,4.31,32.68,5.58,10.99,1.28,22.05,1.98,33.15,2.09,5.55-.01,11.1-.15,16.65-.51,2.78-.19,5.56-.41,8.34-.69,2.82-.31,5.5-.62,8.49-1.13l22.78-3.9-22.58-5.71-11.85-3-5.93-1.5-5.85-1.79-11.71-3.59-11.52-4.19-5.76-2.11-5.66-2.38c-3.76-1.62-7.58-3.11-11.33-4.76-7.43-3.46-14.93-6.8-22.17-10.68l-5.48-2.82c-1.83-.94-3.61-1.97-5.41-2.95-3.58-2.01-7.24-3.9-10.78-6.01l-10.61-6.32-10.47-6.58c-5.44-3.52-10.81-7.17-16.13-10.9,1.07.6,2.14,1.21,3.23,1.79,3.28,1.74,6.53,3.6,9.88,5.25,3.36,1.61,6.76,3.13,10.16,4.7,13.7,5.9,27.84,10.95,42.3,14.69,14.44,3.85,29.11,6.83,43.9,8.89,3.71.46,7.4.99,11.12,1.4,3.72.34,7.43.77,11.16,1.04l5.59.42,5.61.29c3.77.17,7.45.3,11.36.3h32.64s-30.4-11.93-30.4-11.93c-8.07-3.17-16.12-6.54-23.55-11.12-7.6-4.28-14.62-9.58-21.28-15.33-1.62-1.49-3.35-2.88-4.9-4.45l-4.71-4.69-4.48-4.93c-1.51-1.65-2.85-3.42-4.3-5.13-.83-1.05-1.63-2.14-2.43-3.21,4.58,3.3,9.24,6.55,14.12,9.4,3.35,1.99,6.62,4.16,10.07,5.97l10.32,5.53c13.91,7.07,28.24,13.33,42.84,18.81,14.61,5.45,29.46,10.24,44.47,14.4,15.04,4.16,30.13,7.74,45.62,10.5l26.76,4.76-23.29-13.93Z"/>
              <path class="cls-44" d="M777.62,174.96c2.38,1.33,4.7,2.74,6.97,4.19,2.3,1.42,4.57,2.87,6.8,4.37,4.47,2.98,8.89,5.99,13.15,9.17,8.6,6.26,16.81,12.89,24.66,19.79,7.78,6.96,15.28,14.13,22.18,21.72,6.94,7.55,13.54,15.34,19.4,23.54,5.94,8.15,11.33,16.6,16.11,25.32,4.71,8.74,8.9,17.71,12.37,26.93,3.37,9.23,6.37,18.62,8.34,28.23,2.33,9.56,3.41,19.34,4.57,29.16.43-9.89.29-19.85-1.08-29.7l-.48-3.7-.25-1.85-.36-1.83-1.44-7.34-.37-1.84-.48-1.81-.98-3.62c-.68-2.41-1.23-4.85-2.09-7.21l-2.39-7.15c-.84-2.37-1.88-4.68-2.81-7.02l-1.44-3.5-1.61-3.44c-1.1-2.29-2.14-4.6-3.29-6.86-4.71-9.03-10.2-17.73-16.2-26.15-6.13-8.35-12.91-16.32-20.2-23.91-7.36-7.54-15.14-14.77-23.53-21.44-8.33-6.73-17.19-12.95-26.41-18.71-4.63-2.86-9.35-5.61-14.2-8.19-4.85-2.58-9.8-5.02-14.93-7.15Z"/>
              <path class="cls-44" d="M809.63,215.49c10.47,9.2,19.76,19.45,28.44,30.13l3.23,4.03c1.07,1.35,2.07,2.75,3.11,4.12,2.04,2.77,4.18,5.46,6.05,8.35,1.9,2.87,3.97,5.61,5.82,8.51l5.46,8.75c.96,1.43,1.77,2.94,2.63,4.43l2.55,4.48,2.55,4.48c.83,1.51,1.54,3.08,2.35,4.59l4.73,9.18c1.42,3.14,2.82,6.28,4.28,9.41l2.16,4.7c.74,1.56,1.27,3.2,1.96,4.79l3.9,9.61,1.01,2.4.86,2.45,1.73,4.9c1.18,3.27,2.37,6.54,3.63,9.8-.65-3.42-1.37-6.83-2.1-10.24l-1.13-5.12-.58-2.56-.73-2.51c-2.09-6.66-3.83-13.48-6.55-19.94-1.25-3.27-2.5-6.55-3.85-9.79l-4.45-9.53c-.75-1.59-1.49-3.18-2.3-4.73l-2.55-4.61-2.55-4.61c-.86-1.53-1.66-3.09-2.63-4.56-7.31-12-15.73-23.32-25.19-33.69-9.47-10.32-19.9-19.91-31.83-27.22Z"/>
              <path class="cls-44" d="M328.82,289.17c-5.03-.24-10.09,1.05-14.83,2.85-.6.21-1.2.45-1.79.69l-1.72.83-3.46,1.68c-1.1.64-2.19,1.32-3.28,1.99-1.06.7-2.24,1.29-3.22,2.1-2.01,1.57-4.13,3.04-6.02,4.76-1.87,1.73-3.73,3.5-5.56,5.28l-5.01,5.77c-.41.48-.84.96-1.23,1.47l-1.11,1.55-2.21,3.1c-3.07,4.07-5.38,8.58-7.9,12.96-.65,1.09-1.15,2.25-1.68,3.39l-1.56,3.44c-1.02,2.3-2.08,4.58-3,6.91-1.65,4.74-3.27,9.48-4.66,14.28-1.13,4.88-2.28,9.74-3.09,14.65,2.35-4.44,4.37-8.95,6.41-13.43,1-2.25,2.2-4.4,3.28-6.6,1.11-2.19,2.17-4.39,3.22-6.58,1.13-2.16,2.37-4.26,3.51-6.4l1.73-3.2c.57-1.07,1.11-2.15,1.79-3.16l3.81-6.16c1.18-2.11,2.62-4.04,4.01-5.99l2.05-2.96,1.03-1.48c.36-.48.76-.92,1.13-1.39l4.49-5.6,4.86-5.25c.77-.93,1.72-1.64,2.57-2.48l2.61-2.46c1.77-1.6,3.7-3,5.53-4.57l2.95-2.05,1.48-1.03,1.55-.91c4.09-2.57,8.49-4.67,13.29-6.01Z"/>
              <path class="cls-44" d="M312.61,308.03c-4.06,2.85-7.66,6.31-11.09,9.89-3.38,3.64-6.55,7.48-9.44,11.53-5.8,8.08-10.59,16.87-14.36,26.06-3.72,9.21-6.47,18.8-8.03,28.57-1.57,9.75-2.11,19.65-1.34,29.43,1.18-9.74,2.71-19.33,4.91-28.75.25-1.18.58-2.35.89-3.51.31-1.17.57-2.34.9-3.51.68-2.32,1.3-4.65,2.08-6.93,1.41-4.61,3.07-9.14,4.91-13.59,1.76-4.49,3.81-8.86,5.99-13.16,2.14-4.33,4.57-8.51,7.07-12.65,2.55-4.11,5.25-8.15,8.16-12.06,2.9-3.92,5.97-7.73,9.34-11.33Z"/>
              <path class="cls-44" d="M356.57,255.74c1.42-3.89,3.19-7.59,5.09-11.22,1.93-3.61,3.93-7.16,6.2-10.56,1.08-1.73,2.25-3.39,3.38-5.08,1.21-1.64,2.34-3.32,3.61-4.91,1.26-1.59,2.46-3.23,3.77-4.78,1.27-1.58,2.56-3.14,3.93-4.64,10.74-12.13,22.95-22.88,36.26-32.11,13.23-9.36,27.54-17.17,42.29-24.15,14.79-6.92,30.13-12.77,45.74-18.27-16.35,2.6-32.44,7.03-47.95,13.11-15.51,6.06-30.51,13.74-44.21,23.42-13.75,9.57-26.23,21.14-36.46,34.46-5.12,6.65-9.67,13.73-13.42,21.21-1.87,3.74-3.54,7.58-4.96,11.5-1.4,3.92-2.63,7.92-3.28,12.02Z"/>
              <g>
                <g>
                  <ellipse class="cls-57" cx="459.18" cy="577.61" rx="24.01" ry="30.08" transform="translate(-3.04 2.43) rotate(-.3)"/>
                  <path class="cls-57" d="M425.79,560.83c3.25-5.75,8.2-10.25,13.81-13.57,5.64-3.29,12.21-5.21,18.9-5.21,6.68,0,13.35,2.03,18.9,5.58,5.56,3.58,10.17,8.4,13.29,14.18-5.64-2.93-10.91-5.64-16.23-7.51-5.31-1.89-10.63-2.86-15.99-2.89-5.35,0-10.75.92-16.18,2.61-5.43,1.69-10.85,4-16.51,6.82Z"/>
                </g>
                <path class="cls-58" d="M475.4,574.54c.06,9.49-7.16,17.24-16.12,17.31-8.97.07-16.29-7.57-16.35-17.07-.06-9.49,7.16-17.24,16.12-17.31,8.97-.07,16.29,7.57,16.35,17.07Z"/>
                <path class="cls-33" d="M464.89,559.78c.02,3.59-2.7,6.52-6.09,6.54-3.39.03-6.16-2.86-6.18-6.45-.02-3.59,2.7-6.52,6.09-6.54,3.39-.03,6.16,2.86,6.18,6.45Z"/>
              </g>
              <g>
                <g>
                  <ellipse class="cls-57" cx="744.22" cy="577.61" rx="30.08" ry="24.01" transform="translate(162.69 1318.78) rotate(-89.7)"/>
                  <path class="cls-57" d="M777.62,560.83c-3.25-5.75-8.2-10.25-13.81-13.57-5.64-3.29-12.21-5.21-18.9-5.21-6.68,0-13.35,2.03-18.9,5.58-5.56,3.58-10.17,8.4-13.29,14.18,5.64-2.93,10.91-5.64,16.23-7.51,5.31-1.89,10.63-2.86,15.99-2.89,5.35,0,10.75.92,16.18,2.61,5.43,1.69,10.85,4,16.51,6.82Z"/>
                </g>
                <ellipse class="cls-58" cx="744.24" cy="574.66" rx="16.24" ry="17.19"/>
                <path class="cls-33" d="M738.52,559.78c-.02,3.59,2.7,6.52,6.09,6.54,3.39.03,6.16-2.86,6.18-6.45.02-3.59-2.7-6.52-6.09-6.54-3.39-.03-6.16,2.86-6.18,6.45Z"/>
              </g>
              <g>
                <path class="cls-48" d="M356.42,605.46c-5.69-20.09-18.82-36.5-35.65-42.94-16.25-6.22-41.97-8.06-60.03,22.8-36.13,61.71,28.65,145.94,92.05,114.73,0,0,21.92-30.07,3.64-94.59Z"/>
                <g class="cls-27">
                  <path class="cls-26" d="M324.09,625.26c-2.19-10.53-8.07-21.08-16.81-23.92-10.81-3.51-21.89,7.02-23.97,19.97-2.08,12.95,3.1,26.7,10.81,36.66,7.07,9.14,18.63,15.99,27.27,9.98,6.6-4.59,8.74-15.05,7.89-24.36-.85-9.31-5.19-18.33-5.19-18.33Z"/>
                </g>
                <path class="cls-30" d="M291.07,603.99c1.3-1.57,2.86-2.85,4.53-3.97,1.72-1.02,3.58-1.82,5.55-2.21,1.99-.37,4.01-.4,6.17.12l.43.12c.11.03.47.16.51.19l.69.31,1.38.65c.93.42,1.78,1.02,2.68,1.53.89.53,1.7,1.23,2.55,1.86.82.69,1.61,1.44,2.4,2.17,1.5,1.6,2.93,3.31,4.16,5.21,2.46,3.79,4.29,8.04,5.49,12.41,1.19,4.37,1.86,8.83,2.12,13.23.43,8.8-.46,17.48-2.92,25.44-.15-8.55-.69-16.89-2.01-24.9-.05-.28-.11-.56-.16-.84-.63-1.1-1.27-2.18-1.95-3.19-.91-1.42-1.92-2.67-2.95-3.84-1.06-1.13-2.19-2.11-3.4-2.92-2.41-1.63-5.21-2.53-8.27-2.82-3.07-.3-6.32-.09-9.78.39,2.57-2.61,5.93-4.21,9.56-4.8,3.62-.58,7.71.15,11.08,2.44.79.53,1.53,1.14,2.23,1.79-1.09-2.82-2.38-5.48-3.95-7.86-1.94-3.02-4.31-5.58-7.03-7.59-.7-.46-1.36-1.03-2.09-1.42l-1.08-.63-.54-.32c-.16-.09-.02-.03-.12-.07l-.21-.09c-1.29-.47-2.83-.72-4.32-.67-1.51.05-3.01.39-4.52.89-1.46.61-2.96,1.32-4.33,2.36-2.83,1.95-5.32,4.74-7.78,7.74,1.28-3.93,3.21-7.61,5.84-10.71Z"/>
              </g>
              <g>
                <path class="cls-48" d="M850.48,605.46c5.69-20.09,18.82-36.5,35.65-42.94,16.25-6.22,41.97-8.06,60.03,22.8,36.13,61.71-28.65,145.94-92.05,114.73,0,0-21.92-30.07-3.64-94.59Z"/>
                <g class="cls-55">
                  <path class="cls-12" d="M882.81,625.26c2.19-10.53,8.07-21.08,16.81-23.92,10.81-3.51,21.89,7.02,23.97,19.97,2.08,12.95-3.1,26.7-10.81,36.66-7.07,9.14-18.63,15.99-27.27,9.98-6.6-4.59-8.74-15.05-7.89-24.36.85-9.31,5.19-18.33,5.19-18.33Z"/>
                </g>
                <path class="cls-30" d="M915.83,603.99c-1.3-1.57-2.86-2.85-4.53-3.97-1.72-1.02-3.58-1.82-5.55-2.21-1.99-.37-4.01-.4-6.17.12l-.43.12c-.11.03-.47.16-.51.19l-.69.31-1.38.65c-.93.42-1.78,1.02-2.68,1.53-.89.53-1.7,1.23-2.55,1.86-.82.69-1.61,1.44-2.4,2.17-1.5,1.6-2.93,3.31-4.16,5.21-2.46,3.79-4.29,8.04-5.49,12.41-1.19,4.37-1.86,8.83-2.12,13.23-.43,8.8.46,17.48,2.92,25.44.15-8.55.69-16.89,2.01-24.9.05-.28.11-.56.16-.84.63-1.1,1.27-2.18,1.95-3.19.91-1.42,1.92-2.67,2.95-3.84,1.06-1.13,2.19-2.11,3.4-2.92,2.41-1.63,5.21-2.53,8.27-2.82,3.07-.3,6.32-.09,9.78.39-2.57-2.61-5.93-4.21-9.56-4.8-3.62-.58-7.71.15-11.08,2.44-.79.53-1.53,1.14-2.23,1.79,1.09-2.82,2.38-5.48,3.95-7.86,1.94-3.02,4.31-5.58,7.03-7.59.7-.46,1.36-1.03,2.09-1.42l1.08-.63.54-.32c.16-.09.02-.03.12-.07l.21-.09c1.29-.47,2.83-.72,4.32-.67,1.51.05,3.01.39,4.52.89,1.46.61,2.96,1.32,4.33,2.36,2.83,1.95,5.32,4.74,7.78,7.74-1.28-3.93-3.21-7.61-5.84-10.71Z"/>
              </g>
              <path class="cls-4" d="M435.45,197.89s-48.43,24.97-14.43,70.07c19.37,21.44,47.61,9.26,55.44,3.57,0,0-8.33,57.24,101.67,72.93,71.09,10.14,104.86-13.16,91.97-31.26,0,0,62.26,23.66,81.56-2.49,0,0,12.34-13.55,6.5-36.53,0,0,37.97,19.39,70.28,3.61,32.31-15.78-38.21-54.52-57.5-53.19,0,0,34.71,11.97,22.68,23.94-12.04,11.97-63.25-13.11-63.25-13.11,0,0,20.19,36.02-26.15,36.2-46.34.19-66.96-11.73-66.96-11.73,0,0-8.55,37.3-71.11,30.93-62.56-6.38-69.12-49.63-69.12-49.63,0,0-18.97,12.76-45.78,3.06-26.81-9.69-15.78-46.39-15.78-46.39Z"/>
              <g>
                <path class="cls-6" d="M441.5,367.38c9.98,8.9,20.02,17.48,30.21,25.89,10.19,8.39,20.54,16.54,31.11,24.37,10.56,7.85,21.24,15.55,32.24,22.82,10.9,7.47,22.21,14.26,33.41,21.63-12.63-4.35-24.98-9.72-36.65-16.29-5.98-3.06-11.56-6.78-17.3-10.25-2.84-1.78-5.55-3.75-8.33-5.62l-4.12-2.88-4.03-3c-10.78-7.97-20.94-16.77-30.49-26.16-9.53-9.39-18.53-19.4-26.04-30.51Z"/>
                <path class="cls-6" d="M605.32,424.28c-5.71-3.94-10.59-8.79-15.1-13.94-4.47-5.18-8.46-10.77-11.97-16.67-3.5-5.91-6.38-12.2-8.63-18.72-2.15-6.56-3.53-13.44-3.5-20.35,3.22,6.15,6.11,12.06,9.27,17.86,3.2,5.77,6.4,11.49,9.75,17.16l10.16,17.05c3.4,5.73,6.8,11.49,10.02,17.61Z"/>
                <path class="cls-6" d="M715.91,421.46c-11.17-1.01-22.11-3.6-32.8-6.89-10.71-3.28-21.13-7.5-31.21-12.46-10.09-4.93-19.69-10.93-28.67-17.7-8.98-6.77-17.1-14.75-23.87-23.64,9.13,6.53,18.01,12.85,27.39,18.49,9.43,5.53,18.89,10.91,28.71,15.69,9.78,4.84,19.73,9.38,29.8,13.78,10.1,4.33,20.29,8.51,30.65,12.73Z"/>
              </g>
            </g>
          </g>
        </g>
      </g>
    </g>
  </g>
</svg>