<?xml version="1.0" encoding="UTF-8"?>
<svg xmlns="http://www.w3.org/2000/svg" xmlns:xlink="http://www.w3.org/1999/xlink" viewBox="-35.02 0 258.9 258.9">
  <defs>
    <style>
      .cls-1 {
        fill: #cc5523;
      }

      .cls-2 {
        opacity: .66;
      }

      .cls-2, .cls-3, .cls-4, .cls-5, .cls-6, .cls-7, .cls-8, .cls-9 {
        mix-blend-mode: multiply;
      }

      .cls-2, .cls-9 {
        fill: #f4955d;
      }

      .cls-10 {
        mask: url(#mask-1);
      }

      .cls-3 {
        fill: url(#radial-gradient-3);
      }

      .cls-11 {
        fill: #a53c0b;
      }

      .cls-4 {
        fill: url(#radial-gradient);
      }

      .cls-12 {
        fill: #fff;
      }

      .cls-13 {
        mask: url(#mask);
      }

      .cls-5 {
        fill: #f7955d;
      }

      .cls-5, .cls-9 {
        opacity: .55;
      }

      .cls-14 {
        mask: url(#mask-2);
      }

      .cls-15 {
        filter: url(#luminosity-noclip-3);
      }

      .cls-16 {
        fill: #70b86a;
      }

      .cls-17 {
        isolation: isolate;
      }

      .cls-18 {
        fill: #fdc18f;
      }

      .cls-19 {
        fill: #97f58e;
      }

      .cls-6 {
        fill: #ef965e;
        opacity: .55;
      }

      .cls-20 {
        fill: #8c2f2a;
      }

      .cls-7 {
        fill: url(#radial-gradient-4);
      }

      .cls-7, .cls-8 {
        opacity: .89;
      }

      .cls-8 {
        fill: url(#radial-gradient-2);
      }

      .cls-21 {
        fill: #622d1b;
      }

      .cls-22 {
        fill: #b85b21;
      }

      .cls-23 {
        fill: #a3480f;
      }

      .cls-24 {
        fill: #53944d;
      }

      .cls-25 {
        fill: #fd827e;
      }

      .cls-26 {
        fill: #ebab09;
      }

      .cls-27 {
        mask: url(#mask-3);
      }

      .cls-28 {
        filter: url(#luminosity-noclip);
      }
    </style>
    <filter id="luminosity-noclip" x="39.14" y="103.4" width="38.65" height="38.65" color-interpolation-filters="sRGB" filterUnits="userSpaceOnUse">
      <feFlood flood-color="#fff" result="bg"/>
      <feBlend in="SourceGraphic" in2="bg"/>
    </filter>
    <filter id="luminosity-noclip-2" x="39.14" y="-7561.18" width="38.65" height="32766" color-interpolation-filters="sRGB" filterUnits="userSpaceOnUse">
      <feFlood flood-color="#fff" result="bg"/>
      <feBlend in="SourceGraphic" in2="bg"/>
    </filter>
    <mask id="mask-1" x="39.14" y="-7561.18" width="38.65" height="32766" maskUnits="userSpaceOnUse"/>
    <radialGradient id="radial-gradient" cx="-3204.22" cy="-201.56" fx="-3204.22" fy="-201.56" r="19.6" gradientTransform="translate(2898.19 595.91) rotate(5.86) scale(.9)" gradientUnits="userSpaceOnUse">
      <stop offset="0" stop-color="#f7f7f7"/>
      <stop offset="1" stop-color="#fff"/>
    </radialGradient>
    <mask id="mask" x="39.14" y="103.4" width="38.65" height="38.65" maskUnits="userSpaceOnUse">
      <g class="cls-28">
        <g class="cls-10">
          <circle class="cls-4" cx="58.46" cy="122.72" r="19.32" transform="translate(-24.63 15.13) rotate(-12.21)"/>
        </g>
      </g>
    </mask>
    <radialGradient id="radial-gradient-2" cx="-3204.22" cy="-201.56" fx="-3204.22" fy="-201.56" r="19.6" gradientTransform="translate(2898.19 595.91) rotate(5.86) scale(.9)" gradientUnits="userSpaceOnUse">
      <stop offset="0" stop-color="#f59c76"/>
      <stop offset=".43" stop-color="#f9cab6"/>
      <stop offset=".81" stop-color="#fdf0ea"/>
      <stop offset="1" stop-color="#fff"/>
    </radialGradient>
    <filter id="luminosity-noclip-3" x="107.68" y="101.24" width="38.65" height="38.65" color-interpolation-filters="sRGB" filterUnits="userSpaceOnUse">
      <feFlood flood-color="#fff" result="bg"/>
      <feBlend in="SourceGraphic" in2="bg"/>
    </filter>
    <filter id="luminosity-noclip-4" x="107.68" y="-7561.18" width="38.65" height="32766" color-interpolation-filters="sRGB" filterUnits="userSpaceOnUse">
      <feFlood flood-color="#fff" result="bg"/>
      <feBlend in="SourceGraphic" in2="bg"/>
    </filter>
    <mask id="mask-3" x="107.68" y="-7561.18" width="38.65" height="32766" maskUnits="userSpaceOnUse"/>
    <radialGradient id="radial-gradient-3" cx="-3127.99" cy="-195.51" fx="-3127.99" fy="-195.51" r="19.6" gradientTransform="translate(1919.39 2285.1) rotate(46.8) scale(.9)" xlink:href="#radial-gradient"/>
    <mask id="mask-2" x="107.68" y="101.24" width="38.65" height="38.65" maskUnits="userSpaceOnUse">
      <g class="cls-15">
        <g class="cls-27">
          <circle class="cls-3" cx="127" cy="120.56" r="19.32" transform="translate(-45.64 149.86) rotate(-53.14)"/>
        </g>
      </g>
    </mask>
    <radialGradient id="radial-gradient-4" cx="-3127.99" cy="-195.51" fx="-3127.99" fy="-195.51" r="19.6" gradientTransform="translate(1919.39 2285.1) rotate(46.8) scale(.9)" xlink:href="#radial-gradient-2"/>
  </defs>
  <g class="cls-17">
    <g id="Layer_2" data-name="Layer 2">
      <g id="Girl_02" data-name="Girl 02">
        <g>
          <path class="cls-11" d="M188.86,154.63c-10.55-17.78-8.92-40.17-9.85-60.25C177.46,48.05,144.17,1.08,94.9.02c0,0,0-.02,0-.02-.16,0-.31,0-.46.01-.15,0-.31,0-.46-.01,0,0,0,.02,0,.02C44.69,1.08,11.39,48.05,9.85,94.37c-.93,20.09.7,42.47-9.85,60.25,8.77-4.62,15.68-12.93,18.19-22.65,0,.09,0,.19,0,.28-.26,14.42,7.46,27.42,19.48,34.19-4.16-7.34-5.57-16.58-2.58-29.02,1.27,16.6-.23,39.68,56.2,36.67,1.13-3.86,2.17-7.77,3.14-11.71.97,3.94,2.02,7.85,3.14,11.71,56.42,3.01,54.92-20.08,56.2-36.67,2.99,12.44,1.58,21.68-2.58,29.02,6.97-3.93,12.49-9.94,15.85-17.12.32,6.2-1.69,11.34-4.3,16.22,8.03-6.6,11.47-14.89,12.32-23.6,3.42,5.32,8.23,9.74,13.8,12.67Z"/>
          <g>
            <path class="cls-18" d="M124.03,179.5c-7.43,10.82-19.31,13.82-30.61,14.65-11.3.83-23.29-3.76-29.7-13.09,6.68-1.9,12.37-5.97,15.79-11.5.17-.27.33-.55.49-.83.95-1.68,1.69-3.47,2.21-5.33,1.16-4.09,1.28-8.48.27-12.6,7.3-2.15,15.84-1.93,23.5.81-.53,3.97-.1,7.84,1.12,11.39.65,1.9,1.52,3.71,2.59,5.4.12.19.24.37.36.55,3.31,4.94,8.33,8.72,13.99,10.56Z"/>
            <path class="cls-6" d="M109.69,168.39c-9.51,2.76-20.44,3.46-29.68.33.95-1.68,1.69-3.47,2.21-5.33,1.16-4.09,1.28-8.48.27-12.6,7.3-2.15,15.84-1.93,23.5.81-.53,3.97-.1,7.84,1.12,11.39.65,1.9,1.52,3.71,2.59,5.4Z"/>
          </g>
          <g>
            <path class="cls-16" d="M118.6,169.79c-10.89,15.11-33.76,20.73-43.36.31-35.94,6.13-47.35,47.15-51.73,78.55,44.57,14.37,93.84,13.72,136.71-2.41,2.4-27.91-17.6-68.16-41.62-76.45Z"/>
            <g>
              <path class="cls-19" d="M96.68,190.34s-.04,0-.05,0c-13.13-.7-22.2-6.34-25.55-15.86-.18-.52.09-1.09.61-1.27.52-.18,1.09.09,1.27.61,3.11,8.84,11.33,13.87,23.77,14.53.55.03.97.5.94,1.05-.03.53-.47.94-1,.94Z"/>
              <path class="cls-24" d="M99.47,217.99c-2.02,0-4.04-.64-5.35-1.84-1.72-1.57-1.99-3.59-2.13-5.52-.32-4.6-.36-9.26-.15-13.87.03-.65.58-1.15,1.23-1.12.65.03,1.15.58,1.12,1.23-.21,4.51-.17,9.09.14,13.59.11,1.58.29,2.96,1.37,3.95,1.42,1.29,4.46,1.61,6.39.67.58-.28,1.29-.04,1.57.54.29.58.04,1.29-.54,1.57-1.1.54-2.37.79-3.65.79Z"/>
              <circle class="cls-19" cx="99" cy="200.95" r="2.33"/>
              <circle class="cls-19" cx="99" cy="209.99" r="2.33"/>
              <path class="cls-24" d="M44.56,247.67c-.53,0-.98-.42-1-.96-.6-17.37,2.65-35.02,9.4-51.03.21-.51.8-.75,1.31-.53.51.21.75.8.53,1.31-6.64,15.75-9.83,33.11-9.25,50.19.02.55-.41,1.01-.96,1.03-.01,0-.02,0-.04,0Z"/>
              <path class="cls-24" d="M49.81,205.8c-.46,0-.87-.32-.97-.78-.65-2.91-1.92-5.73-3.65-8.15-.32-.45-.22-1.07.23-1.39.45-.32,1.07-.22,1.39.23,1.89,2.64,3.26,5.71,3.98,8.88.12.54-.22,1.07-.75,1.19-.07.02-.15.02-.22.02Z"/>
              <path class="cls-24" d="M44.56,247.67c-.53,0-.98-.42-1-.96-.6-17.37,2.65-35.02,9.4-51.03.21-.51.8-.75,1.31-.53.51.21.75.8.53,1.31-6.64,15.75-9.83,33.11-9.25,50.19.02.55-.41,1.01-.96,1.03-.01,0-.02,0-.04,0Z"/>
              <path class="cls-24" d="M49.81,205.8c-.46,0-.87-.32-.97-.78-.65-2.91-1.92-5.73-3.65-8.15-.32-.45-.22-1.07.23-1.39.45-.32,1.07-.22,1.39.23,1.89,2.64,3.26,5.71,3.98,8.88.12.54-.22,1.07-.75,1.19-.07.02-.15.02-.22.02Z"/>
              <g>
                <path class="cls-24" d="M140.38,246.98s-.05,0-.08,0c-.55-.04-.96-.52-.92-1.07,1.37-17.29-1.41-34.91-8.05-50.93-.21-.51.03-1.09.54-1.3.51-.21,1.09.03,1.3.54,6.76,16.32,9.6,34.25,8.2,51.85-.04.52-.48.92-.99.92Z"/>
                <path class="cls-24" d="M135.91,203.08c-.55,0-.99-.44-1-.99-.02-3.35,1.47-6.68,3.98-8.9.41-.36,1.04-.33,1.41.09.36.41.33,1.04-.09,1.41-2.08,1.84-3.32,4.61-3.3,7.39,0,.55-.44,1-.99,1h0Z"/>
              </g>
              <path class="cls-19" d="M102.6,190.34c-.44,0-.84-.29-.96-.74-.14-.53.17-1.08.71-1.22,8.93-2.39,15.32-7.14,19.54-14.51.27-.48.88-.64,1.36-.37.48.27.64.88.37,1.36-4.43,7.74-11.41,12.94-20.75,15.44-.09.02-.17.03-.26.03Z"/>
            </g>
          </g>
          <g>
            <path class="cls-18" d="M34.02,97.47c3.42-36.08,2.25-75.79,58.24-73.76,60.33,2.19,54.86,36.28,57.9,72.38,3.42,40.6-23.93,63.85-59.63,62.46-31.86-1.25-59.88-25.5-56.51-61.08Z"/>
            <g>
              <path class="cls-18" d="M41.94,130.1c-.79.2-1.6.33-2.4.4-6.63.58-13.49-1.71-18.27-6.09-4.78-4.38-7.39-10.78-6.94-17.02.31-4.28,2.22-8.69,6.08-10.96,3.32-1.95,7.62-2.02,11.37-.91,2.08.62,4.02,1.57,5.86,2.7.08,1.34.16,2.68.24,4.01.03,2.36.11,4.66.26,6.91.34,5.34,1.02,10.37,2.13,15.07.48,2.03,1.03,3.99,1.68,5.88Z"/>
              <path class="cls-5" d="M40.27,124.22c-7.3-.21-14.34-4.62-17.34-10.91-.68-1.42-1.17-2.96-1.11-4.51.06-1.56.72-3.14,2.01-4.1,2.19-1.63,5.43-1.11,7.97.02,2.4,1.06,4.57,2.58,6.34,4.43.34,5.34,1.02,10.37,2.13,15.07Z"/>
            </g>
            <g>
              <path class="cls-18" d="M143.41,127.66c.79.2,1.6.33,2.4.4,6.63.58,13.49-1.71,18.27-6.09,4.78-4.38,7.39-10.78,6.94-17.02-.31-4.28-2.22-8.69-6.08-10.96-3.32-1.95-7.62-2.02-11.37-.91-2.08.62-4.02,1.57-5.86,2.7-.08,1.34-.16,2.68-.24,4.01-.03,2.36-.11,4.66-.26,6.91-.34,5.34-1.02,10.37-2.13,15.07-.48,2.03-1.03,3.99-1.68,5.88Z"/>
              <path class="cls-9" d="M145.09,121.77c7.3-.21,14.34-4.62,17.34-10.91.68-1.42,1.17-2.96,1.11-4.51-.06-1.56-.72-3.14-2.01-4.1-2.19-1.63-5.43-1.11-7.97.02-2.4,1.06-4.57,2.58-6.34,4.43-.34,5.34-1.02,10.37-2.13,15.07Z"/>
            </g>
            <g>
              <path class="cls-2" d="M148.57,92.63c2.33-5.12,4.24-10.42,5.59-15.89.68-2.73,1.18-5.49,1.64-8.27.1-.6.18-1.2.25-1.79-.29-2.14-.71-4.27-1.27-6.35-4.06-15.17-14.36-28.11-26.67-37.87-6.98-5.53-14.84-10.5-25.43-12.35-23.82-4.15-49.61,7-62.91,27.2-4.14,6.28-7.51,13.71-9.63,21.46.05.08.08.17.09.27.06.82,0,1.64-.02,2.45-.02.8-.02,1.59-.01,2.39.02,1.62.11,3.23.25,4.84.51,5.69,1.8,11.31,3.78,16.67,1.4,3.79,3.16,7.47,5.25,10.94.12-10,1.34-19.97,3.95-29.57,10.18,1.54,21.05-1.83,29.68-8.26,5.53-4.12,10.12-9.48,13.38-15.63,4.89,8.69,12.22,16.01,21,20.75,9.16,4.94,21.54,7.89,31.72,6.21,3.58,9.54,5.66,19.63,5.85,29.63,1.28-2.22,2.45-4.51,3.51-6.84Z"/>
              <path class="cls-11" d="M154.79,57.7c-4.06-15.17-14.36-28.11-26.67-37.87-6.98-5.53-14.84-10.5-25.43-12.35-23.82-4.15-49.61,7-62.91,27.2-13.29,20.2-18.71,52.23-.1,68.54-.73-13.16.31-26.44,3.74-39.07,10.18,1.54,21.05-1.83,29.68-8.26,5.53-4.12,10.12-9.48,13.38-15.63,4.89,8.69,12.22,16.01,21,20.75,9.16,4.94,21.54,7.89,31.72,6.21,4.16,11.08,6.31,22.91,5.8,34.49,10.88-11.33,13.85-28.83,9.78-44Z"/>
            </g>
            <g>
              <path class="cls-11" d="M112.29,66.38c-.08,0-.17-.01-.25-.03-8.17-2.11-14.99-6.56-19.72-12.87-4.92-6.56-7.32-14.84-6.95-23.97.02-.55.48-.97,1.04-.96.55.02.98.49.96,1.04-.35,8.66,1.92,16.51,6.56,22.69,4.46,5.94,10.89,10.14,18.62,12.13.53.14.85.68.72,1.22-.12.45-.52.75-.97.75Z"/>
              <path class="cls-11" d="M62.38,66.38c-.45,0-.86-.31-.97-.76-.13-.54.2-1.07.74-1.2,7.16-1.72,13.93-7.07,18.59-14.67,4.41-7.2,6.63-15.39,8.36-23.18.12-.54.65-.88,1.19-.76.54.12.88.65.76,1.19-1.77,7.95-4.04,16.34-8.61,23.79-4.93,8.05-12.16,13.72-19.82,15.57-.08.02-.16.03-.23.03Z"/>
              <path class="cls-1" d="M17.37,80.56s-.05,0-.08,0c-.55-.04-.96-.53-.91-1.07,1.18-14.73,6.54-29.17,15.51-41.76,8.96-12.59,20.85-22.38,34.38-28.32.5-.22,1.09,0,1.31.51.22.5,0,1.09-.51,1.31-13.2,5.8-24.81,15.36-33.56,27.65-8.75,12.3-13.99,26.39-15.14,40.76-.04.52-.48.92-.99.92Z"/>
              <path class="cls-1" d="M43.9,56.89c-.1,0-.2-.02-.31-.05-.52-.17-.81-.73-.64-1.25,2.34-7.29,6.46-14.16,11.9-19.89,5.44-5.72,12.1-10.18,19.25-12.9.51-.19,1.09.06,1.29.58.2.52-.06,1.09-.58,1.29-6.88,2.61-13.28,6.9-18.51,12.41-5.23,5.51-9.19,12.12-11.45,19.12-.14.42-.53.69-.95.69Z"/>
              <path class="cls-1" d="M32.01,94.33c-.31,0-.61-.14-.8-.4-4.49-6.06-7.26-19.41-4.05-28.86.18-.52.74-.8,1.27-.62.52.18.8.74.62,1.27-3.01,8.87-.44,21.37,3.76,27.04.33.44.23,1.07-.21,1.4-.18.13-.39.2-.59.2Z"/>
              <path class="cls-1" d="M32.01,161.06c-.36,0-.71-.2-.89-.54-3.94-7.6-2.43-21.7,1.44-28.31.28-.48.89-.64,1.36-.36.48.28.63.89.36,1.37-3.96,6.76-4.66,20.08-1.39,26.39.25.49.06,1.09-.43,1.34-.15.08-.3.11-.46.11Z"/>
              <path class="cls-1" d="M50.01,166.8c-.23,0-.47-.08-.66-.25-4.73-4.12-12.47-14.01-11.21-33.91.03-.55.51-.97,1.06-.93.55.03.97.51.93,1.06-1.2,19.04,6.08,28.4,10.53,32.28.41.36.46.99.1,1.41-.2.23-.47.34-.75.34Z"/>
              <path class="cls-1" d="M133.95,65.49s-.07,0-.1,0c-10.29-1.05-20.24-5.15-28.78-11.84-8.54-6.69-14.9-15.37-18.39-25.11-.19-.52.08-1.09.6-1.28.52-.19,1.09.08,1.28.6,3.36,9.38,9.5,17.75,17.75,24.21,8.25,6.46,17.84,10.41,27.76,11.42.55.06.95.55.89,1.09-.05.51-.49.9-.99.9Z"/>
              <path class="cls-1" d="M138.67,58.55s-.06,0-.09,0c-13-1.22-25.53-7.42-34.4-17-.37-.4-.35-1.04.05-1.41.4-.37,1.04-.35,1.41.05,8.54,9.23,20.61,15.19,33.12,16.37.55.05.95.54.9,1.09-.05.52-.48.9-.99.9Z"/>
              <path class="cls-1" d="M165.27,61.92c-.42,0-.8-.26-.94-.68-8.81-26.03-31.78-46.93-58.52-53.24-.54-.13-.87-.66-.74-1.2.13-.54.66-.87,1.2-.74,27.4,6.47,50.93,27.88,59.95,54.55.18.52-.1,1.09-.63,1.26-.11.04-.21.05-.32.05Z"/>
              <path class="cls-1" d="M153.71,89.66c-.18,0-.36-.05-.53-.15-.47-.29-.61-.91-.31-1.38,6.33-10.08,6.43-23.69.26-33.86-.29-.47-.14-1.08.34-1.37.47-.29,1.08-.14,1.37.34,6.55,10.8,6.44,25.25-.27,35.96-.19.3-.51.47-.85.47Z"/>
              <path class="cls-1" d="M176.72,132.87c-.38,0-.74-.21-.9-.58-3.1-6.63-2.92-16.53-2.74-27.01.13-7.41.26-15.06-.8-21.73-.09-.54.28-1.05.83-1.14.55-.09,1.06.28,1.14.83,1.09,6.84.95,14.59.82,22.08-.18,10.24-.35,19.92,2.55,26.13.23.5.02,1.09-.48,1.33-.14.06-.28.09-.42.09Z"/>
              <path class="cls-1" d="M156.19,161.82c-.19,0-.38-.05-.55-.16-.46-.3-.59-.92-.29-1.38,6.93-10.6,6.23-21.41,3.25-27.99-.23-.5,0-1.09.5-1.32.5-.23,1.09,0,1.32.5,3.19,7.06,3.98,18.63-3.4,29.9-.19.29-.51.45-.84.45Z"/>
            </g>
            <g>
              <g class="cls-13">
                <circle class="cls-8" cx="58.46" cy="122.72" r="19.32" transform="translate(-24.63 15.13) rotate(-12.21)"/>
              </g>
              <g class="cls-14">
                <circle class="cls-7" cx="127" cy="120.56" r="19.32" transform="translate(-45.64 149.86) rotate(-53.14)"/>
              </g>
              <g>
                <path class="cls-20" d="M107.69,135.25c-.22.19-.44.38-.67.56-8.5,6.53-21.85,3.69-26.96,1.08-.09-.04-.18-.09-.26-.13-4.22-2.41-8.6-9.66-5.9-14.1.73-1.2,2.06-1.88,3.46-1.88.08,0,.16,0,.23,0,9.58.52,18.83,2.62,28.45-1.13.51-.24,1.02-.31,1.54-.26.72.07,1.45.41,2.15.91,4.57,3.24,2.43,10.96-2.05,14.95Z"/>
                <path class="cls-12" d="M99.6,126.76c-8.79,1.27-22,1.73-22.24-5.98.08,0,.16,0,.23,0,9.58.52,18.83,2.62,28.45-1.13.51-.24,1.02-.31,1.54-.26.65,3.81-3.13,6.7-7.99,7.36Z"/>
                <path class="cls-25" d="M107.69,135.25c-.22.19-.44.38-.67.56-8.5,6.53-21.85,3.69-26.96,1.08,6.54-6.97,20.35-8.34,27.63-1.64Z"/>
              </g>
              <path class="cls-22" d="M93.35,111.18c-2.87,0-5.55-1.56-6.32-3.71-.31-.86-.71-3.09,2.1-5.2l.09-.07.1-.05c1.78-.9,3.16-2.36,3.6-3.82.3-.97.18-1.94-.35-2.88-.36-.64-.13-1.45.51-1.81.64-.36,1.45-.13,1.81.51.89,1.57,1.09,3.29.58,4.96-.64,2.12-2.45,4.12-4.83,5.36-.68.53-1.39,1.31-1.11,2.11.36,1,2.06,2.02,4.03,1.94.73-.03,1.35.54,1.38,1.27.03.73-.54,1.35-1.27,1.38-.11,0-.22,0-.33,0Z"/>
              <g>
                <g>
                  <g>
                    <path class="cls-23" d="M56.8,90.6c-2.77,0-5.31-2.14-5.77-4.87-.1-.57.29-1.11.85-1.2.57-.1,1.11.29,1.2.85.29,1.73,1.96,3.13,3.71,3.13,0,0,0,0,0,0,.58,0,1.04.47,1.04,1.04,0,.58-.47,1.04-1.04,1.04h0Z"/>
                    <path class="cls-23" d="M53.58,94.2c-1.65,0-3.28-.84-4.17-2.25-.31-.49-.17-1.13.32-1.44.49-.31,1.13-.17,1.44.32.63.99,1.96,1.5,3.09,1.19.56-.15,1.13.18,1.28.73.15.56-.18,1.13-.73,1.28-.4.11-.81.16-1.22.16Z"/>
                  </g>
                  <g>
                    <circle class="cls-21" cx="62.19" cy="95.2" r="8.65" transform="translate(-38.24 148.52) rotate(-84.81)"/>
                    <path class="cls-12" d="M67.33,91.89c-.14,1.09-1.14,1.86-2.23,1.72-1.09-.14-1.86-1.14-1.72-2.23.14-1.09,1.14-1.86,2.23-1.72,1.09.14,1.86,1.14,1.72,2.23Z"/>
                  </g>
                </g>
                <path class="cls-11" d="M50.03,78.94c2.8-1.64,5.66-2.58,8.72-3.26,2.23-.5,4.58-.79,6.93-.9,1.17-.06,1.67-1.49.8-2.27-2.3-2.08-5.88-2.71-8.88-2.02-3.87.82-7.9,4.18-7.57,8.45h0Z"/>
              </g>
              <g>
                <g>
                  <g>
                    <path class="cls-23" d="M129.68,89.94h0c-.58,0-1.04-.47-1.04-1.04,0-.58.47-1.04,1.04-1.04,0,0,0,0,0,0,1.75,0,3.42-1.4,3.71-3.13.1-.57.64-.95,1.2-.85.57.1.95.64.85,1.2-.46,2.73-3,4.87-5.77,4.87Z"/>
                    <path class="cls-23" d="M132.91,93.53c-.41,0-.82-.05-1.22-.16-.56-.15-.88-.73-.73-1.28.15-.56.73-.88,1.28-.73,1.13.31,2.46-.21,3.09-1.19.31-.49.96-.63,1.44-.32.49.31.63.95.32,1.44-.89,1.41-2.53,2.25-4.17,2.25Z"/>
                  </g>
                  <g>
                    <circle class="cls-21" cx="124.39" cy="94.53" r="8.65" transform="translate(-25.58 138.33) rotate(-53.51)"/>
                    <path class="cls-12" d="M129.52,91.22c-.14,1.09-1.14,1.86-2.23,1.72-1.09-.14-1.86-1.14-1.72-2.23.14-1.09,1.14-1.86,2.23-1.72,1.09.14,1.86,1.14,1.72,2.23Z"/>
                  </g>
                </g>
                <path class="cls-11" d="M133.06,79.91c-2.8-1.64-5.66-2.58-8.72-3.26-2.23-.5-4.58-.79-6.93-.9-1.17-.06-1.67-1.49-.8-2.27,2.3-2.08,5.88-2.71,8.88-2.02,3.87.82,7.9,4.18,7.57,8.45h0Z"/>
              </g>
            </g>
            <g>
              <path class="cls-26" d="M155.85,58.63c1.34-4.38,6.31-20.31,11.06-10.6,1.42,4.4,3.89,4.79,4.36,7.32.87,4.7-6.11,2.29-12.5,5.38-1.39.67-2.49-1.3-2.92-2.09Z"/>
              <path class="cls-26" d="M156.71,58.01c-4.31.21-20.4-1.32-14.77,7.05.79,1.17,2.42,2.42,2.96,3.71,1.08,2.56,1.64,3.65,3.41,4.48,4.16,1.96,5.19-6.63,9.63-11.97.97-1.16-.6-2.69-1.23-3.28Z"/>
              <ellipse class="cls-26" cx="156.69" cy="59.57" rx="4.56" ry="4.55"/>
            </g>
            <g>
              <path class="cls-26" d="M30.33,55.79c-1.34-4.38-6.31-20.31-11.06-10.6-1.42,4.4-3.89,4.79-4.36,7.32-.87,4.7,6.11,2.29,12.5,5.38,1.39.67,2.49-1.3,2.92-2.09Z"/>
              <path class="cls-26" d="M29.48,55.17c4.31.21,20.4-1.32,14.77,7.05-.79,1.17-2.42,2.42-2.96,3.71-1.09,2.56-1.64,3.65-3.41,4.48-4.16,1.96-5.19-6.63-9.63-11.97-.97-1.16.6-2.69,1.23-3.28Z"/>
              <ellipse class="cls-26" cx="29.49" cy="56.73" rx="4.56" ry="4.55"/>
            </g>
          </g>
        </g>
      </g>
    </g>
  </g>
</svg>