<?xml version="1.0" encoding="UTF-8"?>
<svg xmlns="http://www.w3.org/2000/svg" xmlns:xlink="http://www.w3.org/1999/xlink" viewBox="-54.775 0 253.12 253.12">
  <defs>
    <style>
      .cls-1 {
        mask: url(#mask-1);
      }

      .cls-2 {
        fill: url(#radial-gradient-3);
      }

      .cls-2, .cls-3, .cls-4, .cls-5, .cls-6, .cls-7, .cls-8 {
        mix-blend-mode: multiply;
      }

      .cls-3 {
        fill: url(#radial-gradient);
      }

      .cls-9 {
        fill: #fff;
      }

      .cls-10 {
        mask: url(#mask);
      }

      .cls-4 {
        fill: url(#radial-gradient-2);
      }

      .cls-4, .cls-8 {
        opacity: .78;
      }

      .cls-11 {
        mask: url(#mask-2);
      }

      .cls-12 {
        filter: url(#luminosity-noclip-3);
      }

      .cls-5 {
        fill: #85371f;
      }

      .cls-5, .cls-7 {
        opacity: .35;
      }

      .cls-13 {
        fill: #0d5f9e;
      }

      .cls-14 {
        fill: #36d6eb;
      }

      .cls-15 {
        isolation: isolate;
      }

      .cls-16 {
        fill: #dd8053;
      }

      .cls-17 {
        fill: #ab4c11;
      }

      .cls-18 {
        fill: #18a8cc;
      }

      .cls-19 {
        fill: #452213;
      }

      .cls-7 {
        fill: #a05131;
      }

      .cls-8 {
        fill: url(#radial-gradient-4);
      }

      .cls-20 {
        fill: #065ea1;
      }

      .cls-21 {
        mask: url(#mask-3);
      }

      .cls-22 {
        filter: url(#luminosity-noclip);
      }
    </style>
    <filter id="luminosity-noclip" x="25.71" y="110.67" width="32.84" height="32.84" color-interpolation-filters="sRGB" filterUnits="userSpaceOnUse">
      <feFlood flood-color="#fff" result="bg"/>
      <feBlend in="SourceGraphic" in2="bg"/>
    </filter>
    <filter id="luminosity-noclip-2" x="25.71" y="-8442.71" width="32.84" height="32766" color-interpolation-filters="sRGB" filterUnits="userSpaceOnUse">
      <feFlood flood-color="#fff" result="bg"/>
      <feBlend in="SourceGraphic" in2="bg"/>
    </filter>
    <mask id="mask-1" x="25.71" y="-8442.71" width="32.84" height="32766" maskUnits="userSpaceOnUse"/>
    <radialGradient id="radial-gradient" cx="-3111.66" cy="-291.38" fx="-3111.66" fy="-291.38" r="16.65" gradientTransform="translate(1561.01 2482.19) rotate(51.83) scale(.9)" gradientUnits="userSpaceOnUse">
      <stop offset="0" stop-color="#f7f7f7"/>
      <stop offset="1" stop-color="#fff"/>
    </radialGradient>
    <mask id="mask" x="25.71" y="110.67" width="32.84" height="32.84" maskUnits="userSpaceOnUse">
      <g class="cls-22">
        <g class="cls-1">
          <circle class="cls-3" cx="42.13" cy="127.09" r="16.42" transform="translate(-88.07 95.87) rotate(-58.18)"/>
        </g>
      </g>
    </mask>
    <radialGradient id="radial-gradient-2" cx="-3111.66" cy="-291.38" fx="-3111.66" fy="-291.38" r="16.65" gradientTransform="translate(1561.01 2482.19) rotate(51.83) scale(.9)" gradientUnits="userSpaceOnUse">
      <stop offset="0" stop-color="#e67b4e"/>
      <stop offset=".11" stop-color="#e98b64"/>
      <stop offset=".54" stop-color="#f4c9b6"/>
      <stop offset=".85" stop-color="#fcf0ea"/>
      <stop offset="1" stop-color="#fff"/>
    </radialGradient>
    <filter id="luminosity-noclip-3" x="88.19" y="110.67" width="32.84" height="32.84" color-interpolation-filters="sRGB" filterUnits="userSpaceOnUse">
      <feFlood flood-color="#fff" result="bg"/>
      <feBlend in="SourceGraphic" in2="bg"/>
    </filter>
    <filter id="luminosity-noclip-4" x="88.19" y="-8442.71" width="32.84" height="32766" color-interpolation-filters="sRGB" filterUnits="userSpaceOnUse">
      <feFlood flood-color="#fff" result="bg"/>
      <feBlend in="SourceGraphic" in2="bg"/>
    </filter>
    <mask id="mask-3" x="88.19" y="-8442.71" width="32.84" height="32766" maskUnits="userSpaceOnUse"/>
    <radialGradient id="radial-gradient-3" cx="-3042.42" cy="-283.68" fx="-3042.42" fy="-283.68" r="16.65" gradientTransform="translate(368.34 2854.31) rotate(79.15) scale(.9)" xlink:href="#radial-gradient"/>
    <mask id="mask-2" x="88.19" y="110.67" width="32.84" height="32.84" maskUnits="userSpaceOnUse">
      <g class="cls-12">
        <g class="cls-21">
          <circle class="cls-2" cx="104.61" cy="127.09" r="16.42" transform="translate(-30.3 221.39) rotate(-85.49)"/>
        </g>
      </g>
    </mask>
    <radialGradient id="radial-gradient-4" cx="-3042.42" cy="-283.68" fx="-3042.42" fy="-283.68" r="16.65" gradientTransform="translate(368.34 2854.31) rotate(79.15) scale(.9)" xlink:href="#radial-gradient-2"/>
  </defs>
  <g class="cls-15">
    <g id="Layer_2" data-name="Layer 2">
      <g id="Boy_01" data-name="Boy 01">
        <g>
          <g>
            <path class="cls-16" d="M97.91,178.49c-7.29,8.5-17.61,13.06-28.02,13.07-10.41,0-20.74-4.54-27.76-12.21,5.55-1.84,11.05-3.31,14.47-7.35,1.67-1.97,2.69-4.41,3.22-6.96.18-.86.31-1.73.38-2.6.29-3.44-.12-6.91-.53-10.34,2.79-1.69,7-2.17,10.95-1.66s7.72,1.94,11.44,3.36c-.05,3.66.04,7.73,1.01,11.62.37,1.5.88,2.97,1.55,4.39,2.43,5.1,7.68,9.27,13.3,8.68Z"/>
            <path class="cls-5" d="M83.06,165.42c-7.48,2.26-15.75,2.11-23.24-.38.18-.86.31-1.73.38-2.6.29-3.44-.12-6.91-.53-10.34,2.79-1.69,7-2.17,10.95-1.66s7.72,1.94,11.44,3.36c-.05,3.66.04,7.73,1.01,11.62Z"/>
          </g>
          <g>
            <path class="cls-18" d="M141.06,235.25c-41.57,22.39-93.35,23.46-137.08,4.72.22-2.07.5-4.16.83-6.26.33-2.1.72-4.22,1.17-6.33.62-2.93,1.36-5.85,2.22-8.72.6-2.01,1.26-4,1.99-5.96,1.07-2.91,2.29-5.75,3.67-8.48.94-1.87,1.95-3.69,3.04-5.44,1.66-2.7,3.5-5.24,5.53-7.59,1.52-1.77,3.16-3.43,4.9-4.96,4.69-4.13,10.19-7.34,16.6-9.26,1.55-.46,3.14-.85,4.8-1.16,11.63,10.66,33.82,11.58,44.14-.94,1.42.45,2.82.94,4.2,1.48,6.67,2.62,12.85,6.31,18.35,10.83,1.88,1.54,3.67,3.17,5.38,4.9,2.47,2.49,4.77,5.17,6.85,8,1.26,1.71,2.45,3.48,3.55,5.29,1.68,2.75,3.17,5.62,4.46,8.57.82,1.89,1.56,3.81,2.21,5.76.77,2.33,1.43,4.69,1.94,7.09.44,2.03.78,4.08,1.03,6.14.09.76.17,1.53.23,2.29Z"/>
            <path class="cls-20" d="M97.05,176.37c-12.7,16.75-39.95,16.48-53.13.61,1.55-.46,3.14-.85,4.8-1.16,11.63,10.66,33.82,11.58,44.14-.94,1.42.45,2.82.94,4.2,1.48Z"/>
            <g class="cls-6">
              <path class="cls-14" d="M120.78,192.09c-14.43,4.18-29.43,6.43-44.73,6.7-1.01.02-2.03.03-3.04.03-17.31,0-34.3-2.56-50.58-7.62,1.52-1.77,3.16-3.43,4.9-4.96,15.67,4.53,32,6.68,48.62,6.4,13.46-.23,26.68-2.06,39.46-5.44,1.88,1.54,3.67,3.17,5.38,4.9Z"/>
              <path class="cls-14" d="M131.19,205.39c-18.06,6.29-37.57,9.58-57.02,9.59h-.04c-20.62,0-41.31-3.7-60.27-10.74.94-1.87,1.95-3.69,3.04-5.44,18.03,6.57,37.66,10.02,57.23,10.02h.04c18.22,0,36.49-3,53.47-8.72,1.26,1.71,2.45,3.48,3.55,5.29Z"/>
              <path class="cls-14" d="M137.86,219.72c-14.38,4.25-29.22,7.11-44.3,8.53-7.35.7-14.72,1.04-22.07,1.04-13.44,0-26.82-1.16-39.98-3.47-11.71-2.06-18.6-4.62-23.31-7.15.6-2.01,1.26-4,1.99-5.96,6.81,3.9,14.74,5.7,22.38,7.04,19.81,3.48,40.14,4.27,60.41,2.36,14.52-1.37,28.81-4.11,42.66-8.16.82,1.89,1.56,3.81,2.21,5.76Z"/>
              <path class="cls-14" d="M4.81,233.72c20.55,10.39,42.38,13.3,60.39,13.3,4.79,0,9.31-.21,13.46-.53,21.68-1.7,42.48-7.07,62.17-13.52-.24-2.07-.59-4.12-1.03-6.14-19.57,6.45-40.21,11.85-61.62,13.53-19.38,1.52-47,.34-72.2-12.95l-1.17,6.33Z"/>
            </g>
            <g>
              <path class="cls-13" d="M26.28,244.79s-.04,0-.07,0c-.62-.04-1.1-.57-1.06-1.19.85-14.94,4.24-29.51,10.05-43.3.24-.57.9-.84,1.48-.6.58.24.84.91.6,1.48-5.71,13.55-9.03,27.87-9.87,42.56-.03.6-.53,1.07-1.13,1.07Z"/>
              <path class="cls-13" d="M33.76,208c-.52,0-.99-.37-1.11-.9-.58-2.78-2.25-5.3-4.59-6.91-.51-.35-.64-1.06-.29-1.57.35-.51,1.06-.64,1.57-.29,2.81,1.94,4.83,4.97,5.52,8.31.13.61-.27,1.21-.88,1.34-.08.02-.15.02-.23.02Z"/>
            </g>
            <g>
              <path class="cls-13" d="M115.08,244.27c-.61,0-1.11-.48-1.13-1.09-.48-13.41-4.11-26.73-10.51-38.52-.3-.55-.09-1.23.45-1.53.55-.3,1.23-.09,1.53.45,6.56,12.1,10.29,25.76,10.78,39.51.02.62-.47,1.15-1.09,1.17-.01,0-.03,0-.04,0Z"/>
              <path class="cls-13" d="M108.48,213.71c-.07,0-.13,0-.2-.02-.61-.11-1.02-.7-.91-1.31.69-3.78,2.66-7.25,5.56-9.77.47-.41,1.18-.36,1.59.11.41.47.36,1.18-.11,1.59-2.51,2.18-4.22,5.19-4.82,8.46-.1.55-.57.93-1.11.93Z"/>
            </g>
          </g>
          <g>
            <path class="cls-16" d="M17.62,100.62c0-32.35-2.98-60.81,53.23-60.81s52.22,28.52,54.26,60.81c2.4,38.13-18.42,58.58-53.74,58.58-32.87-.26-53.74-17.47-53.74-58.58Z"/>
            <g>
              <path class="cls-7" d="M119.49,80.62c.16,4.1-1.83,7.45-1.63,11.55.26,4.71,4.66,7.03,6.32,11.53,1.57-4.57,2.66-9.3,3.11-14.12.71-7.54-.14-15.17-2.81-22.27-2.59-6.9-6.89-12.98-12.65-17.59-5.96-4.78-13.26-7.63-20.64-9.37-7.85-1.85-16.08-2.66-24.14-2.45-8.32.22-16.67,1.63-24.4,4.76-6.48,2.63-12.5,6.74-17.38,11.73-4.82,4.93-8.76,11.01-10.7,17.67-1.87,6.43-1.88,13.37-.13,19.82,1.08,3.96,2.85,7.73,5.27,11.03,2.49-6.14,8.15-11.4,7.3-18.49-1.91-7.75-5.56-14.31-1.08-22.2,10.21-18.28,29.39.95,42.16-9.81,6.11,4.5,15.08,4.63,21.37.24,3.55,3.2,9.75,2.75,13.63-.35,11.24,3.73,18.97,17.02,16.41,28.31Z"/>
              <path class="cls-19" d="M61.46,4.43c3.68,5.03,2.16,13.04-3.1,16.38-3.79,2.4-8.55,2.36-13.01,2.86C7.6,25.45-6.85,77.55,19.61,110.67c-2.56-10.39,8.6-18.75,7.4-28.79-1.91-7.75-5.56-14.31-1.08-22.2,10.21-18.28,29.39.95,42.16-9.81,6.11,4.5,15.08,4.63,21.37.24,3.55,3.2,9.75,2.75,13.63-.35,11.24,3.73,18.97,17.02,16.41,28.31.16,4.1-1.83,7.45-1.63,11.55.37,6.65,8.13,9.42,5.64,19.38,20.11-30.67,18.73-69-10.13-81.86,1.87-6.44-.24-13.87-5.54-18.55,3.1,5.12-3.11,12.83-8.16,14.08.08-9.18-5.17-18.21-13.5-22.67,2.27,7.76-1.91,16.19-9.66,19.1-1.26-6.83-7.12-12.56-15.04-14.67Z"/>
            </g>
            <g>
              <path d="M69.43,48.41c-.2,0-.41-.07-.57-.22-.35-.31-.37-.85-.06-1.2,5.91-6.52,8.33-15.89,6.3-24.46-.11-.46.17-.91.63-1.02.46-.11.91.17,1.02.63,2.15,9.1-.41,19.06-6.7,25.99-.17.18-.4.28-.63.28Z"/>
              <path d="M90.38,49.13c-.24,0-.48-.1-.65-.3-.3-.36-.25-.89.11-1.19,6.56-5.49,9.92-14.49,8.57-22.94-.07-.46.24-.9.7-.97.46-.07.9.24.97.7,1.44,9.02-2.15,18.64-9.16,24.5-.16.13-.35.2-.54.2Z"/>
              <path d="M93.64,33.1c-.12,0-.23-.02-.34-.07-.43-.19-.62-.69-.43-1.12,3.32-7.45,2.19-16.8-2.81-23.24-.29-.37-.22-.9.15-1.19.37-.29.9-.22,1.19.15,5.37,6.93,6.58,16.96,3.02,24.97-.14.32-.45.5-.77.5Z"/>
              <path d="M102.5,47.76c-.22,0-.44-.08-.6-.25-.33-.33-.32-.87.01-1.2,4.87-4.79,8.27-11.12,9.55-17.83.09-.46.53-.76.99-.67.46.09.76.53.67.99-1.35,7.05-4.91,13.7-10.03,18.72-.16.16-.38.24-.59.24Z"/>
              <path d="M130.91,67.25s-.03,0-.05,0c-.47-.03-.82-.43-.8-.9.73-12.18-5.14-24.74-14.94-32-.38-.28-.46-.81-.18-1.19.28-.38.81-.46,1.19-.18,10.25,7.59,16.39,20.73,15.62,33.46-.03.45-.4.8-.85.8Z"/>
              <path d="M122.98,83.02c-.06,0-.12,0-.18-.02-.46-.1-.75-.55-.64-1.01,1.66-7.49.73-15.42-2.63-22.32-.2-.42-.03-.93.39-1.13.42-.2.93-.03,1.13.39,3.52,7.24,4.5,15.56,2.76,23.43-.09.4-.44.66-.83.66Z"/>
              <path d="M10.05,69.86c-.46,0-.84-.37-.85-.83-.13-8.22,2.49-16.71,7.36-23.92,4.87-7.2,11.79-12.78,19.47-15.72.44-.17.93.05,1.09.49.17.44-.05.93-.49,1.09-15.16,5.8-25.99,21.79-25.74,38.03,0,.47-.37.85-.83.86,0,0,0,0-.01,0Z"/>
              <path d="M51.23,49.02c-.42,0-.79-.32-.84-.74-.06-.46.27-.89.74-.94,7.09-.87,13.54-5.34,16.85-11.66,3.31-6.33,3.29-14.18-.05-20.49-.22-.41-.06-.93.35-1.15.41-.22.93-.06,1.15.35,3.59,6.8,3.61,15.25.05,22.07-3.56,6.81-10.51,11.63-18.14,12.56-.03,0-.07,0-.1,0Z"/>
              <path d="M43.8,46.35c-.43,0-.8-.32-.84-.76-.05-.47.29-.88.76-.93,5.3-.55,10.32-2.9,14.13-6.63.33-.33.87-.32,1.2.01.33.33.32.87-.01,1.2-4.08,3.99-9.46,6.51-15.14,7.1-.03,0-.06,0-.09,0Z"/>
              <path d="M19.32,73.43c-.46,0-.83-.36-.85-.82-.14-4.5.01-10.32,2.39-15.48,2.47-5.35,7.29-9.1,12.28-9.55.47-.04.88.3.92.77.04.47-.3.88-.77.92-4.4.39-8.67,3.76-10.9,8.57-2.23,4.83-2.37,10.4-2.23,14.71.01.47-.35.86-.82.87,0,0-.02,0-.03,0Z"/>
              <path d="M12.43,84.73c-.32,0-.63-.19-.77-.5-1.63-3.64-2.41-7.68-2.25-11.67.02-.47.41-.83.88-.81.47.02.83.41.81.88-.15,3.73.57,7.5,2.1,10.9.19.43,0,.93-.43,1.12-.11.05-.23.07-.35.07Z"/>
            </g>
            <g>
              <g>
                <path class="cls-16" d="M23.51,130.28c-.67.17-1.36.28-2.04.34-5.63.49-11.47-1.45-15.53-5.18C1.88,121.72-.34,116.28.04,110.98c.26-3.64,1.89-7.39,5.17-9.31,2.82-1.66,6.48-1.72,9.66-.77,1.77.53,3.42,1.33,4.98,2.29.07,1.14.14,2.27.21,3.41.03,2,.1,3.96.22,5.87.29,4.54.87,8.81,1.81,12.81.4,1.72.88,3.39,1.42,5Z"/>
                <path class="cls-7" d="M22.08,125.28c-6.21-.18-12.18-3.93-14.73-9.27-.58-1.21-.99-2.52-.95-3.83.05-1.32.61-2.66,1.71-3.49,1.86-1.39,4.61-.94,6.78.01,2.04.9,3.88,2.19,5.39,3.77.29,4.54.87,8.81,1.81,12.81Z"/>
              </g>
              <g>
                <path class="cls-16" d="M120.06,130.28c.67.17,1.36.28,2.04.34,5.63.49,11.47-1.45,15.53-5.18,4.06-3.72,6.28-9.16,5.9-14.46-.26-3.64-1.89-7.39-5.17-9.31-2.82-1.66-6.48-1.72-9.66-.77-1.77.53-3.42,1.33-4.98,2.29-.07,1.14-.14,2.27-.21,3.41-.03,2-.1,3.96-.22,5.87-.29,4.54-.87,8.81-1.81,12.81-.4,1.72-.88,3.39-1.42,5Z"/>
                <path class="cls-7" d="M121.48,125.28c6.21-.18,12.18-3.93,14.73-9.27.58-1.21.99-2.52.95-3.83-.05-1.32-.61-2.66-1.71-3.49-1.86-1.39-4.61-.94-6.78.01-2.04.9-3.88,2.19-5.39,3.77-.29,4.54-.87,8.81-1.81,12.81Z"/>
              </g>
              <g class="cls-10">
                <circle class="cls-4" cx="42.13" cy="127.09" r="16.42" transform="translate(-88.07 95.87) rotate(-58.18)"/>
              </g>
              <g class="cls-11">
                <circle class="cls-8" cx="104.61" cy="127.09" r="16.42" transform="translate(-30.3 221.39) rotate(-85.49)"/>
              </g>
              <path class="cls-17" d="M72.96,134.22c-.14,0-.29,0-.44,0-6.39-.13-11.75-3.13-13.99-7.83-.27-.56-.03-1.24.53-1.51.56-.27,1.24-.03,1.51.53,1.87,3.92,6.47,6.43,12,6.54,6.89.14,11.2-3.31,12.93-6.59.29-.55.98-.76,1.53-.47.55.29.76.98.47,1.53-2.56,4.83-8.1,7.79-14.54,7.79Z"/>
              <path class="cls-17" d="M74.27,118.19c-2.44,0-4.71-1.32-5.37-3.15-.26-.73-.61-2.62,1.79-4.42l.08-.06.09-.04c1.51-.77,2.69-2.01,3.06-3.24.25-.83.15-1.65-.3-2.45-.31-.54-.11-1.23.43-1.54.54-.31,1.23-.11,1.54.43.75,1.34.92,2.8.49,4.22-.55,1.8-2.08,3.5-4.11,4.55-.58.45-1.18,1.11-.94,1.79.3.85,1.75,1.72,3.43,1.65.63-.03,1.15.46,1.18,1.08.03.62-.46,1.15-1.08,1.18-.09,0-.19,0-.28,0Z"/>
              <g>
                <g>
                  <circle class="cls-19" cx="99.43" cy="101.46" r="7.35" transform="translate(-33.42 151.79) rotate(-66.33)"/>
                  <path class="cls-9" d="M103.79,98.65c-.12.93-.97,1.58-1.89,1.46-.93-.12-1.58-.97-1.46-1.89.12-.93.97-1.58,1.89-1.46.93.12,1.58.97,1.46,1.89Z"/>
                </g>
                <path class="cls-19" d="M108.37,85.88c-2.38-1.39-4.81-2.19-7.41-2.77-1.9-.43-3.89-.67-5.89-.77-.99-.05-1.42-1.26-.68-1.93,1.95-1.77,5-2.31,7.55-1.72,3.29.69,6.71,3.55,6.43,7.18h0Z"/>
              </g>
              <g>
                <g>
                  <circle class="cls-19" cx="43.75" cy="102.55" r="7.35" transform="translate(-66.87 88.68) rotate(-59.75)"/>
                  <path class="cls-9" d="M48.12,99.73c-.12.93-.97,1.58-1.89,1.46-.93-.12-1.58-.97-1.46-1.89.12-.93.97-1.58,1.89-1.46.93.12,1.58.97,1.46,1.89Z"/>
                </g>
                <path class="cls-19" d="M34.79,85.88c2.38-1.39,4.81-2.19,7.41-2.77,1.9-.43,3.89-.67,5.89-.77.99-.05,1.42-1.26.68-1.93-1.95-1.77-5-2.31-7.55-1.72-3.29.69-6.71,3.55-6.43,7.18h0Z"/>
              </g>
            </g>
          </g>
        </g>
      </g>
    </g>
  </g>
</svg>